<svg xmlns="http://www.w3.org/2000/svg" viewBox="0 0 74.46 102.57"><defs><style>.cls-1{isolation:isolate;}.cls-2{fill:#a97a49;}.cls-3{fill:#4f2d26;}.cls-4{fill:#e1dbd8;}.cls-5{fill:#372e2b;}.cls-6{fill:#fff;opacity:0.8;mix-blend-mode:overlay;}.cls-7{opacity:0.15;mix-blend-mode:darken;}</style></defs><g class="cls-1"><g id="Layer_2" data-name="Layer 2"><g id="dragzone_items"><g id="oreo"><path class="cls-2" d="M3,37.68c.87,2.06,1.17,2.11.47,4.26-.36,1.08-1,2.18-.85,3.27L2,45.33c-.58-4.32-.61-7.8.58-8.59C2.7,37,2.87,37.26,3,37.68Z"/><path d="M3.14,35.9a.34.34,0,0,1-.09.67.92.92,0,0,0-.47.17,1.73,1.73,0,0,1-.17-.92A1.59,1.59,0,0,1,3.14,35.9Z"/><path d="M1.24,38.52s0,0,0,0A0,0,0,0,1,1.24,38.52Z"/><path d="M72.39,34.4c.22,3.6,1.36,4.27-.14,6.76.09-1.24.14-2.47.15-3.67,0-.07-.12-.12-.15,0-.45,1-.86,2.11-1.25,3.17l-1-.36c.29-.93,0-5.71-.7-6.72a22.71,22.71,0,0,0-5.08-2.81c-1.25-.21-2.15,0-3-.1,0-.83-.12-1.67-.23-2.51,2.7.14,4.72-.24,7.11,1.49C70.82,31.53,72.18,31.13,72.39,34.4Z"/><path d="M72.4,37.49c0,1.2-.06,2.43-.15,3.67l-.34.53c-1.07,1.55-.56,3.24-1.49,4.69-.44.71-1.09.83-1.68,1.26.69-2.37,1.43-4.72,2.26-7,.39-1.06.8-2.12,1.25-3.17C72.28,37.37,72.4,37.42,72.4,37.49Z"/><path d="M71.91,41.69l.34-.53c-.81,11-4.78,23-9.08,32.78-1.88,4.29-5.85,8-9.44,10.92a19.88,19.88,0,0,1-10.75,4l.94-.29c.66-.23.6-1.34-.18-1.3-2,.13-4,.24-5.92.26a5.9,5.9,0,0,1,1-.26,32.64,32.64,0,0,0,8.94-1.84c3.58-1.27,5.53-3.54,8-6.16,1.86-1.94,3.67-3.5,4.77-6s1.91-5,2.81-7.5c1-2.68,1.81-5.43,2.59-8.19.93-3.29,1.79-6.62,2.74-9.9.59-.43,1.24-.55,1.68-1.26C71.35,44.93,70.84,43.24,71.91,41.69Z"/><path d="M70.05,40.26l1,.36c-.83,2.3-1.57,4.65-2.26,7l-.09.07a5.22,5.22,0,0,0-2.24,2.51c-.12.37.21.88.1,1.27a12.9,12.9,0,0,1-.43,1.39A3.55,3.55,0,0,1,62.91,55c-1,0-1.82-.85-2.58-.87-2.5,0-2.54,3.17-4.38,4a2.1,2.1,0,0,1-.63.19,1.82,1.82,0,0,1-2-.69,2.1,2.1,0,0,1-.23-1.38,5.07,5.07,0,0,1,1.17.93.42.42,0,0,0,.66-.5.3.3,0,0,1,0-.08c1.34-.67,2.12-4.64,3.38-5.07s1.32.51,2.28.63c5.52.71,2.8-3.06,4.11-5s2.87-1.27,3.73-3.85c.21-.62.25-1.31.5-2,.17-.47.88-.61,1.08-1A.51.51,0,0,0,70.05,40.26Z"/><path class="cls-3" d="M69.35,33.54c.7,1,1,5.79.7,6.72a.51.51,0,0,1,0,.1c-.2.4-.91.54-1.08,1-.25.66-.29,1.35-.5,2-.86,2.58-2.51,2.06-3.73,3.85s1.41,5.7-4.11,5c-1-.12-1.11-1-2.28-.63s-2,4.4-3.38,5.07c-.77-1.46-2-3.24-4-2.7-2.51.7-2.17,4.72-5.45,3.72-1.61-.49-2.79-2.39-4.7-1.79-1.05.33-1.16.84-1.65,1.58l-.5.94c-2.3,1.66-3.54,2-6.14-.51-.2-.11,0-.42-.37-.84a4.41,4.41,0,0,0-4.26.77c-.23-.09-.9,1.52-2.08,1.21s-1.85-.67-2-1c-.33-.68,1-1.36.11-2.48-.5-.61-.4-1.12-1.12-1.56a1.89,1.89,0,0,0-1.87-.26c-2.41.66-.75,4.06-4,2-1.13-.09-1.54-2.07-1.63-2.81a1.09,1.09,0,0,0,0-1.21c-1.78-2.91-6-.82-7.35-3.31-.4-.71.1-1.68-.36-2.29s-1.82-.66-2-1c-.74-1,.64-3.83.64-5.09,0-1.45-.59-1.52-.88-2.81-.46-2,.77-3.33,1.7-4.67l0-.76c.74-1.79,3.94-2.41,5.74-2.26.19,0,.34-.05.5-.07C11.23,35,10.31,43.62,17.31,45.7l.24,0C20.5,49.28,26.63,51,30.6,51.79A30.22,30.22,0,0,0,46.22,51a2.29,2.29,0,0,0,.37-.12l0,0a24.25,24.25,0,0,0,3-1.28l.38-.26A17.85,17.85,0,0,0,61.32,32.79c0-.7,0-1.43,0-2.16.85.11,1.75-.11,3,.1A22.71,22.71,0,0,1,69.35,33.54Z"/><path class="cls-2" d="M68.65,47.71l.09-.07c-.95,3.28-1.81,6.61-2.74,9.9-.78,2.76-1.62,5.51-2.59,8.19-.9,2.5-1.75,5.06-2.81,7.5s-2.91,4.09-4.77,6c-2.51,2.62-4.46,4.89-8,6.16a32.64,32.64,0,0,1-8.94,1.84,5.9,5.9,0,0,0-1,.26h-.23A34.31,34.31,0,0,1,25.4,85.75c-4.21-1.48-10.14-4.49-12.88-8.26-.27-.36-.52-.75-.76-1.14-2.29-3.61-4-8.47-5.44-12.51l-.44-1.19c-.34-.87-.69-1.79-1.07-2.73C3.82,55.57,2.6,50,2,45.33l.66-.12a2.34,2.34,0,0,0,.52,1.11c.35.43,1,.49,1.31.86s.63.51.69.44c0,.14.1.31.18.54.25.74.29,1.3.5,1.79a2.49,2.49,0,0,0,1,1.1c1.41.92,5.28.58,6.27,1.86a1.31,1.31,0,0,0,.66.46c.25,1.6,0,3.28,2,4.21a3.63,3.63,0,0,0,1.52.34l1.91,1.16a.11.11,0,0,0,0,.06,46.48,46.48,0,0,0,.89,12.16c.27,1.53.34,4.09,1.27,5.38.74,1,1.63,1,2.57,1.83l0,0c0,.1,0,.21,0,.31-.12,2.73,1.26,1.07,1.45.2l.15-.68c.06-.34.12-.67.17-1,.85-5.65-.6-11.15-1.34-16.75a.17.17,0,0,0-.16-.13l.29-.45a1.77,1.77,0,0,0,.63.17c2.85.31,3.55-3.49,7.08-1.33.62.38.87,1.57,1.65,2a3.58,3.58,0,0,0,2.69.46c3.3-.7,3-5.5,7.2-3.63a10.8,10.8,0,0,1,2,1.53,2.28,2.28,0,0,0,2,.4c2.34-.58,2.93-4.63,5.29-3.4a2.1,2.1,0,0,0,.23,1.38l-1.75,1a.12.12,0,0,0-.12.11A33.93,33.93,0,0,1,49,67.9c-1.16,2.53-2.27,7.29-3.15,9.94a1.7,1.7,0,0,0-.09.24c-.27.86-2,3-.45,2a6.4,6.4,0,0,0,1.25-2.62l1.59.21C47,80,50.53,75.55,51,74.31A15.47,15.47,0,0,1,52.36,72c2.36-4.22,4.85-8.57,4.55-13.67a.18.18,0,0,0-.27-.13l0,0L56,58.15c1.84-.88,1.88-4.09,4.38-4,.76,0,1.6.91,2.58.87a3.55,3.55,0,0,0,3.17-2.09,12.9,12.9,0,0,0,.43-1.39c.11-.39-.22-.9-.1-1.27A5.22,5.22,0,0,1,68.65,47.71ZM61.92,56.2c0-.11-.16-.13-.2,0C60.55,59.89,60,63.94,58,67.28c-1.1,1.84-2,3.55-3.06,5.42a17.86,17.86,0,0,0-1.78,3.23c-.21.71-1.39,3.06-.9,2.43A67.44,67.44,0,0,0,58.7,68.23,33.16,33.16,0,0,0,61.92,56.2ZM42.63,77.07c1.48-5,4.35-11.92,2.64-17.14a.06.06,0,0,0-.06,0s-.06,0-.06,0c-.53,2.62-.54,5.35-1.2,7.95S42.15,76,41.21,78.61C40.69,80.1,42.49,77.55,42.63,77.07ZM38,78.35a71.07,71.07,0,0,0-.19-16c0-.12-.19-.07-.2,0-.6,5.26-1,10.64-1.17,15.94C36.44,79.36,37.42,85.28,38,78.35ZM35,62.58s0,0,0,0C33.8,69,32.17,72.85,33.38,79.35c1.28,6.89.77,1.37.8.25C34.4,73.15,34.8,69,35,62.58ZM28.91,76.74c1.06-5.56.56-9.78-.72-15.21a.26.26,0,0,0-.51.07c.07,2.68.27,5.37.21,8.05s-.52,5.36-.48,8.07C27.42,78.72,27.74,82.9,28.91,76.74ZM15,76.43c.26.6,1.32,2.22,1.26,1.43-2.16-7.34-4-13.51-4.77-19.71,0-.15-.26-.15-.24,0C11.88,64.41,12.5,70.53,15,76.43Z"/><path d="M61.72,56.18c0-.11.21-.09.2,0a33.16,33.16,0,0,1-3.22,12,67.44,67.44,0,0,1-6.46,10.13c-.49.63.69-1.72.9-2.43a17.86,17.86,0,0,1,1.78-3.23c1-1.87,2-3.58,3.06-5.42C60,63.94,60.55,59.89,61.72,56.18Z"/><path d="M61.27,30.63c0,.73,0,1.46,0,2.16A17.85,17.85,0,0,1,50,49.35c.46-.35,1.18-.88,1.06-1l-1.57.53a.25.25,0,0,0-.17,0h0c-1.07.23-2.15.45-3.22.64l-.67.11c4.07-1.32,8.92-5.58,11.36-9.29,1.73-2.63,1.88-5.67,2-8.71,0-.93,0-1.81,0-2.67h.46a.83.83,0,0,0,.23.62A3.23,3.23,0,0,0,61.27,30.63Z"/><path d="M61,28.12c.11.84.19,1.68.23,2.51a3.23,3.23,0,0,1-1.88-1.06A.92.92,0,0,1,60,28Z"/><path d="M61,28.12,60,28a.83.83,0,0,0-.87.91H58.7a18,18,0,0,0-6.61-13.73l.21.06a.37.37,0,0,0,.43-.28C58.11,17.1,60.33,22.62,61,28.12Z"/><path class="cls-4" d="M58.7,29c0,.86,0,1.74,0,2.67-.09,3-.24,6.08-2,8.71-2.44,3.71-7.29,8-11.36,9.29h0a42.1,42.1,0,0,1-12.29.46c-4.75-.59-10.92-2.08-14.76-5.5a.76.76,0,0,0-.21-.28c-.3-.25-.59-.52-.86-.79s-.31-.37-.46-.56a.25.25,0,0,0-.16-.11h0C9,34,19.19,19.47,27.19,13.53c.46-.19.87-.47,1.32-.69a12.53,12.53,0,0,1,2-.82.28.28,0,0,0,.21-.18c.56-.11,1.1-.19,1.64-.35l.33-.1.42.25,1.89,1c.49.29,1,.57,1.43.88a11.89,11.89,0,0,1,2,1.82c.25.25.49.52.75.78.57,0,1.15,0,1.73.07a18.27,18.27,0,0,1,3,.26,13.49,13.49,0,0,1,4.11,1.59,1.22,1.22,0,0,0,1.36.85c.55.39,1.08.8,1.58,1.22a.45.45,0,0,0,.74-.43A4,4,0,0,0,50.53,18a2.06,2.06,0,0,0,0-.26c0-1,0-2,0-2.94.52.14,1,.3,1.55.45A18,18,0,0,1,58.7,29Zm-4.91,10.5a.78.78,0,0,0,0-.77l-.23-.43a.59.59,0,0,0-.82-.19.24.24,0,0,1-.09-.06.71.71,0,0,0-.6-.07.78.78,0,0,0-.47.35.82.82,0,0,0,.29,1.07,3.44,3.44,0,0,0,.53.3,1.59,1.59,0,0,0,.74.18A.8.8,0,0,0,53.79,39.46ZM49.61,24.62a.79.79,0,0,0-.18-.75.69.69,0,0,0-.82-.1h0s0,0,0,0h-.07s0,0,0,0l0,0s0,0-.05,0h0a.5.5,0,0,0-.49.46h0a1,1,0,0,0,0,.29A1.21,1.21,0,0,0,48,25a.43.43,0,0,0,.28.21.21.21,0,0,0,.15,0,.18.18,0,0,0,.11,0h0a.74.74,0,0,0,.69-.08A.91.91,0,0,0,49.61,24.62ZM46.06,36.14a.71.71,0,0,0,0-.68.72.72,0,0,0-.62-.35,1,1,0,0,0-.77.3,1.33,1.33,0,0,0-.3.53h0l0,0a.49.49,0,0,0,0,.39,1.34,1.34,0,0,0,.42,1,.72.72,0,0,0,1.17-.79l0-.07v0h0a.57.57,0,0,0,.12-.15l.06-.14h0s0,0,0,0ZM40,23.84a.37.37,0,0,0-.56-.32,1.73,1.73,0,0,0-.55.72.25.25,0,0,0-.23.06,1.1,1.1,0,0,0-.46,1,.69.69,0,0,0,.69.59C39.79,25.88,40,24.5,40,23.84Zm-3,19a1.76,1.76,0,0,0,.16-1.29.88.88,0,0,0-1-.63.87.87,0,0,0-.76.86s0,0,0,0,0,0,0,0a.89.89,0,0,0-.22.4.6.6,0,0,0-.34.55.66.66,0,0,0,.64.64.93.93,0,0,0,.24,0,1.2,1.2,0,0,0,.32.06A1,1,0,0,0,37,42.86Zm-.77-24.3a4.19,4.19,0,0,0,0-1.12,1.56,1.56,0,0,0-.73-.9,1.45,1.45,0,0,0-1.17-.12,1,1,0,0,0-.65.6h0s0,.06,0,.07h0v0a1.34,1.34,0,0,0-.09.24,1.28,1.28,0,0,0,.88,1.6.78.78,0,0,0,.22,0,.84.84,0,0,0,.75.45A.9.9,0,0,0,36.27,18.56ZM31.14,32.88a1.28,1.28,0,0,0,.2-.79.57.57,0,0,0-.95-.4,1.83,1.83,0,0,0-.59,1.44.36.36,0,0,0,.7.09l0-.06A.64.64,0,0,0,31.14,32.88ZM27.06,21.36a.18.18,0,0,0-.32-.18,1.56,1.56,0,0,1-.42.43c.07-.12.12-.23.18-.35s-.11-.3-.22-.17c-.3.34-.59.68-.88,1a.28.28,0,0,0,.28.46,1.56,1.56,0,0,0,.85-.44,2.22,2.22,0,0,0,.28-.33s0,0,0,0a0,0,0,0,0,0,0h0l.06-.11,0-.07A1.47,1.47,0,0,1,27.06,21.36ZM23.2,36.1A2.72,2.72,0,0,0,23.6,34c-.13-.56-.86-.43-1,0a.53.53,0,0,0-.74.59c.11.46.2.92.3,1.38A.57.57,0,0,0,23.2,36.1Z"/><path class="cls-2" d="M56.91,58.32c.3,5.1-2.19,9.45-4.55,13.67A15.47,15.47,0,0,0,51,74.31c-.51,1.24-4,5.73-2.9,3.33.25-.54.72-1.42,1.51-2.76,1.46-2.48,3-5.75,4.42-8.24a24.68,24.68,0,0,0,2.52-8.37s0,0,0-.05l0,0A.18.18,0,0,1,56.91,58.32Z"/><path class="cls-2" d="M56.61,58.22s0,0,0,.05a24.68,24.68,0,0,1-2.52,8.37c-1.43,2.49-3,5.76-4.42,8.24-.79,1.34-1.26,2.22-1.51,2.76l-1.59-.21c.51-1.61,1-3.45,1.23-4,2.12-4.6,4.12-9.43,4-14.61a.15.15,0,0,0-.15-.14l1.75-1a1.82,1.82,0,0,0,2,.69,2.1,2.1,0,0,0,.63-.19Z"/><path d="M55,56.7a.42.42,0,0,1-.66.5,5.07,5.07,0,0,0-1.17-.93.22.22,0,0,1,0-.08.21.21,0,0,1,.34-.08c.55.62,1,.72,1.44.51A.3.3,0,0,0,55,56.7Z"/><path d="M28,57.85l-.12-.05Zm26.9-1.23c-.42.21-.89.11-1.44-.51a.21.21,0,0,0-.34.08.22.22,0,0,0,0,.08c-2.36-1.23-3,2.82-5.29,3.4a2.28,2.28,0,0,1-2-.4,10.8,10.8,0,0,0-2-1.53c-4.25-1.87-3.9,2.93-7.2,3.63a3.58,3.58,0,0,1-2.69-.46c-.78-.47-1-1.66-1.65-2-3.53-2.16-4.23,1.64-7.08,1.33a1.77,1.77,0,0,1-.63-.17,3.26,3.26,0,0,1-1.39-1.79l.68-.21c.14.3.67.62,2,1s1.85-1.3,2.08-1.21A4.41,4.41,0,0,1,32.15,57c.33.42.17.73.37.84,2.6,2.47,3.84,2.17,6.14.51l.5-.94c.49-.74.6-1.25,1.65-1.58,1.91-.6,3.09,1.3,4.7,1.79,3.28,1,2.94-3,5.45-3.72C52.89,53.38,54.16,55.16,54.93,56.62Z"/><path d="M53.79,38.69a.78.78,0,0,1,0,.77.8.8,0,0,1-.65.38,1.59,1.59,0,0,1-.74-.18,3.44,3.44,0,0,1-.53-.3.82.82,0,0,1-.29-1.07.78.78,0,0,1,.47-.35.71.71,0,0,1,.6.07.24.24,0,0,0,.09.06l0,0a.46.46,0,0,0-.2.31h0l0,.14,0,.05a.34.34,0,0,0,0,.22h0s0,0,0,.06h.05l0,0a1,1,0,0,0,.43.22l-.21-.37.83-.33a1.09,1.09,0,0,0-.34-.13l-.11,0h0l-.07,0-.11-.05-.12-.09a.59.59,0,0,1,.82.19Z"/><path d="M53.52,38.42l-.83.33s0,0,0,0h0l0,0h0s0-.07,0-.08l0,0-.07-.14a.46.46,0,0,1,.2-.31l0,0,.12.09.11.05.07,0h0l.11,0A1.09,1.09,0,0,1,53.52,38.42Z"/><path d="M52.69,38.75l.21.37a1,1,0,0,1-.43-.22l0,0,.1,0a.37.37,0,0,0,.09.16s0,0,0,0v-.25Z"/><path d="M52.63,14.72a.34.34,0,0,1,.1.29c-.23-.09-.47-.18-.71-.25a.16.16,0,0,0-.15.27l.22.2c-.51-.15-1-.31-1.55-.45,0-.59-.09-1.19-.16-1.79A14.17,14.17,0,0,1,52.63,14.72Z"/><path d="M52,14.76c.24.07.48.16.71.25a.37.37,0,0,1-.43.28l-.21-.06-.22-.2A.16.16,0,0,1,52,14.76Z"/><path d="M52.68,38.73s0,0,0,0h0Z"/><path d="M52.68,38.76V39s0,0,0,0a.37.37,0,0,1-.09-.16Z"/><path d="M52.68,38.73v0l-.13.05a.55.55,0,0,1-.07-.28.1.1,0,0,1,.09,0l0,0a.59.59,0,0,0,0,.08h0a.06.06,0,0,1,0,0s0,0,.06,0Z"/><path d="M52.63,38.67l0,0s-.07,0-.06,0A.06.06,0,0,0,52.63,38.67Z"/><path d="M52.63,38.65a.59.59,0,0,1,0-.08S52.63,38.62,52.63,38.65Z"/><path d="M52.5,38.41l.07.14a.1.1,0,0,0-.09,0A.3.3,0,0,1,52.5,38.41Z"/><path d="M52.55,38.81l-.1,0a.1.1,0,0,1,0,0h0a2.56,2.56,0,0,0,.05-.27h0A.55.55,0,0,0,52.55,38.81Z"/><path d="M52.49,38.4h0a.3.3,0,0,0,0,.12h0Z"/><path d="M52.46,38.54a2.56,2.56,0,0,1-.05.27.34.34,0,0,1,0-.22Z"/><path d="M52.41,38.81a.1.1,0,0,0,0,0H52.4S52.41,38.83,52.41,38.81Z"/><path d="M51.77,58.81c.13,5.18-1.87,10-4,14.61-.26.56-.72,2.4-1.23,4a6.4,6.4,0,0,1-1.25,2.62c-1.52,1,.18-1.11.45-2a1.7,1.7,0,0,1,.09-.24c.88-2.65,2-7.41,3.15-9.94a33.93,33.93,0,0,0,2.51-9.12.12.12,0,0,1,.12-.11A.15.15,0,0,1,51.77,58.81Z"/><path d="M51.74,19.73a.45.45,0,0,1-.74.43c-.5-.42-1-.83-1.58-1.22a1.2,1.2,0,0,0,1.11-1A4,4,0,0,1,51.74,19.73Z"/><path d="M51,48.35c.12.12-.6.65-1.06,1q-.45.16-.9.3c-.05-.06.08-.33.17-.53l.42-.12a.47.47,0,0,0-.2-.12Z"/><path d="M50.54,14.78c0,1,.05,2,0,2.94a2.06,2.06,0,0,1,0,.26A10.37,10.37,0,0,0,48,16.46c0-.69,0-1.37-.09-2,.5.06,1,0,1.52.12S50.16,14.68,50.54,14.78Z"/><path d="M50.38,13c.07.6.11,1.2.16,1.79-.38-.1-.76-.18-1.13-.24s-1-.06-1.52-.12q-.07-1.11-.24-2.19A4.32,4.32,0,0,1,50.38,13Z"/><path d="M49.06,49.65q.45-.13.9-.3l-.38.26a24.25,24.25,0,0,1-3,1.28,14.14,14.14,0,0,0,1.82-1.56c.27-.06.53-.13.79-.21C49.14,49.32,49,49.59,49.06,49.65Z"/><path d="M49.65,49l-.42.12c0-.08.06-.15.07-.19l.15,0A.47.47,0,0,1,49.65,49Z"/><path d="M48.8,23.82h-.09s0,0,.09,0a.31.31,0,0,0-.19,0v0a.69.69,0,0,1,.82.1.79.79,0,0,1,.18.75.91.91,0,0,1-.4.52.74.74,0,0,1-.69.08,1,1,0,0,0,.54-.41l-.21.09a1.14,1.14,0,0,0,0-.41,1.4,1.4,0,0,0-.14-.39.4.4,0,0,0-.1-.12h0s0-.07,0-.11h.05Z"/><path d="M50.53,18a1.2,1.2,0,0,1-1.11,1c-.44-.3-.89-.58-1.36-.85a1.1,1.1,0,0,1-.06-.37c0-.42,0-.84,0-1.26A10.37,10.37,0,0,1,50.53,18Z"/><path d="M49.45,48.88l-.15,0s0,0,0,0A.25.25,0,0,1,49.45,48.88Z"/><path d="M49.42,18.94a1.22,1.22,0,0,1-1.36-.85C48.53,18.36,49,18.64,49.42,18.94Z"/><path d="M49.28,48.88s0,0,0,0l-.61.2a1.82,1.82,0,0,1,.58-.25Z"/><path d="M48.69,49.13l.61-.2s0,.11-.07.19c-.26.08-.52.15-.79.21a1.55,1.55,0,0,1,.24-.19Z"/><path d="M48.85,24.9l.21-.09a1,1,0,0,1-.54.41.34.34,0,0,1-.12,0v-.29a.82.82,0,0,0,.29-.26.61.61,0,0,1,0,.06l0,.24-.1,0,.11,0s0,0,0-.07Z"/><path d="M48.87,24.49a1.14,1.14,0,0,1,0,.41,2.25,2.25,0,0,1-.12-.21s0-.06,0-.08h0s0-.09.05-.14h-.08c0-.16,0-.3-.06-.46a.4.4,0,0,1,.1.12A1.4,1.4,0,0,1,48.87,24.49Z"/><path d="M49.27,48.88a1.82,1.82,0,0,0-.58.25h0a14.66,14.66,0,0,1-1.61.46l-.19,0a1.32,1.32,0,0,1-.83-.12C47.12,49.33,48.2,49.11,49.27,48.88Z"/><path d="M48.73,24.69a2.25,2.25,0,0,0,.12.21l-.09,0Z"/><path d="M48.61,23.79a.31.31,0,0,1,.19,0s-.06,0-.09,0h-.09A0,0,0,0,1,48.61,23.79Z"/><path d="M48.8,23.82l-.13,0s0,0,0,0Z"/><path d="M48.77,24.46c0,.05,0,.1-.05.14l0-.15Z"/><path d="M48.76,24.93s0,0,0,.07l-.11,0Z"/><path d="M48.72,24.61s0,.06,0,.08a.61.61,0,0,0,0-.06Z"/><path d="M48.72,24.6h0l0,0a1.4,1.4,0,0,0-.09-.17h0v0l.08,0h0Z"/><path d="M48.71,23.81s0,0,0,0h-.05v-.05Z"/><path d="M48.53,24.33s0,.05,0,.08l-.29-.08a.65.65,0,0,1,.13-.38s.05,0,.13,0a.18.18,0,0,1,.09.06h0c0,.16,0,.3.06.46l-.08,0a.61.61,0,0,1,0-.12l-.08,0Z"/><path d="M48.6,24.46a1.4,1.4,0,0,1,.09.17.82.82,0,0,1-.29.26v0l0,.06,0,0v.29a.49.49,0,0,1-.15-.1,1.28,1.28,0,0,1,0-.19l0,0a.08.08,0,0,0,0-.06v0a.93.93,0,0,1-.27-.24.55.55,0,0,1,0-.4l.29.08a.44.44,0,0,0,.08.35l.09.13Z"/><path d="M48.67,23.85h0Z"/><path d="M48.66,24.3a.61.61,0,0,0,0,.12h0s0-.05,0-.08h0Z"/><path d="M48.64,23.86h0Z"/><path d="M48.62,23.87s0,.07,0,.11a.18.18,0,0,0-.09-.06Z"/><path d="M48.62,23.87h0l-.08.05a.09.09,0,0,0-.07,0h.15Z"/><path d="M48.62,23.86h-.13l0,0h0a.13.13,0,0,1,.09,0Z"/><path d="M48.61,23.79a0,0,0,0,0,0,0,.13.13,0,0,0-.09,0h0Z"/><path d="M48.61,23.77v0l0,0h0A.1.1,0,0,1,48.61,23.77Z"/><path d="M48.61,23.76h0a.1.1,0,0,0,0,0S48.59,23.78,48.61,23.76Z"/><path d="M48.61,24.42v0l0,0Z"/><path d="M48.6,24.45h0l-.15.35-.09-.13a.44.44,0,0,1-.08-.35l.29.08Z"/><path d="M42.25,1c5.42,2.25,7.53,6.86,8.13,12a4.32,4.32,0,0,0-2.73-.76c-.58-3.77-2.12-7.07-6.24-8.9a14.05,14.05,0,0,0-14,2,1.81,1.81,0,0,0-.73.22C30.59,1.05,36.28-1.5,42.25,1Z"/><path d="M48.54,23.81h0Z"/><path d="M48.47,23.89a.09.09,0,0,1,.07,0c-.08,0-.12,0-.13,0l0,0,0,0Z"/><rect x="48.52" y="23.82" width="0.01" height="0.01"/><path d="M48.52,23.83l0,0s0,0,0,0Z"/><path d="M48.52,23.82h0Z"/><path d="M48.52,25.22h0a.18.18,0,0,1-.11,0v-.07A.34.34,0,0,0,48.52,25.22Z"/><path d="M48.51,23.83s0,0,0,0,0,0,0,0h-.06l0,0s0,0,0,0h0Z"/><path d="M48.5,23.83h0Z"/><path d="M48.68,49.14a1.55,1.55,0,0,0-.24.19c-.45.11-.9.2-1.37.27A14.66,14.66,0,0,0,48.68,49.14Z"/><path d="M48.49,23.87h0S48.49,23.87,48.49,23.87Z"/><path d="M48.48,23.87h0Z"/><path d="M48.47,23.88h0Z"/><path d="M48.46,23.89l0,0s0,0,0,0h0Z"/><rect x="48.45" y="23.88" width="0.01" height="0.01"/><path d="M48.39,23.89h.06s0,0,0,0l0,0a.65.65,0,0,0-.13.38L48,24.25a.81.81,0,0,1,.1-.18.69.69,0,0,1,.25-.2h0Z"/><path d="M48.39,23.88h0Z"/><path d="M48.42,23.86h-.05S48.4,23.85,48.42,23.86Z"/><path d="M48.4,25.18v.07a.21.21,0,0,1-.15,0v-.14A.49.49,0,0,0,48.4,25.18Z"/><path d="M48.4,24.85v0l0,0Z"/><path d="M48.24,24.85a.08.08,0,0,1,0,.06l0,0Z"/><path d="M48.25,25.08v.14A.43.43,0,0,1,48,25a1.21,1.21,0,0,1-.14-.39,1,1,0,0,1,0-.29c0,.05,0,.09,0,.13a.67.67,0,0,0,.1.19.51.51,0,0,0,.07.17A.67.67,0,0,0,48.25,25.08Z"/><path d="M48.24,24.89a1.28,1.28,0,0,0,0,.19.67.67,0,0,1-.21-.26.51.51,0,0,1-.07-.17A.93.93,0,0,0,48.24,24.89Z"/><path d="M48.34,23.87a.69.69,0,0,0-.25.2.81.81,0,0,0-.1.18l-.12,0a.5.5,0,0,1,0,.12A.5.5,0,0,1,48.34,23.87Z"/><path d="M48,17.72a1.1,1.1,0,0,0,.06.37A13.49,13.49,0,0,0,44,16.5a18.27,18.27,0,0,0-3-.26.88.88,0,0,0,0-.16,4.43,4.43,0,0,0-.33-.88,15.35,15.35,0,0,1,5.43.56,1.42,1.42,0,0,1,.05.22.67.67,0,0,0,1.18.21c.21.09.45.17.67.27C48,16.88,48,17.3,48,17.72Z"/><path d="M48,24.25a.55.55,0,0,0,0,.4.67.67,0,0,1-.1-.19s0-.08,0-.13h0a.5.5,0,0,0,0-.12Z"/><path class="cls-5" d="M47.89,14.42c0,.67.08,1.35.09,2-.22-.1-.46-.18-.67-.27a.54.54,0,0,0,.15-.36,0,0,0,0,0,0,0c0-.7,0-2.86,0-3.52-.31-3.58-2-6.66-5.48-8.23-4.13-1.87-11.17.26-15.24,2a2.52,2.52,0,0,1,.66-.74,14.05,14.05,0,0,1,14-2c4.12,1.83,5.66,5.13,6.24,8.9Q47.82,13.31,47.89,14.42Z"/><path d="M48.44,49.33a14.14,14.14,0,0,1-1.82,1.56l0,0-.37.12c-.93-.45-2.12-1-.86-1.39h0l.67-.11a1.32,1.32,0,0,0,.83.12l.19,0C47.54,49.53,48,49.44,48.44,49.33Z"/><path d="M47.45,12.28c0,.66,0,2.82,0,3.52a0,0,0,0,1,0,0,1.88,1.88,0,0,1-.75-.3,3.22,3.22,0,0,1-.16-2.7A1.87,1.87,0,0,1,47.45,12.28Z"/><path d="M34.49,3.77l1.09-.06Zm13,12.06a.54.54,0,0,1-.15.36c-.39-.15-.77-.29-1.12-.4a.35.35,0,0,0-.11,0C45.32,12.21,47.34,8,41.41,5c-3.27-1.65-7-1.28-10.36-.32,0,0,0,0-.09,0a1.49,1.49,0,0,0-.77.3L26.75,6.18l0,0h-.08a.39.39,0,0,1,.08-.1C30.8,4.31,37.84,2.18,42,4.05c3.51,1.57,5.17,4.65,5.48,8.23a1.87,1.87,0,0,0-.9.55,3.22,3.22,0,0,0,.16,2.7A1.88,1.88,0,0,0,47.46,15.83Z"/><path d="M47.31,16.19A.67.67,0,0,1,46.13,16a1.42,1.42,0,0,0-.05-.22.35.35,0,0,1,.11,0C46.54,15.9,46.92,16,47.31,16.19Z"/><path d="M46.22,51l.37-.12A2.29,2.29,0,0,1,46.22,51Z"/><path d="M45,35.83l0,0h0a.48.48,0,0,0-.62.13,1.33,1.33,0,0,1,.3-.53,1,1,0,0,1,.77-.3.72.72,0,0,1,.62.35.71.71,0,0,1,0,.68h0s0,0,0,0H44.8a.28.28,0,0,1,0-.13v0s0,0,.08-.12l.12-.09Z"/><path d="M46.06,36.14s0,0,0,0h0S46.05,36.14,46.06,36.14Z"/><path d="M46,36.19h0Z"/><path d="M46,36.2h0Z"/><path d="M45.35,36.69H45.3l-.13,0a.83.83,0,0,1-.22,0,.86.86,0,0,1-.46-.14.56.56,0,0,1-.21-.27,2.26,2.26,0,0,1,0-.29l0-.13h0a.48.48,0,0,1,.62-.13h0l-.12.09c0,.08-.07.12-.08.12v0s0,0,0,0v0a.28.28,0,0,0,0,.13H46a.84.84,0,0,1-.18.24h0a.78.78,0,0,1-.15.1.75.75,0,0,1-.2.1Z"/><path d="M46,36.22h0l-.06.14a.57.57,0,0,1-.12.15h0v0A.84.84,0,0,0,46,36.22Z"/><path d="M45.84,36.53h0l0,.07a.72.72,0,0,1-1.17.79,1.34,1.34,0,0,1-.42-1,.56.56,0,0,0,.21.27.86.86,0,0,0,.46.14.83.83,0,0,0,.22,0l.13,0h.05l.13,0a.75.75,0,0,0,.2-.1.78.78,0,0,0,.15-.1h0a0,0,0,0,0,0,0h0Zm0,0h0Z"/><path d="M45.84,36.52v0h0Z"/><rect x="45.84" y="36.51" width="0.01" height="0.01"/><path d="M45.84,36.49h0a0,0,0,0,1,0,0h0Z"/><path d="M45.84,36.46v0h0Z"/><path d="M45.83,36.54h0Z"/><path class="cls-5" d="M41.41,5c5.93,3,3.91,7.19,4.67,10.74a15.35,15.35,0,0,0-5.43-.56c-.91-1.82-3-3-4.79-3.9-.34-.17-.67-.36-1-.55C32.67,9.51,30.52,8.15,28.31,7h0l-1.13-.58-.42-.2L30.19,5l.86-.26C34.45,3.74,38.14,3.37,41.41,5Z"/><path d="M45.27,59.93c1.71,5.22-1.16,12.15-2.64,17.14-.14.48-1.94,3-1.42,1.54.94-2.59,2.08-8,2.74-10.73s.67-5.33,1.2-7.95c0,0,0,0,.06,0A.06.06,0,0,1,45.27,59.93Z"/><path d="M45.33,36.69h0Z"/><path d="M45,35.81l0,0h0Z"/><path d="M45,35.82h0Z"/><path d="M45.36,49.64c-1.26.4-.07.94.86,1.39a30.22,30.22,0,0,1-15.62.76c-4-.8-10.1-2.51-13-6.06a.88.88,0,0,0,.76-1.13c3.84,3.42,10,4.91,14.76,5.5A42.1,42.1,0,0,0,45.36,49.64Z"/><path d="M44.78,36v0S44.77,36,44.78,36Z"/><path d="M44.35,36l0,.13a2.26,2.26,0,0,0,0,.29.49.49,0,0,1,0-.39Z"/><path d="M43.74,87.26c.78,0,.84,1.07.18,1.3l-.94.29a16.93,16.93,0,0,1-4.86-.31.7.7,0,0,1-.59-.64C39.47,87.84,41.76,87.39,43.74,87.26Z"/><path d="M38.12,88.54a16.93,16.93,0,0,0,4.86.31c-10.51,3.07-24.1-1.32-31.41-9.28-1.7-1.85-2.42-4.54-3.39-6.8-.72-1.65-1.44-3.31-2.13-5,.18.33.79.35,1.06.23a6.21,6.21,0,0,0-.81-1.3.22.22,0,0,0,0-.08c-.12-.87-.74-3.43-1.48-6.72.38.94.73,1.86,1.07,2.73l.44,1.19a104.28,104.28,0,0,0,4.26,11.81,1.12,1.12,0,0,0,1.18.7c.24.39.49.78.76,1.14,2.74,3.77,8.67,6.78,12.88,8.26a34.31,34.31,0,0,0,12.19,1.77.23.23,0,0,0,0,.11c-.17.09-.31.18-.34.28h.31A.7.7,0,0,0,38.12,88.54Z"/><path d="M41,16.08a.88.88,0,0,1,0,.16c-.58,0-1.16,0-1.73-.07-.26-.26-.5-.53-.75-.78.7-.09,1.42-.15,2.13-.19A4.43,4.43,0,0,1,41,16.08Z"/><path d="M39.44,23.52a.37.37,0,0,1,.56.32c0,.66-.21,2-1.11,2.06a.69.69,0,0,1-.69-.59,1.1,1.1,0,0,1,.46-1,.25.25,0,0,1,.23-.06.7.7,0,0,0,0,.69c0,.08,0,.15,0,.19s.06,0,.08-.09l.14.1c.52.3.93-.43.6-.68h0a.06.06,0,0,1,0,0,.65.65,0,0,1,.18-.3l-.64-.26a2,2,0,0,1,0,.64h0s0,0,0,.06a0,0,0,0,0,0,0,.06.06,0,0,0,0,0h0a1.43,1.43,0,0,1-.13.28A.75.75,0,0,1,39,25s-.06-.06-.07-.1.16-.27.18-.31a.25.25,0,0,0-.18-.38A1.73,1.73,0,0,1,39.44,23.52Z"/><path d="M39.25,23.84l.64.26a.65.65,0,0,0-.18.3.06.06,0,0,0,0,0,.4.4,0,0,0-.17-.09.29.29,0,0,0-.33.13A2,2,0,0,0,39.25,23.84Z"/><path d="M39.7,24.45c.33.25-.08,1-.6.68L39,25a.75.75,0,0,0,.07-.12,1.43,1.43,0,0,0,.13-.28.33.33,0,0,0,.08.22l0,0-.08-.31c.41.16.58.16.5,0A.24.24,0,0,1,39.7,24.45Z"/><path d="M39.7,24.44h0a.24.24,0,0,0,0,.09c.08.2-.09.2-.5,0l.08.31,0,0a.33.33,0,0,1-.08-.22h0a.06.06,0,0,1,0,0,0,0,0,0,1,0,0s0-.05,0-.06h0a.29.29,0,0,1,.33-.13A.4.4,0,0,1,39.7,24.44Z"/><path d="M40.65,15.2c-.71,0-1.43.1-2.13.19a11.89,11.89,0,0,0-2-1.82c-.47-.31-.94-.59-1.43-.88a1.11,1.11,0,0,0,.19-.93,4.79,4.79,0,0,0-.39-1c.34.19.67.38,1,.55C37.6,12.24,39.74,13.38,40.65,15.2Z"/><path d="M38.89,24.24a.25.25,0,0,1,.18.38s-.12.18-.18.31A.7.7,0,0,1,38.89,24.24Z"/><path d="M37.82,87.52c1.94,0,3.91-.13,5.92-.26-2,.13-4.27.58-6.21.64a.63.63,0,0,1,0-.27l.25-.11Z"/><path d="M37.84,62.38a71.07,71.07,0,0,1,.19,16c-.61,6.93-1.59,1-1.56,0,.17-5.3.57-10.68,1.17-15.94C37.65,62.31,37.82,62.26,37.84,62.38Z"/><path d="M37.59,87.52h.22l-.25.11A.23.23,0,0,1,37.59,87.52Z"/><path d="M37.56,87.63a.63.63,0,0,0,0,.27h-.31C37.25,87.81,37.39,87.72,37.56,87.63Z"/><path d="M35.51,41.77h0Zm0,0h0Zm0,.1h0v0h0s0,0,0,0h0a0,0,0,0,0,0,0h0s0,0,0,0a.87.87,0,0,1,.76-.86.88.88,0,0,1,1,.63A1.76,1.76,0,0,1,37,42.86a1,1,0,0,1-.93.59,1.2,1.2,0,0,1-.32-.06,1.36,1.36,0,0,0,.39-.12l-.49.06h0a.39.39,0,0,0,.15.06.93.93,0,0,1-.24,0,.66.66,0,0,1-.64-.64.6.6,0,0,1,.34-.55.81.81,0,0,0,0,.41,1.55,1.55,0,0,1,0,.21v-.32l.29-.37,0,0s0,0,0,0a.62.62,0,0,0-.3.09.89.89,0,0,1,.22-.4v0Z"/><path d="M34.89,17.78h0a.12.12,0,0,1,.07.07A.28.28,0,0,1,35,18a0,0,0,0,1,0,0h0a.29.29,0,0,1-.24.15h0l-.07,0s0,0,0,0l0-.05h0a1.19,1.19,0,0,1-.08-.2V18c0,.2,0,.39,0,.58a.87.87,0,0,0,.13.44.78.78,0,0,1-.22,0,1.28,1.28,0,0,1-.88-1.6,1.34,1.34,0,0,1,.09-.24v0h0s0-.07,0-.07h0a1,1,0,0,1,.65-.6,1.45,1.45,0,0,1,1.17.12,1.56,1.56,0,0,1,.73.9,4.19,4.19,0,0,1,0,1.12.9.9,0,0,1-.88.89.84.84,0,0,1-.75-.45,1.06,1.06,0,0,0,1.07-.95c.06-.35-.42-.47-.64-.26h0s0,0,0,0,0,0,0,0h0l-.08,0h0Z"/><path d="M35.69,43.33l.49-.06a1.36,1.36,0,0,1-.39.12.39.39,0,0,1-.15-.06h0Z"/><path d="M35.07,17.79c.22-.21.7-.09.64.26a1.06,1.06,0,0,1-1.07.95.87.87,0,0,1-.13-.44c0-.19,0-.38,0-.58v-.14a1.19,1.19,0,0,0,.08.2h0s0,0,0,0h0l.07,0c-.46.18,0,.06.09,0s0,0,0,0h-.05A.29.29,0,0,0,35,18h0a.28.28,0,0,0,0-.09.12.12,0,0,0-.07-.07h0l.08,0h0s0,0,0,0h0Z"/><path d="M35.55,42.15s.05,0,0,0Z"/><path d="M35.58,3.71l-1.09.06Z"/><path d="M35.58,42.15l0,0-.29.37v0h0v.32a1.55,1.55,0,0,0,0-.21.81.81,0,0,1,0-.41.62.62,0,0,1,.3-.09Z"/><path d="M35.5,41.79h0Z"/><path d="M35.49,41.79h0a0,0,0,0,1,0,0Z"/><path d="M35.49,41.8s0,0,0,0h0Z"/><path d="M35.48,41.82h0v0h0a0,0,0,0,1,0,0Z"/><path d="M35.48,41.81h0Z"/><path d="M35.48,41.85h0Z"/><path d="M35.48,41.83a0,0,0,0,0,0,0s0,0,0,0Z"/><path d="M35.48,41.85h0v0Z"/><path d="M35.24,11.76a1.11,1.11,0,0,1-.19.93l-1.89-1-.42-.25h0a.55.55,0,0,0-.15-1.07,5.77,5.77,0,0,0-1,0A16.54,16.54,0,0,0,30,9.15,7.09,7.09,0,0,1,28.7,7.59c-.12-.17-.24-.42-.39-.62,2.21,1.18,4.36,2.54,6.54,3.78A4.79,4.79,0,0,1,35.24,11.76Z"/><path d="M35.25,42.52v0h0Z"/><path d="M35,17.79h0S35,17.79,35,17.79Z"/><path d="M35,17.8s0,0,0,0Z"/><path d="M35,17.8h0S35,17.8,35,17.8Z"/><path d="M35,18h0a0,0,0,0,0,0,0Z"/><path d="M35,62.57s0,0,0,0c-.19,6.46-.59,10.57-.81,17,0,1.12.48,6.64-.8-.25C32.17,72.85,33.8,69,35,62.57Z"/><path d="M34.9,17.78h0Z"/><path d="M34.78,18.13c.06,0,.12,0,0,0s-.55.16-.09,0h.06Z"/><path d="M34.78,18.13h0Z"/><path d="M34.65,18.1h0S34.65,18.1,34.65,18.1Z"/><path d="M34.64,18.1h0s0,0,0,0Z"/><path d="M32.6,10.31a.55.55,0,0,1,.15,1.07h0L32.13,11a5.6,5.6,0,0,0-.36-.49,2,2,0,0,0-.19-.22A5.77,5.77,0,0,1,32.6,10.31Z"/><path d="M32.74,11.39l-.33.1L32.13,11Z"/><path d="M32.13,11l.28.46c-.54.16-1.08.24-1.64.35a.32.32,0,0,0-.37-.39,12.73,12.73,0,0,0-1.6.3c-.14-.34.73-.79.89-.86a9,9,0,0,1,1.44-.48Z"/><path d="M31.77,10.54a5.6,5.6,0,0,1,.36.49l-1-.62.45-.09A2,2,0,0,1,31.77,10.54Z"/><path d="M31.58,10.32l-.45.09a21,21,0,0,1-4.72-3.84l0,0a2.47,2.47,0,0,1,.78-.16L28.3,7h0c.15.2.27.45.39.62A7.09,7.09,0,0,0,30,9.15,16.54,16.54,0,0,1,31.58,10.32Z"/><path d="M31.34,32.09a1.28,1.28,0,0,1-.2.79.64.64,0,0,1-.61.28s0,0,0,0h0a.89.89,0,0,1,.37-.48l-.62-.81-.1.17h0s0,0,0,0h0a.56.56,0,0,0-.16.29.61.61,0,0,0,0,.46h0a1.57,1.57,0,0,1-.17.21c-.08.09,0,.29.12.27a1.73,1.73,0,0,0,.46-.12h.09l0,.06a.36.36,0,0,1-.7-.09,1.83,1.83,0,0,1,.59-1.44A.57.57,0,0,1,31.34,32.09Z"/><path d="M31.05,4.7,30.19,5a1.49,1.49,0,0,1,.77-.3C31,4.65,31,4.68,31.05,4.7Z"/><path d="M30.31,31.81l.62.81a.89.89,0,0,0-.37.48h0l-.13,0c-.06,0,0,0,0,0a1.73,1.73,0,0,1-.46.12c-.15,0-.2-.18-.12-.27a1.57,1.57,0,0,0,.17-.21.09.09,0,0,0,0,.07l0,0a.08.08,0,0,1,0,0h0s0-.11-.05-.15h0a1,1,0,0,0,0-.17.89.89,0,0,1-.08.17.61.61,0,0,1,0-.46.56.56,0,0,1,.16-.29h0s0,0,0,0h0Z"/><path d="M30.4,11.45a.32.32,0,0,1,.37.39l-.38.07c-.47.09-1.13.32-1.53-.07a.18.18,0,0,1-.06-.09A12.73,12.73,0,0,1,30.4,11.45Z"/><path d="M30.39,11.91l.38-.07a.28.28,0,0,1-.21.18,12.53,12.53,0,0,0-2,.82c-.45.22-.86.5-1.32.69l.7-.51c.21-.15,0-.48-.2-.35-.45.25-.9.53-1.32.79a.27.27,0,0,1,0-.33,4.26,4.26,0,0,1,2.41-1.38.18.18,0,0,0,.06.09C29.26,12.23,29.92,12,30.39,11.91Z"/><path d="M30.57,33.1h0Z"/><path d="M30.55,33.11s0,0,0,0h-.08Z"/><path d="M30.55,33.11l-.1,0h0c-.05,0-.08,0,0,0Z"/><path d="M30.12,32.94l0,0,0,0a.09.09,0,0,1,0-.07h0a.89.89,0,0,0,.08-.17,1,1,0,0,1,0,.17h0S30.1,32.89,30.12,32.94Z"/><path d="M30.09,32.9l0,0h0A.08.08,0,0,0,30.09,32.9Z"/><path d="M28.19,61.53c1.28,5.43,1.78,9.65.72,15.21-1.17,6.16-1.49,2-1.5,1,0-2.71.42-5.38.48-8.07s-.14-5.37-.21-8.05A.26.26,0,0,1,28.19,61.53Z"/><path d="M28,57.85l-.12-.05Z"/><path d="M27.69,12.67c.22-.13.41.2.2.35l-.7.51-.4.13a.41.41,0,0,1-.42-.2C26.79,13.2,27.24,12.92,27.69,12.67Z"/><path d="M26.79,13.66l.4-.13C19.19,19.47,9,34,16.61,42.85c-.24-.1-.54.06-.45.37a7.46,7.46,0,0,0,1.39,2.51l-.24,0c-7-2.08-6.08-10.75-4.13-16.24a5,5,0,0,0,1.27-.29s0,0,0,0a2.38,2.38,0,0,0-1-.53A30.5,30.5,0,0,1,26.37,13.46.41.41,0,0,0,26.79,13.66Z"/><path d="M26.75,6.18l.42.2a2.47,2.47,0,0,0-.78.16.24.24,0,0,1,0-.13h0l0,0,.15-.16Z"/><path d="M26.74,21.18a.18.18,0,0,1,.32.18l-.33-.14c-.06.14-.11.28-.16.42s.13.24.24.18a2.22,2.22,0,0,1-.28.33,1.56,1.56,0,0,1-.85.44.28.28,0,0,1-.28-.46c.29-.36.58-.7.88-1,.11-.13.29,0,.22.17s-.11.23-.18.35A1.56,1.56,0,0,0,26.74,21.18Zm-.89,1.29c.16-.28.31-.57.46-.85l-.12.09c-.21.12-.44.25-.66.35C25.63,22.19,25.75,22.33,25.85,22.47Z"/><path d="M27.06,21.36a1.47,1.47,0,0,0-.1.22l0,.07a.47.47,0,0,0-.07.12,0,0,0,0,1,0,0s0,0,0,0-.3,0-.24-.18.1-.28.16-.42Z"/><path d="M26.92,21.65l-.06.11h0A.47.47,0,0,1,26.92,21.65Z"/><path d="M26.66,5.53a1.81,1.81,0,0,1,.73-.22,2.52,2.52,0,0,0-.66.74l-.22.09a0,0,0,0,0,0,0l-.07,0C26.55,6,26.4,5.81,26.66,5.53Z"/><path d="M26.73,6.16l0,0-.19.06.09-.09Z"/><path d="M26.51,6.14l.22-.09a.39.39,0,0,0-.08.1.26.26,0,0,0-.15,0A0,0,0,0,1,26.51,6.14Z"/><path d="M26.65,6.15l-.09.09a.06.06,0,0,1-.06-.09A.26.26,0,0,1,26.65,6.15Z"/><path d="M26.56,6.24l-.15.16,0,0h0l-.05,0h0v0a.35.35,0,0,0,.08-.13s0,0,0,0l.07,0A.06.06,0,0,0,26.56,6.24Z"/><path d="M26.43,6.21a.35.35,0,0,1-.08.13A.22.22,0,0,1,26.43,6.21Z"/><path d="M26.39,6.42h0s0,0,0,0h0Z"/><path d="M26.35,6.34v0h0Z"/><path d="M26.34,6.38h0Z"/><path d="M26.31,21.62c-.15.28-.3.57-.46.85-.1-.14-.22-.28-.32-.41.22-.1.45-.23.66-.35Z"/><path d="M24.4,60.61c.74,5.6,2.19,11.1,1.34,16.75a1.16,1.16,0,0,0-.25-.4,7.94,7.94,0,0,0-1.64-1c0-5.07.74-10.22.27-15.32a.11.11,0,0,1,.12-.13A.17.17,0,0,1,24.4,60.61Z"/><path d="M25.74,77.36c0,.33-.11.66-.17,1a1.09,1.09,0,0,1-1.62.17c-.06-.86-.09-1.73-.1-2.6a7.94,7.94,0,0,1,1.64,1A1.16,1.16,0,0,1,25.74,77.36Z"/><path d="M25.57,78.36l-.15.68c-.19.87-1.57,2.53-1.45-.2,0-.1,0-.21,0-.31A1.09,1.09,0,0,0,25.57,78.36Z"/><path class="cls-2" d="M24.53,60l-.29.45a.11.11,0,0,0-.12.13c.47,5.1-.3,10.25-.27,15.32a2.39,2.39,0,0,1-.49-.36,11.71,11.71,0,0,1-1.84-4.32c-.92-3.68-1-8.5-2-12.16a.14.14,0,0,0-.26,0l-1.91-1.16a3.52,3.52,0,0,0,.92-.12c1-.27,1.95-2.08,2.67-2.15,1.33-.16,1.69,1.29,2.24,2.59A3.26,3.26,0,0,0,24.53,60Z"/><path d="M23.93,55.55c.93,1.12-.44,1.8-.11,2.48l-.68.21c-.55-1.3-.91-2.75-2.24-2.59-.72.07-1.63,1.88-2.67,2.15a3.52,3.52,0,0,1-.92.12,3.63,3.63,0,0,1-1.52-.34c-2-.93-1.72-2.61-2-4.21a1.33,1.33,0,0,0,1.48-.49c.09.74.5,2.72,1.63,2.81,3.26,2.1,1.6-1.3,4-2a1.89,1.89,0,0,1,1.87.26C23.53,54.43,23.43,54.94,23.93,55.55Z"/><path d="M24,78.53l0,0c-.94-.85-1.83-.79-2.57-1.83-.93-1.29-1-3.85-1.27-5.38a46.48,46.48,0,0,1-.89-12.16.11.11,0,0,1,0-.06.14.14,0,0,1,.26,0c1,3.66,1.12,8.48,2,12.16a11.71,11.71,0,0,0,1.84,4.32,2.39,2.39,0,0,0,.49.36C23.86,76.8,23.89,77.67,24,78.53Z"/><path d="M23.6,34a2.72,2.72,0,0,1-.4,2.13.57.57,0,0,1-1-.13c-.1-.46-.19-.92-.3-1.38a.53.53,0,0,1,.74-.59.42.42,0,0,0,0,.25,1.64,1.64,0,0,1-.36,1.29l1,.13c-.12-.45-.25-.9-.38-1.35a.45.45,0,0,0-.27-.32C22.74,33.54,23.47,33.41,23.6,34Z"/><path d="M22.88,34.32c.13.45.26.9.38,1.35l-1-.13a1.64,1.64,0,0,0,.36-1.29.42.42,0,0,1,0-.25A.45.45,0,0,1,22.88,34.32Z"/><path d="M18.31,44.6a.88.88,0,0,1-.76,1.13,7.46,7.46,0,0,1-1.39-2.51c-.09-.31.21-.47.45-.37h0c.2.23.4.45.62.67A13.5,13.5,0,0,0,18.31,44.6Z"/><path d="M18.1,44.32a.76.76,0,0,1,.21.28,13.5,13.5,0,0,1-1.07-1.07C17.51,43.8,17.8,44.07,18.1,44.32Z"/><path d="M16.78,43c.15.19.3.38.46.56-.22-.22-.42-.44-.62-.67A.25.25,0,0,1,16.78,43Z"/><path d="M16.24,77.86c.06.79-1-.83-1.26-1.43-2.48-5.9-3.1-12-3.75-18.28,0-.15.21-.15.24,0C12.28,64.35,14.08,70.52,16.24,77.86Z"/><path d="M15.27,51.67a1.09,1.09,0,0,1,0,1.21.13.13,0,0,1,0-.06,1.2,1.2,0,0,0-.17-.48c-.15-.17-.13-.56-.34-.7-.86-.57-.59-.68-1.68-.71a.27.27,0,0,0-.18.45,3.64,3.64,0,0,1,.9,2,1.31,1.31,0,0,1-.66-.46c-1-1.28-4.86-.94-6.27-1.86a2.49,2.49,0,0,1-1-1.1c-.21-.49-.25-1.05-.5-1.79-.08-.23-.14-.4-.18-.54.12-.15-.28-.9,0,0-.06.07-.25,0-.69-.44s-1-.43-1.31-.86a2.34,2.34,0,0,1-.52-1.11c-.18-1.09.49-2.19.85-3.27.7-2.15.4-2.2-.47-4.26-.17-.42-.34-.68-.46-.94a.92.92,0,0,1,.47-.17.34.34,0,0,0,.09-.67,1.59,1.59,0,0,0-.73-.08,2,2,0,0,1,0-.46c.28-1.56,2-2.57,2.79-3.8,1-1.57,1.2-2.49,3.31-3.06a10.66,10.66,0,0,1,4.94.11l-.14.33-.1.28c0,.08-.06.15-.08.24s-.31,0-.5.07c-1.8-.15-5,.47-5.74,2.26l0,.76c-.93,1.34-2.16,2.62-1.7,4.67.29,1.29.89,1.36.88,2.81,0,1.26-1.38,4.07-.64,5.09.21.29,1.57.34,2,1s0,1.58.36,2.29C9.3,50.85,13.49,48.76,15.27,51.67Z"/><path d="M15.29,52.82a.13.13,0,0,0,0,.06,1.33,1.33,0,0,1-1.48.49,3.64,3.64,0,0,0-.9-2,.27.27,0,0,1,.18-.45c1.09,0,.82.14,1.68.71.21.14.19.53.34.7A1.2,1.2,0,0,1,15.29,52.82Z"/><path d="M14.46,29.14s0,0,0,0a5,5,0,0,1-1.27.29c0-.09.06-.16.08-.24l.1-.28.14-.33A2.38,2.38,0,0,1,14.46,29.14Z"/><path d="M11.76,76.35a1.12,1.12,0,0,1-1.18-.7A104.28,104.28,0,0,1,6.32,63.84C7.8,67.88,9.47,72.74,11.76,76.35Z"/><path d="M7.11,68c-.27.12-.88.1-1.06-.23a.47.47,0,0,1,0-.1c0-.11-.06-.23-.09-.34a.68.68,0,0,0,.39-.63A6.21,6.21,0,0,1,7.11,68Z"/><path d="M6.3,66.72a.68.68,0,0,1-.39.63q-.24-.94-.54-1.89C5.66,65.87,6,66.3,6.3,66.72Z"/><path d="M6.29,66.64a.22.22,0,0,1,0,.08c-.3-.42-.64-.85-.93-1.26-1.17-3.88-2.71-7.9-3.84-11.94a29.27,29.27,0,0,1-.65-5.73c0-.16.22-.15.24,0C1.53,51.64,3.26,56,4.81,59.92,5.55,63.21,6.17,65.77,6.29,66.64Z"/><path d="M5.91,67.35c0,.11.07.23.09.34a3.24,3.24,0,0,1-.13-.33Z"/><path d="M5.91,67.35h0c-.41-1-.8-2-1.16-3.06a5.06,5.06,0,0,0,.66,1.16Q5.67,66.41,5.91,67.35Z"/><path d="M5.18,47.62c-.28-.9.12-.15,0,0Z"/><path d="M5.37,65.46a5.06,5.06,0,0,1-.66-1.16A82,82,0,0,1,1.53,53.52C2.66,57.56,4.2,61.58,5.37,65.46Z"/><path d="M4.81,59.92C3.26,56,1.53,51.64,1.12,47.79c0-.15-.24-.16-.24,0a29.27,29.27,0,0,0,.65,5.73A39.45,39.45,0,0,1,.07,45.86c-.12-1.57-.39-9.71,2.34-10a1.73,1.73,0,0,0,.17.92C1.39,37.53,1.42,41,2,45.33,2.6,50,3.82,55.57,4.81,59.92ZM1.24,38.57s0,0,0,0A0,0,0,0,0,1.24,38.57Z"/><path class="cls-6" d="M22.61,16.52A22.38,22.38,0,0,1,28,15.36c2.22-.18,4.81.14,6.06,2a4.65,4.65,0,0,1,.41,4,8.91,8.91,0,0,1-2.25,3.43,17.07,17.07,0,0,1-5.76,3.84c-2,.81-4.48,1.16-6.19-.16a4.73,4.73,0,0,1-1.64-4,8.12,8.12,0,0,1,1.64-4.15,13.31,13.31,0,0,1,6.84-4.95"/><path class="cls-6" d="M1.22,38.05c1.28,2.1.76,4.27.17,6.65A8.44,8.44,0,0,0,.82,48c.29,2,2.49,3.14,3.46,4.93.56,1,.74,2.29,1.62,3,1.36,1.17,3.51.42,5.2,1a9.09,9.09,0,0,1,2.81,2.23,3.69,3.69,0,0,0,3.23,1.25c1-.27,1.77-1.28,2.83-1.46,2.29-.39,3.4,3.13,5.68,3.6,1.45.29,2.94-.76,4.37-.38s2.09,1.82,3.37,2.34c1.57.64,3.31-.32,4.64-1.37s2.73-2.29,4.42-2.28c2,0,3.87,1.84,5.78,1.22,1.39-.45,2.27-2.1,3.73-2.21,1.24-.09,2.3,1,3.54,1.07,2.34.15,3.61-3.13,5.93-3.42a16.29,16.29,0,0,1,2,.07,4.77,4.77,0,0,0,3.54-2.06c.84-1.13,1.78-8.1,2.25-9.44L40.6,54.59A19.36,19.36,0,0,1,34,54.13l-9.65-2.37A28.81,28.81,0,0,1,14,46.85L5.19,40.26,3.14,35.9Z"/><g class="cls-7"><path d="M17.83,85.72c3.67,8,11.75,13.47,20.33,15.59s17.63,1.29,26.28-.5c3.84-.8,8.19-2.25,9.57-5.93a10.28,10.28,0,0,0,.19-5.37,31.06,31.06,0,0,0-7.7-15.6,5.26,5.26,0,0,0-3.31-2c-1.6-.09-2.93,1.13-4.07,2.26-4.16,4.17-8.49,8.3-13.68,11.09S34,89.37,28.38,87.63c-2.23-.68-4.32-1.83-6.61-2.24s-5,.11-6.25,2.08"/></g><g class="cls-7"><path d="M15.58,83.59c3.61-2.84,8.43-3.65,13-3.65s9.18.73,13.77.52A34.24,34.24,0,0,0,65.64,69.64c1,.54.55,2.06-.07,3A30.83,30.83,0,0,1,25.56,83"/></g><g class="cls-7"><path d="M45.14,49.31a31.83,31.83,0,0,0,9.14-7.84A44.52,44.52,0,0,0,59.12,34c1.07-2.06,2.76-4.59,5-4a3.37,3.37,0,0,1,2.28,3.24,8.68,8.68,0,0,1-1.19,4A38.27,38.27,0,0,1,50.14,53.51c-1.29.73-3,1.32-4.13.34a3.09,3.09,0,0,1-.76-2.64A7.76,7.76,0,0,1,51,44.58"/></g></g></g></g></g></svg>