<svg xmlns="http://www.w3.org/2000/svg" viewBox="0 0 91.35 93.53"><defs><style>.cls-1{isolation:isolate;}.cls-2,.cls-7{fill:#fff;}.cls-3{fill:#d12c24;}.cls-4{fill:#f4d1ce;}.cls-5{fill:#f7e8c7;}.cls-6{fill:none;stroke:#000;stroke-miterlimit:10;}.cls-7{opacity:0.8;mix-blend-mode:overlay;}.cls-8{opacity:0.15;mix-blend-mode:darken;}</style></defs><g class="cls-1"><g id="Layer_2" data-name="Layer 2"><g id="dragzone_items"><g id="strawberry"><path d="M1.62,41.71a1.29,1.29,0,0,0-.19.21s0,0,0,0A1.88,1.88,0,0,1,1.62,41.71Z"/><path d="M1.61,42.16,1,42.42l.13-.18L1.49,42A.27.27,0,0,1,1.61,42.16Z"/><path d="M1.43,41.92l.06,0-.33.29Z"/><path d="M1.41,41.91s0,0,0,0l-.27.32-.23.23a2.87,2.87,0,0,1,.47-.56Z"/><path d="M.93,42.47c0-.12.32-.58.47-.56A2.87,2.87,0,0,0,.93,42.47Z"/><path d="M1.16,42.24,1,42.42l-.1,0Z"/><path d="M.93,42.47l.1,0a1.75,1.75,0,0,0-.16.25A.66.66,0,0,1,.93,42.47Z"/><path d="M.87,42.67a22.93,22.93,0,0,0-.69,3.49A4.47,4.47,0,0,1,.87,42.67Z"/><path class="cls-2" d="M84.08,47.06a6.53,6.53,0,0,1-.36,6c-.08.12-.18.24-.27.36h0c-.29.16-1,.58-1.89,1a17.48,17.48,0,0,0-3.77-.2h0c-1.16.17-2.31.35-3.45.55l-.14,0c-3.53.44-7.09.63-10.6,1.2H63.5c-1.31.07-2.53,1-3.82,1.24a17.18,17.18,0,0,1-3,.29c-.35,0-.82-.15-1.15,0s-.46.24-.59.58a.38.38,0,0,0-.37-.21c-7.06.51-13.92,2.58-20.95,3.16-3.3.28-6.59.92-9.88,1.39-1.17.18-13.77,2.23-13.42.81a.53.53,0,0,0-.88-.51C6.06,62.66,4.26,61.35,4,58.89a9.8,9.8,0,0,0,3.89,1.74c4.54,1,9.32-.56,13.79-1.3,6-1,12-2.21,18.08-3.23,12.1-2,24.15-4,36.17-6.46,3-.61,5.81-1.17,8.12-2.85A.66.66,0,0,0,84.08,47.06Z"/><path class="cls-2" d="M36,28.78c1,1.78,3.37,2.12,3.17,4.6a.44.44,0,0,0,.15.38c-.73,1-3.63.75-4.83,1.62-.37.25-.43.84-.67,1.18C32.17,38.72,31.71,39,29,38.79c-2-.16-3.91-1.1-6-.81-3.1.42-5,1.66-8.19.59-2.32-1.35.23-4.6,1-6.45a10.43,10.43,0,0,0,.64-2.66,17.24,17.24,0,0,1,1.55,1A23.87,23.87,0,0,1,20,32.06a5.44,5.44,0,0,1,1.05,1.18,1.48,1.48,0,0,1,.19,1.33c-.33.73.7,1.38,1.1.63A2.53,2.53,0,0,0,22,32.27a3,3,0,0,0,.3-1.09c.11-1.63-.64-2.94-.26-4.64.35-1.53,1.58-2.81,2-4.32,1.08,1.9,3.23,5.05,5.68,4.27a.21.21,0,0,0,.15-.14c.07-.37.15-.75.22-1.12h0a.61.61,0,0,0,.33,0c.95.5,2.32-.13,3.5,0C36.39,25.54,35.23,27.41,36,28.78Z"/><path class="cls-2" d="M71,9.91c.15.88.19,2.17.67,2.65s1,.35,1.37.64c2.51,1.79,3.8,3.28,2.65,6.25-1.29,3.3-4.38,3.07-6.78,4.7s-5.48,6.1-8.63,3.36a1,1,0,0,0-.26-.15,34.19,34.19,0,0,0-.18-19.08c.38-.3.47-.77,1.16-1.07,2-.83,2.5,2.42,4.14,3.5A4.53,4.53,0,0,0,71,9.91Zm-.39,9.81c.25-.18.27-.67-.1-.73-.67-.12-1.38.08-2-.07-1-.25-.9-1.25-1.1-2.07s-1.13-1.78-2.09-1.22a.15.15,0,0,0,.07.29c1.11,0,1,1.93,1.16,2.57a2.2,2.2,0,0,0,.85,1.23A3.07,3.07,0,0,0,70.56,19.72Z"/><path d="M87.83,35.13c1.39-1,1.57-1.92,1.17-2.82a1,1,0,0,1,.63.86,17.78,17.78,0,0,1-.13,2.89,10.13,10.13,0,0,1-2.37.77c.07-.48.13-1,.21-1.43A2.51,2.51,0,0,0,87.83,35.13Z"/><path d="M84,54.54c0-.4,0-.77,0-1.1a.38.38,0,0,0-.24-.34,6.53,6.53,0,0,0,.36-6,.66.66,0,0,1,0-.27l.47-.35h0a.59.59,0,0,1,.47.22A5.78,5.78,0,0,1,84.58,54C84.39,54.2,84.18,54.37,84,54.54Z"/><path d="M84.05,46.79a.47.47,0,0,1,.47-.35Z"/><path d="M84,54.54a42.69,42.69,0,0,1-.44,7.56,26.21,26.21,0,0,1,.1-7.3Z"/><path d="M83.94,53.54l-.4-.06,0-.09-.12.07c.09-.12.19-.24.27-.36a.38.38,0,0,1,.24.34c0,.33,0,.7,0,1.1l-.34.26A12.08,12.08,0,0,1,83.94,53.54Z"/><path d="M83.57,53.39l0,.09h-.09Z"/><path d="M83.54,53.48l.4.06a12.08,12.08,0,0,0-.3,1.26,3.28,3.28,0,0,1-.38.27l-.07,0v-.87A4.8,4.8,0,0,0,83.54,53.48Z"/><path d="M83.19,53.75c.09-.09.17-.19.25-.28h.1a4.8,4.8,0,0,1-.35.67Z"/><path d="M83.19,55.12V55l.07,0Z"/><path d="M83.18,55.71c0-.21,0-.41,0-.59l.07,0C83.52,55.29,83.51,55.51,83.18,55.71Z"/><path d="M82.81,54.82a3.8,3.8,0,0,1,.38-.67V55A2.63,2.63,0,0,0,82.81,54.82Z"/><path d="M82.77,54.8a6,6,0,0,0-1.22-.33c.85-.42,1.6-.84,1.89-1-.08.09-.16.19-.25.28l-.17.16C82.94,54.2,82.85,54.5,82.77,54.8Z"/><path d="M82.77,54.8c.08-.3.17-.6.25-.89l.17-.16v.4a3.8,3.8,0,0,0-.38.67Z"/><path d="M82.74,55c0-.06.05-.12.07-.19a2.63,2.63,0,0,1,.38.2v.1c-.2.13-.4.25-.61.36L82.7,55A.05.05,0,0,0,82.74,55Z"/><path d="M82.77,54.8l0,0c0,.07,0,.13-.07.19a.05.05,0,0,1,0,0C82.73,55,82.74,54.88,82.77,54.8Z"/><path d="M82.58,55.48c.21-.11.41-.23.61-.36,0,.18,0,.38,0,.59a2.37,2.37,0,0,1-.72.25C82.5,55.8,82.54,55.65,82.58,55.48Z"/><path d="M78.1,68.87c4.59-.64,5-8.35,5.08-13.16.33-.2.34-.42.08-.64a3.28,3.28,0,0,0,.38-.27,26.21,26.21,0,0,0-.1,7.3h0c-.64,3.55-2.09,6.68-5.42,6.92C78,69,78,68.88,78.1,68.87Z"/><path d="M78.45,56.17A9.54,9.54,0,0,0,82.7,55l-.12.45c0,.17-.08.32-.12.48l-.38.09h0l-3.8.18h.09a.27.27,0,0,0,.11,0h0Z"/><path d="M77.94,56.2l.79-.17a.53.53,0,0,1-.28.14h0A3.91,3.91,0,0,1,77.94,56.2Z"/><path d="M77.75,20.81c2.6,2.06,9.84,8,12,10.28.74.77,1.74,1.57,1.59,2.79a2.88,2.88,0,0,1-1.84,2.18,17.78,17.78,0,0,0,.13-2.89,1,1,0,0,0-.63-.86h0a9.51,9.51,0,0,0-2.38-2.67c-1.51-1.35-7.13-6.05-9.15-8A7.23,7.23,0,0,0,77.75,20.81Z"/><path d="M77.94,56.2a3.91,3.91,0,0,0,.49,0,.27.27,0,0,1-.11,0h-.09l-.45,0v0a.13.13,0,0,0,.08,0h.08Z"/><path d="M77.94,56.2h0Z"/><path d="M77.78,54.27a17.48,17.48,0,0,1,3.77.2,14.71,14.71,0,0,1-2.64,1.09h0a1,1,0,0,1-.42.19l-.7.12Z"/><path d="M77.86,56.21a.13.13,0,0,1-.08,0h0v0Z"/><path d="M77.78,56.2v-.33l.7-.12a1,1,0,0,0,.42-.19h0a14.71,14.71,0,0,0,2.64-1.09,6,6,0,0,1,1.22.33c0,.08,0,.15-.07.23a9.54,9.54,0,0,1-4.25,1.14.53.53,0,0,0,.28-.14l-.79.17h-.16Z"/><path d="M77.23,56.33l.55-.1v0l.45,0-1.11.19A.13.13,0,0,1,77.23,56.33Z"/><path d="M77.78,54.26c-1.14.22-2.29.4-3.45.55C75.47,54.61,76.62,54.43,77.78,54.26Z"/><path d="M77.72,56.21h.06v0Z"/><path d="M77.75,20.81a7.23,7.23,0,0,1-.29.86,5.41,5.41,0,0,1-.41-.39c-.37-.38.18-.88.57-.57Z"/><path d="M77.34,56.16l.33.05h-.22A.13.13,0,0,1,77.34,56.16Z"/><path d="M77.78,55.87v.33h-.11l-.33-.05a.21.21,0,0,1-.06-.21Z"/><path d="M82.42,67.58c-1.31,1.68-3.69,2.43-5.57,3.23a33,33,0,0,1-7.45,2.5c-.31-.18-1.62-.91-1.62-1a44.92,44.92,0,0,1,5.8-1.82l-.06,0,.45-.1a.32.32,0,0,0,0-.59c3.5-1,7-2.29,8-5.37.72-2.21,0-4.64.23-6.91A12,12,0,0,1,82.46,56a2.37,2.37,0,0,0,.72-.25c0,4.81-.49,12.52-5.08,13.16-.09,0-.06.16,0,.16,3.33-.24,4.78-3.37,5.42-6.92,0,.15,0,.31,0,.46A7.23,7.23,0,0,1,82.42,67.58Z"/><path d="M77.78,56.23l-.55.1a.13.13,0,0,0-.11.09,72.3,72.3,0,0,1-7.74.82,1,1,0,0,0,0-1,34.06,34.06,0,0,1,8-.08.13.13,0,0,0,.11.05h.33Z"/><path d="M71.9,8.74a6.75,6.75,0,0,1-1,1.17c-.06-.41-.15-.72-.33-.83Z"/><path d="M68.94,71.34c1.48-.57,3.29-1,5.08-1.51a.32.32,0,0,1,0,.59l-.45.1a.29.29,0,0,0-.16,0C71.9,70.8,70.42,71.08,68.94,71.34Z"/><path d="M69.38,73.31h0l0,0Z"/><path d="M77.34,56.16a34.06,34.06,0,0,0-8,.08.86.86,0,0,0-.48-.44c1.76-.33,3.51-.67,5.28-1l.14,0c1.16-.15,2.31-.33,3.45-.55h0v1.6l-.5.08A.21.21,0,0,0,77.34,56.16Z"/><path d="M73.58,70.54a44.92,44.92,0,0,0-5.8,1.82h0a.75.75,0,0,1,.29-.61c1.82-.41,3.64-.81,5.46-1.23Z"/><path d="M68.94,71.34c1.48-.26,3-.54,4.42-.83a.29.29,0,0,1,.16,0c-1.82.42-3.64.82-5.46,1.23a.42.42,0,0,1,.15-.11Z"/><path d="M68.35,55.8a.65.65,0,0,1,.56,0l-1.32.25A5.18,5.18,0,0,0,68.35,55.8Z"/><path d="M68.68,73.4a.92.92,0,0,1-.91-1h0s1.31.77,1.62,1h0Z"/><path d="M68.35,55.8a5.18,5.18,0,0,1-.76.25l-.35.06C66,56.3,64.93,56,63.59,56c3.51-.57,7.07-.76,10.6-1.2-1.77.3-3.52.64-5.28,1A.65.65,0,0,0,68.35,55.8Z"/><path d="M68.42,18.92c.66.15,1.37-.05,2,.07.37.06.35.55.1.73a3.07,3.07,0,0,1-3.25,0,2.2,2.2,0,0,1-.85-1.23c-.18-.64,0-2.61-1.16-2.57a.15.15,0,0,1-.07-.29c1-.56,1.88.29,2.09,1.22S67.4,18.67,68.42,18.92Z"/><path d="M67.24,56.11l.35-.06,1.32-.25a.86.86,0,0,1,.48.44c-1.91.21-3.83.51-5.76.79a.5.5,0,0,1-.48-.18C64.52,56.62,65.88,56.36,67.24,56.11Z"/><path d="M67.24,56.11c-1.36.25-2.72.51-4.09.74-.23-.27-.21-.72.21-.79l.22,0h0C64.93,56,66,56.3,67.24,56.11Z"/><path d="M69.38,57.24c-2.65.17-5.3.23-8,.27a.18.18,0,0,1,0-.36l1.79-.3a.5.5,0,0,0,.48.18c1.93-.28,3.85-.58,5.76-.79A1,1,0,0,1,69.38,57.24Z"/><path d="M68.62,26.82c-.68.56-1.31,1.24-2.05,1.74-2.26,1.55-5,2.3-7.16.34.2-.5.38-1,.56-1.54a1,1,0,0,1,.26.15c3.15,2.74,6.25-1.75,8.63-3.36s5.49-1.4,6.78-4.7c1.15-3-.14-4.46-2.65-6.25-.41-.29-1-.26-1.37-.64S71.1,10.79,71,9.91a6.75,6.75,0,0,0,1-1.17l.58-.47c.45.66.56,1.48,1.29,2.19,1,1,2.2,1.06,3.11,2.23,1.47,1.91,1.66,5.44.87,8.12l-.13-.1c-.39-.31-.94.19-.57.57a5.41,5.41,0,0,0,.41.39,7.4,7.4,0,0,1-.6,1.16,4.53,4.53,0,0,1-2.43,1.86C72.14,25.54,70.69,25.13,68.62,26.82Z"/><path d="M63.67,5.11c.28.28.41.62.65.88l.42,1.14,5.54.67a1,1,0,0,1,1.29-.34,2.28,2.28,0,0,1,.91.81l-.58.47-1.28.34c.18.11.27.42.33.83a4.53,4.53,0,0,1-5.86.8C63.45,9.63,62.92,6.38,61,7.21c-.69.3-.78.77-1.16,1.07-.18-.57-.37-1.11-.58-1.63.41-1.16.93-2.29,2.25-2.49A2.46,2.46,0,0,1,63.67,5.11Z"/><path d="M60,27.36c-.18.53-.36,1-.56,1.54a3.76,3.76,0,0,1-.29-.28A.78.78,0,0,1,60,27.36Z"/><path d="M59.79,8.28a1.33,1.33,0,0,1-.95.28.23.23,0,0,1-.22-.16.2.2,0,0,1,0-.2c.21-.45.38-1,.58-1.55C59.42,7.17,59.61,7.71,59.79,8.28Z"/><path d="M58.82,58.34a.16.16,0,0,1,.17.17H58.9l-.25,0A.17.17,0,0,1,58.82,58.34Z"/><path d="M56.89,27.8a.68.68,0,0,1-1.34-.18,10.73,10.73,0,0,0-.17-3.3.46.46,0,0,1,.84-.35A5.63,5.63,0,0,1,56.89,27.8Z"/><path d="M55.93,17.6a1.51,1.51,0,0,1,.16,1.1.32.32,0,0,1-.63-.09,1.19,1.19,0,0,0-.2-.6,1.08,1.08,0,0,0-.43-.47c-.28-.15-.07-.52.2-.47A1.38,1.38,0,0,1,55.93,17.6Z"/><path d="M61.36,57.15a.18.18,0,0,0,0,.36c2.68,0,5.33-.1,8-.27a.71.71,0,0,1-.12.13c-2.07,1.85-3.46.86-5.87.81-1.53,0-2.79.48-4.4.33a.16.16,0,0,0-.17-.17.17.17,0,0,0-.17.13c-1-.18-3.19-.77-3.61,0a.1.1,0,0,1-.09.05.43.43,0,0,0,0-.35c.13-.34.13-.37.59-.58s.8,0,1.15,0a17.18,17.18,0,0,0,3-.29C61,57,62.19,56.1,63.5,56h.08l-.22,0c-.42.07-.44.52-.21.79Z"/><path d="M55,58.49c-.08,0-.17-.05-.13-.13s.06-.16.09-.22A.43.43,0,0,1,55,58.49Z"/><path d="M52.67,11.72a.15.15,0,0,1,.28,0l.36,2a.51.51,0,1,1-1,0C52.44,13.08,52.55,12.39,52.67,11.72Z"/><path d="M53.6,35.54a1.06,1.06,0,0,1-1.39-.72,1.66,1.66,0,0,0,.38-.11c.49.2,1,.41,1.44.63Z"/><path d="M59.79,8.28A34.19,34.19,0,0,1,60,27.36a.78.78,0,0,0-.85,1.26,3.76,3.76,0,0,0,.29.28A11.88,11.88,0,0,1,54,35.34c-.48-.22-1-.43-1.44-.63l-.38-.15a.81.81,0,0,1,.3-.44c5.51-4.42,7.42-9.75,7.23-16.81a34.12,34.12,0,0,0-1.17-8.89l0,0a.23.23,0,0,0,.22.16A1.33,1.33,0,0,0,59.79,8.28Z"/><path d="M52.21,34.56l.38.15a1.66,1.66,0,0,1-.38.11A1.13,1.13,0,0,1,52.21,34.56Z"/><path d="M58.57,8.42c-1.21-3.94-4.19-7.32-9.26-6.79A.33.33,0,0,1,49,1.44l.1,0a.19.19,0,0,0,.14-.15A.21.21,0,0,0,48.94,1a.35.35,0,0,1,.15-.17c4.25-2.39,8.12.83,10.12,5.84-.2.54-.37,1.1-.58,1.55a.2.2,0,0,0,0,.2Z"/><path d="M47.58,13.69a3.24,3.24,0,0,1-.24,3.1c-.4.71-1.37.08-1.07-.63a12,12,0,0,0,.55-2.37A.41.41,0,0,1,47.58,13.69Z"/><path d="M47.09,21A5.47,5.47,0,0,1,48,25.16a.39.39,0,0,1-.74,0,10.13,10.13,0,0,1-.19-1.82,15.91,15.91,0,0,0-.39-2.15A.2.2,0,0,1,47.09,21Z"/><path d="M46.24,8.68a.5.5,0,0,1,.27,1A2.37,2.37,0,0,0,45.11,11a.48.48,0,0,1-.92-.26A2.42,2.42,0,0,1,46.24,8.68Z"/><path d="M40.22,33.76l-.2.11a.6.6,0,0,1-.73-.11A.55.55,0,0,1,40.22,33.76Z"/><path d="M41.18,16.09c.1,1.05-1,2.06-1.56,2.84-.45.61-1.46.07-1-.6.54-.86,1.11-2.26,2.18-2.55A.33.33,0,0,1,41.18,16.09Z"/><path class="cls-3" d="M47.3,25.16a.39.39,0,0,0,.74,0A5.47,5.47,0,0,0,47.09,21a.2.2,0,0,0-.37.15,15.91,15.91,0,0,1,.39,2.15A10.13,10.13,0,0,0,47.3,25.16Zm9.59,2.64A5.63,5.63,0,0,0,56.22,24a.46.46,0,0,0-.84.35,10.73,10.73,0,0,1,.17,3.3A.68.68,0,0,0,56.89,27.8Zm-1.43-9.19a.32.32,0,0,0,.63.09,1.51,1.51,0,0,0-.16-1.1,1.38,1.38,0,0,0-.9-.53c-.27-.05-.48.32-.2.47a1.08,1.08,0,0,1,.43.47A1.19,1.19,0,0,1,55.46,18.61Zm-6.15-17c5.07-.53,8,2.85,9.26,6.79a34.12,34.12,0,0,1,1.17,8.89c.19,7.06-1.72,12.39-7.23,16.81a.81.81,0,0,0-.3.44,1.13,1.13,0,0,0,0,.26,14.1,14.1,0,0,1-3,.43,10.26,10.26,0,0,1-2.93-.14c-.64-.15-1.26-.42-1.91-.57a8.88,8.88,0,0,0-4.3.29c.06-.12.13-.28.23-.5a.59.59,0,0,0,0-.57,1.67,1.67,0,0,0,.8-1.68,4.44,4.44,0,0,0-.22-.87c-.74-2-2.85-2.3-3.41-4.4-.3-1.16-.11-2.18-1.35-2.82s-3.6.6-5,.32A28.33,28.33,0,0,1,49,1.44.33.33,0,0,0,49.31,1.63Zm3,12.13a.51.51,0,1,0,1,0l-.36-2a.15.15,0,0,0-.28,0C52.55,12.39,52.44,13.08,52.31,13.76Zm-5,3a3.24,3.24,0,0,0,.24-3.1.41.41,0,0,0-.76.1,12,12,0,0,1-.55,2.37C46,16.87,46.94,17.5,47.34,16.79Zm-.83-7.14a.5.5,0,0,0-.27-1,2.42,2.42,0,0,0-2.05,2.08.48.48,0,0,0,.92.26A2.37,2.37,0,0,1,46.51,9.65Zm-6.89,9.28c.59-.78,1.66-1.79,1.56-2.84a.33.33,0,0,0-.41-.31c-1.07.29-1.64,1.69-2.18,2.55C38.16,19,39.17,19.54,39.62,18.93Z"/><path d="M39.14,33.38c.2-2.48-2.22-2.82-3.17-4.6-.74-1.37.42-3.24-2.12-3.52-1.18-.13-2.55.5-3.5,0a.74.74,0,0,0,.65-.65c0-.1,0-.2,0-.3,1.4.28,3.89-.89,5-.32s1.05,1.66,1.35,2.82c.56,2.1,2.67,2.43,3.41,4.4a4.44,4.44,0,0,1,.22.87,1.67,1.67,0,0,1-.8,1.68.55.55,0,0,0-.93,0A.44.44,0,0,1,39.14,33.38Z"/><path d="M49,1.44A28.33,28.33,0,0,0,31,24.31a1.12,1.12,0,0,1-.86-.65.33.33,0,0,0-.49-.15A25.51,25.51,0,0,1,48.94,1,.47.47,0,0,0,49,1.44Z"/><path d="M30,25.05a1.54,1.54,0,0,0,.31.21.61.61,0,0,1-.33,0C30,25.17,30,25.11,30,25.05Z"/><path d="M29.64,24.48a4.36,4.36,0,0,1,0-.51h.55q-.07.54-.18,1.08A1.8,1.8,0,0,1,29.64,24.48Z"/><path d="M31,24.31c0,.1,0,.2,0,.3a.74.74,0,0,1-.65.65,1.54,1.54,0,0,1-.31-.21q.11-.54.18-1.08h-.55c0-.16,0-.31,0-.46a.33.33,0,0,1,.49.15A1.12,1.12,0,0,0,31,24.31Z"/><path d="M29.63,24.61a.57.57,0,0,1,0-.13,1.8,1.8,0,0,0,.4.57c0,.06,0,.12,0,.18h0A.6.6,0,0,1,29.63,24.61Z"/><path d="M29.67,24a4.36,4.36,0,0,0,0,.51,2.35,2.35,0,0,1-.19-.51Z"/><path class="cls-4" d="M2.26,41.86a72.49,72.49,0,0,0,10.66-7.48c-.09.21-.18.43-.25.65a5.08,5.08,0,0,0-.25,1.78,2.93,2.93,0,0,0,2.83,3,6.28,6.28,0,0,0,4.46,1C22,40.44,23.62,39.59,26,40c1.73.25,3.29,1,5.07.81,2.12-.21,2.62-1,3.93-2.39a13.65,13.65,0,0,1,2.59-2.32c.33-.16.9,0,1.2-.22.76-.6.9-.45,1.2-1a8.88,8.88,0,0,1,4.3-.29c.65.15,1.27.42,1.91.57a10.26,10.26,0,0,0,2.93.14,14.1,14.1,0,0,0,3-.43,1.06,1.06,0,0,0,1.39.72l.43-.2a11.88,11.88,0,0,0,5.38-6.44c2.12,2,4.9,1.21,7.16-.34.74-.5,1.37-1.18,2.05-1.74,2.07-1.69,3.52-1.28,5.81-2.13a4.53,4.53,0,0,0,2.43-1.86,7.4,7.4,0,0,0,.6-1.16c2,1.92,7.64,6.62,9.15,8A9.51,9.51,0,0,1,89,32.31h0c.4.9.22,1.83-1.17,2.82a2.51,2.51,0,0,1-.49.27c-1.6.69-4.68.73-6.16,1-2.22.41-4.44.8-6.67,1.2-8.32,1.49-16.59,3.26-24.86,5l-3,.65Q35.73,45.6,24.85,47.89c-4.2.89-8.41,2-12.65,2.62-2.88.43-6.6.67-9-1.46a6.08,6.08,0,0,1-1.4-1.88c0-1.47,0-2.93-.15-4.31A3.89,3.89,0,0,1,2.26,41.86Z"/><path d="M29.63,24.61a.6.6,0,0,0,.38.62c-.07.37-.15.75-.22,1.12a.21.21,0,0,1-.15.14c-2.45.78-4.6-2.37-5.68-4.27v0s0-.05,0-.08,0,0,0,0a.14.14,0,0,1,.19-.07,10.25,10.25,0,0,1,2.13,1.64c1.11,1,3.06,2.77,3.15.19a.42.42,0,0,1,.26-.35c0,.15,0,.3,0,.46h-.22a2.35,2.35,0,0,0,.19.51A.57.57,0,0,0,29.63,24.61Z"/><path d="M24,22.1s0,0,0,0,0,.05,0,.08a.12.12,0,0,1,0-.1Z"/><path d="M21.09,33.24a2.27,2.27,0,0,0,.86-1,2.53,2.53,0,0,1,.43,2.93c-.4.75-1.43.1-1.1-.63A1.48,1.48,0,0,0,21.09,33.24Z"/><path d="M22,26.54c-.38,1.7.37,3,.26,4.64a3,3,0,0,1-.3,1.09A8,8,0,0,0,20.73,31s0-.05-.07-.05a12,12,0,0,0-.11-1.92,7.72,7.72,0,0,1,.27-2.49A9.74,9.74,0,0,1,24,22.1a.12.12,0,0,0,0,.1v0C23.57,23.73,22.34,25,22,26.54Z"/><path d="M20,32.06A1.24,1.24,0,0,0,20.66,31s0,0,.07.05A8,8,0,0,1,22,32.27a2.27,2.27,0,0,1-.86,1A5.44,5.44,0,0,0,20,32.06Z"/><path d="M20.66,31A1.24,1.24,0,0,1,20,32.06,23.87,23.87,0,0,0,18,30.48a17.24,17.24,0,0,0-1.55-1c0-.41.07-.83.08-1.25A21.21,21.21,0,0,1,20.66,31Z"/><path d="M15.76,27.85c.08-.25.15-.5.22-.75a.26.26,0,0,1,.51.07c0,.35,0,.69,0,1C16.24,28.08,16,28,15.76,27.85Z"/><path d="M16.48,28.21c0,.42,0,.84-.08,1.25a11.29,11.29,0,0,0-1-.57c.14-.35.26-.69.37-1C16,28,16.24,28.08,16.48,28.21Z"/><path d="M40.26,34.33c-.1.22-.17.38-.23.5-.3.55-.44.4-1.2,1-.3.23-.87.06-1.2.22A13.65,13.65,0,0,0,35,38.37c-1.31,1.36-1.81,2.18-3.93,2.39-1.78.17-3.34-.56-5.07-.81-2.42-.36-4,.49-6.33.82a6.28,6.28,0,0,1-4.46-1l.31,0c.48-.07.4-.76,0-.88a3.85,3.85,0,0,1-.76-.33C18,39.64,19.89,38.4,23,38c2.06-.29,3.94.65,6,.81,2.75.23,3.21-.07,4.83-2.23.24-.34.3-.93.67-1.18,1.2-.87,4.1-.58,4.83-1.62a.6.6,0,0,0,.73.11l.2-.11A.59.59,0,0,1,40.26,34.33Z"/><path d="M14.8,38.57a3.85,3.85,0,0,0,.76.33c.4.12.48.81,0,.88l-.31,0A13.14,13.14,0,0,1,14,38.94a.33.33,0,0,1,.31-.54Z"/><path d="M14,38.94a13.14,13.14,0,0,0,1.22.87,2.93,2.93,0,0,1-2.83-3A5.08,5.08,0,0,1,12.67,35c.07-.22.16-.44.25-.65.24-.21.48-.39.69-.58a.55.55,0,0,0,.15-.2c.17-.38,1.19-1.88.23-1.51.51-1.06,1-2.11,1.4-3.2a11.29,11.29,0,0,1,1,.57,10.43,10.43,0,0,1-.64,2.66c-.73,1.85-3.28,5.1-1,6.45l-.46-.17A.33.33,0,0,0,14,38.94Z"/><path d="M14,32.09c1-.37-.06,1.13-.23,1.51a.55.55,0,0,1-.15.2c-.21.19-.45.37-.69.58.19-.47.42-.94.64-1.39Z"/><path d="M68.68,73.4l.68-.09c-8.58,2-19.13,3-28.21,4.06-10.21,1.16-21.07,2.74-31.4,2.26a.62.62,0,0,0,.14-.72s0,0,0,0c-.26-.46-.52-.91-.76-1.36,10.29-1.15,20.73-1.28,31.06-2.35,9.6-1,19.24-2.14,28.76-3.84l-.73.3a.42.42,0,0,0-.15.11.75.75,0,0,0-.29.61A.92.92,0,0,0,68.68,73.4Z"/><path d="M9.17,64.05a2.49,2.49,0,0,1,.11-1c.25.21.51.4.77.6A5.55,5.55,0,0,1,9.17,64.05Z"/><path d="M9.89,78.91l-.86,0c-.24-.42-.47-.84-.69-1.25l.78-.08c.24.45.5.9.76,1.36C9.88,78.9,9.89,78.9,9.89,78.91Z"/><path d="M9,78.86l.86,0a.62.62,0,0,1-.14.72H9.46a0,0,0,0,1,0,0C9.3,79.36,9.17,79.1,9,78.86Z"/><path class="cls-5" d="M6.75,64a3,3,0,0,0,2.42,0c.06.9.77,1.3,1.95,1.56,1.59.35,3.81-.48,5.39-.7,2.8-.41,5.6-.81,8.4-1.28,5.49-1,10.93-1.93,16.45-2.63a124,124,0,0,0,13.29-2.2.38.38,0,0,0,.3-.31.1.1,0,0,0,.09-.05c.42-.74,2.61-.15,3.61,0l.25,0H59c1.61.15,2.87-.37,4.4-.33,2.41,0,3.8,1,5.87-.81a.71.71,0,0,0,.12-.13,72.3,72.3,0,0,0,7.74-.82l1.11-.19,3.8-.18h0l.38-.09a12,12,0,0,0-.26,1.59c-.23,2.27.49,4.7-.23,6.91-1,3.08-4.45,4.37-8,5.37-1.79.51-3.6.94-5.08,1.51-9.52,1.7-19.16,2.85-28.76,3.84-10.33,1.07-20.77,1.2-31.06,2.35l-.35-.63C6.52,72.77,4.92,68.8,6.75,64Z"/><path d="M8.34,77.61c.22.41.45.83.69,1.25l-.42,0a1,1,0,0,1,0-1.92h.16l.35.63Z"/><path d="M6.2,63.7a5.28,5.28,0,0,1,.57-.47c.15-.1.27.09.22.23L6.75,64A6.26,6.26,0,0,1,6.2,63.7Z"/><path d="M4.43,71c-.5-2.69-.28-5.51,1.77-7.33a6.26,6.26,0,0,0,.55.34c-1.83,4.76-.23,8.73,2,12.86H8.61a1,1,0,0,0,0,1.92l.42,0c.14.24.27.5.42.75a0,0,0,0,0,0,0h.29a.51.51,0,0,1-.52.11C6.32,78.76,4.94,73.77,4.43,71Z"/><path d="M55,58.49a.38.38,0,0,1-.3.31A124,124,0,0,1,41.36,61c-5.52.7-11,1.68-16.45,2.63-2.8.47-5.6.87-8.4,1.28-1.58.22-3.8,1-5.39.7-1.18-.26-1.89-.66-1.95-1.56a5.55,5.55,0,0,0,.88-.44c-.26-.2-.52-.39-.77-.6a2.49,2.49,0,0,0-.11,1,3,3,0,0,1-2.42,0L7,63.46c0-.14-.07-.33-.22-.23a5.28,5.28,0,0,0-.57.47c-1.37-1-2.19-3.19-2.49-5l.29.23c.26,2.46,2.06,3.77,5.41,3.89a.53.53,0,0,1,.88.51c-.35,1.42,12.25-.63,13.42-.81,3.29-.47,6.58-1.11,9.88-1.39,7-.58,13.89-2.65,20.95-3.16a.38.38,0,0,1,.37.21c0,.06,0,.13-.09.22S54.87,58.51,55,58.49Z"/><path d="M3.62,57.88c0-.23.33-.22.35,0a6.66,6.66,0,0,0,0,1l-.29-.23h0A7.29,7.29,0,0,1,3.62,57.88Z"/><path d="M12.83,32.79a6.59,6.59,0,0,1,1.16-.7l-.43.9c-.22.45-.45.92-.64,1.39A72.49,72.49,0,0,1,2.26,41.86v0a.26.26,0,0,0-.19-.4C4.49,39.34,10.07,34.61,12.83,32.79Z"/><path class="cls-5" d="M83.24,37.48c.82-.19,2.38-.32,3.89-.65a17.38,17.38,0,0,1-1.74,6.33c-2.6,4.7-9.19,5.07-14,5.88q-13.59,2.28-27.16,4.67C35.49,55.25,26.69,56.55,18,58.48,13,59.57,7.67,60.93,4.08,56.23a12.65,12.65,0,0,1-2.16-7A10.76,10.76,0,0,0,9,52.45c5.4.08,11.07-1.76,16.34-2.83l19.9-4C57.94,43.08,70.58,40.34,83.24,37.48Z"/><path d="M81.18,36.4c1.48-.27,4.56-.31,6.16-1-.08.47-.14,1-.21,1.43-1.51.33-3.07.46-3.89.65-12.66,2.86-25.3,5.6-38,8.15l-19.9,4C20.06,50.69,14.39,52.53,9,52.45a10.76,10.76,0,0,1-7.07-3.23c0-.68-.07-1.37-.09-2a6.08,6.08,0,0,0,1.4,1.88c2.37,2.13,6.09,1.89,9,1.46,4.24-.63,8.45-1.73,12.65-2.62q10.89-2.28,21.75-4.62l3-.65c8.27-1.76,16.54-3.53,24.86-5C76.74,37.2,79,36.81,81.18,36.4Z"/><path d="M2.26,41.86c-.21.11-.44.21-.65.3a.25.25,0,0,0-.12-.2c.16-.15.36-.33.59-.52a.26.26,0,0,1,.19.4Z"/><path d="M1.83,47.17a5.23,5.23,0,0,1-.15-4.31C1.8,44.24,1.8,45.7,1.83,47.17Z"/><path d="M2.26,41.86a3.89,3.89,0,0,0-.58,1c0-.23,0-.46-.06-.68v0C1.82,42.07,2.05,42,2.26,41.86Z"/><path d="M2.08,41.44c-.23.19-.43.37-.59.52l-.06,0,.19-.21.2-.21A.22.22,0,0,1,2.08,41.44Z"/><path d="M1.68,42.86a5.23,5.23,0,0,0,.15,4.31c0,.68,0,1.37.09,2A6.3,6.3,0,0,1,.18,46.16a23.18,23.18,0,0,1,.69-3.49A1.67,1.67,0,0,1,1,42.43c.2-.09.39-.17.58-.27v0C1.65,42.4,1.66,42.63,1.68,42.86Z"/><path d="M4.08,56.23c3.59,4.7,9,3.34,13.9,2.25,8.71-1.93,17.51-3.23,26.29-4.77Q57.85,51.33,71.43,49c4.77-.81,11.36-1.18,14-5.88a17.38,17.38,0,0,0,1.74-6.33,10.13,10.13,0,0,0,2.37-.77,18.28,18.28,0,0,1-3.44,8.81,10.92,10.92,0,0,1-1.54,1.57.47.47,0,0,0-.47.35c-2.31,1.68-5.14,2.24-8.12,2.85-12,2.47-24.07,4.42-36.17,6.46-6,1-12,2.23-18.08,3.23-4.47.74-9.25,2.26-13.79,1.3A9.8,9.8,0,0,1,4,58.89a6.66,6.66,0,0,1,0-1c0-.22-.37-.23-.35,0a7.29,7.29,0,0,0,.09.77C.36,55.84-.4,50.84.18,46.16a6.3,6.3,0,0,0,1.74,3.06A12.65,12.65,0,0,0,4.08,56.23Z"/><path class="cls-6" d="M53.56,34.31a5.83,5.83,0,0,1-1,.4,1.66,1.66,0,0,1-.38.11,14.1,14.1,0,0,1-3,.43,10.26,10.26,0,0,1-2.93-.14c-.64-.15-1.26-.42-1.91-.57a8.88,8.88,0,0,0-4.3.29c-.45.11-.9.25-1.34.37"/><path class="cls-6" d="M26.79,32.39c.44-.84.86-1.68,1.3-2.52s1-1.51,1.73-1.22c.34.14.54.5.77.8a3.2,3.2,0,0,0,2.35,1.25"/><path class="cls-7" d="M47.31,4.66a33.72,33.72,0,0,0-8.88,8.21c-.32.43-.61,1.11-.19,1.44a1,1,0,0,0,.84.08,15.07,15.07,0,0,0,5.5-3,46.57,46.57,0,0,0,4.19-3.35,6.51,6.51,0,0,0,2.42-4A7.84,7.84,0,0,0,46,6.12"/><path class="cls-7" d="M35.38,16.15l-1.19,3.39c.86.25,1.59-.64,2-1.42L37.5,16a.66.66,0,0,0,.12-.46c-.09-.37-.63-.28-.95-.09a9.58,9.58,0,0,0-2.36,1.89"/><g class="cls-8"><path d="M15.68,79.3c-.7.15,34-2.22,51.58-8.23a19.51,19.51,0,0,1,6.52-1.45c5,.09,9.07,4.08,12.49,7.8,1,1,2,2.4,1.55,3.75-.38,1.1-1.6,1.64-2.69,2.06C73,87.85,60.73,92.51,47.81,93.39s-26.75-2.57-35.56-12c-.76-.82-.3-2.88.43-2Z"/></g><g class="cls-8"><path d="M5,77.78A28.87,28.87,0,0,1,20.39,69c7.28-1.5,14.86-.13,22.23-1C51,67,58.71,63,67,61.57a13.32,13.32,0,0,1,6.34,0,5.75,5.75,0,0,1,4.12,4.45,5.89,5.89,0,0,1-3,5.34,17.3,17.3,0,0,1-6.07,2l-28.32,5.7c-8.23,1.66-16.62,3.33-25,2.52-2.35-.22-4.89-.76-6.37-2.6s-.93-5.28,1.39-5.72"/></g><g class="cls-8"><path d="M59.79,13.09c-2.62,1-4.34,3.5-5.37,6.1s-1.55,5.39-2.7,7.94c-1.45,3.22-3.87,5.92-5.5,9.06a4.51,4.51,0,0,0,4.72,1.5,9.63,9.63,0,0,0,4.39-2.78c5.26-5.26,7.75-13.7,4.59-20.43"/></g><g class="cls-8"><path d="M16.27,39.49a17.24,17.24,0,0,1,6.67.38c1.54.4,3.1,1,4.68.81,3.05-.41,5.46-3.81,8.47-3.17a9.56,9.56,0,0,1-6.52,3.57c-4.85.46-10-2.8-14.37-.7-.28.14-.59.34-.63.65-.07.48.49.78.95.93A35.42,35.42,0,0,0,25,44a14.59,14.59,0,0,0,9.2-2.47c1.93-1.41,3.45-3.91,2.57-6.13"/></g><g class="cls-8"><path d="M62.79,29.29a1.58,1.58,0,0,0-1.58.22c1.28,1.82,4.07,1.73,6.06.75S70.9,27.66,73,26.8a8.93,8.93,0,0,0,2.46-1.15,1.82,1.82,0,0,0,.54-2.4c-.62-.8-1.86-.59-2.81-.25a24.27,24.27,0,0,0-9.62,6.51"/></g></g></g></g></g></svg>