<svg xmlns="http://www.w3.org/2000/svg" viewBox="0 0 107.69 158"><defs><style>.cls-1{isolation:isolate;}.cls-2{fill:#fde9bc;}.cls-3{fill:#eaeaea;}.cls-4{fill:#df9129;}.cls-5,.cls-7{fill:#fff;}.cls-5,.cls-6{opacity:0.8;mix-blend-mode:overlay;}.cls-8{opacity:0.15;mix-blend-mode:darken;}</style></defs><g class="cls-1"><g id="Layer_2" data-name="Layer 2"><g id="dragzone_items"><g id="roll"><path d="M107.34,35.5c.66,6.41.53,12.52-1.82,18.58-1.79,4.65-4.47,9.52-8.35,12.76s-8.92,4.12-13.6,5.5a17.78,17.78,0,0,0,4.79-4.09,20.42,20.42,0,0,0,12.18-9.7c6.49-10.76,5.82-23.66,3-35.54-1.4-5.93-4-11.53-8.66-15.58S85.22,2.48,79.58,1.29a.65.65,0,0,0-.26-1,1,1,0,0,0-.51-.13l.08,0c10.73-1.42,20.86,7.48,24.64,16.79C105.9,22.79,106.69,29.26,107.34,35.5Z"/><path class="cls-2" d="M103.56,23c2.8,11.88,3.47,24.78-3,35.54a20.42,20.42,0,0,1-12.18,9.7A33.12,33.12,0,0,0,94.3,56.39c2.52-8.76,2-18.21-.1-27C92.33,21.56,88.46,16.16,82,11.31c-3-2.24-6.75-4.88-10.65-6.08,2.25-.6,4.82-2.41,7-3.08a2.07,2.07,0,0,0,1.18-.86C85.22,2.48,90.3,3.44,94.9,7.43S102.16,17.08,103.56,23Z"/><path d="M94.2,29.39c2.11,8.79,2.62,18.24.1,27a33.12,33.12,0,0,1-5.94,11.86c-.24.09-.48.16-.72.23-3.08.91-6.16,1.85-9.23,2.78a1.54,1.54,0,0,1,.37-.27C93,63.73,94.45,44.91,91.5,31A27.66,27.66,0,0,0,81,13.86a51.68,51.68,0,0,0-8-5.29,16.65,16.65,0,0,0-7.7-1.82c2-.49,4-1,6.06-1.52C75.26,6.43,79,9.07,82,11.31,88.46,16.16,92.33,21.56,94.2,29.39Z"/><path class="cls-2" d="M91.5,31c3,13.92,1.45,32.74-12.72,40a1.54,1.54,0,0,0-.37.27c-1.85.56-3.7,1.12-5.55,1.66l-2.8.8c7.27-8.32,7.69-23.21,6.37-33.27-1-7.67-3.49-15.24-8.67-21.13a28.72,28.72,0,0,0-8.65-6.75,22.68,22.68,0,0,0-4.86-1.79c-.61-.14-1-.19-1.59-.28a6.54,6.54,0,0,1-1.3-.44C56,8.94,60.66,7.89,65.3,6.75A16.65,16.65,0,0,1,73,8.57a51.68,51.68,0,0,1,8,5.29A27.66,27.66,0,0,1,91.5,31Z"/><path d="M87.64,68.48c.24-.07.48-.14.72-.23a17.78,17.78,0,0,1-4.79,4.09l-.68.2-3.82,1.18a1.56,1.56,0,0,1-.66-2.46C81.48,70.33,84.56,69.39,87.64,68.48Z"/><path d="M79.32.3a.65.65,0,0,1,.26,1l-.82-.17a.43.43,0,0,1-.34-.27.59.59,0,0,1,.37-.68h0A1,1,0,0,1,79.32.3Z"/><path d="M78.76,1.12l.82.17a2.07,2.07,0,0,1-1.18.86c-2.22.67-4.79,2.48-7,3.08a11.66,11.66,0,0,0-7-.23l-.12-.34c4.4-1.28,9.86-3.35,14.3-4.45a1.08,1.08,0,0,1,.3,0,.59.59,0,0,0-.37.68A.43.43,0,0,0,78.76,1.12Z"/><path d="M78.41,71.26a1.56,1.56,0,0,0,.66,2.46c-5.73,1.76-11.44,3.52-17.13,5.33v0a17.26,17.26,0,0,0,8.13-5.3l2.8-.8C74.71,72.38,76.56,71.82,78.41,71.26Z"/><path d="M76.43,40.45c1.32,10.06.9,25-6.37,33.27L63,75.7c11.25-6.27,12.25-21.46,11-33.53-1.5-14.32-9.25-28.81-24.8-30.84a.54.54,0,0,1-.48-.61l1.82-.45.88-.21a6.54,6.54,0,0,0,1.3.44c.62.09,1,.14,1.59.28a22.68,22.68,0,0,1,4.86,1.79,28.72,28.72,0,0,1,8.65,6.75C72.94,25.21,75.42,32.78,76.43,40.45Z"/><path class="cls-2" d="M73.94,42.17c1.26,12.07.26,27.26-11,33.53-3.08.87-6.17,1.77-9.2,2.79,8.94-9.31,10.72-23.83,6.89-35.93-4.28-13.49-16-24.83-30.06-27.28,6-1.17,12.2-3.12,18.08-4.56a.54.54,0,0,0,.48.61C64.69,13.36,72.44,27.85,73.94,42.17Z"/><path d="M72.67,141.38a10.11,10.11,0,0,1,0,5.19c-2,8-8.36,5.39-12.82.49q1.93,1.59,4,3c1.14.77,2.2-.87,1.39-1.8-.19-.23-.39-.45-.59-.67,2.71.22,5.54-.75,5.66-4a6,6,0,0,0-.72-3l1.24,1.16A1.17,1.17,0,0,0,72.67,141.38Z"/><path d="M72,139.68a11.62,11.62,0,0,1,.64,1.7,1.17,1.17,0,0,1-1.87.37l-1.24-1.16c-.73-1.48-1.8-2.81-2.19-4.41a.39.39,0,0,1,.49-.48c0,.24.07.48.1.72l.49.1a.14.14,0,0,0,.2-.16Z"/><path class="cls-3" d="M69.56,140.59a6,6,0,0,1,.72,3c-.12,3.26-3,4.23-5.66,4-5.53-6.23-12.34-11.61-18.25-17.47-5.19-5.13-10-10.69-15.21-15.81a2.74,2.74,0,0,0-.8-.79h0l-1.05-1a6.53,6.53,0,0,0-1.74-1.57c-2.66-1.3-5.9-2.59-8.75-2.28a7.63,7.63,0,0,0-1.28.25l-.35.1c-3.68,1.25-7.08-5.48-8.87-7.69s-4.94-5.42-6-8.36L1.4,91.38c-1.4-5,1-3.38,1.66-2.4,0,0,.61,3.07.73,3.38a7.25,7.25,0,0,0,2.32,3.47c1.7,1.18,4.05.92,4.89-1.16a6.32,6.32,0,0,0-.46-4.32l1.5-.54.24.67A6,6,0,0,0,13,91.9c.78.85,1.76,1.55,3,1.06,2.88-1.18,2.15-5.65,1-8.84,1.77,2.32,3.24,6.76,3.91,8,1.7,3.28,3.64,6.35,4.07,10,0,.18,0,.36.05.55l2.68,1.44c1.82,1,3.65,1.91,5.51,2.78q.84.39,1.68.75c.69.31,1.38.6,2.08.87a1.65,1.65,0,0,0,.33.09C47.4,119.85,58.52,130.29,69.56,140.59Z"/><path d="M68.65,136.36a.14.14,0,0,1-.2.16l-.49-.1c0-.24-.07-.48-.1-.72a.38.38,0,0,1,.18.09l.3.26a.2.2,0,0,1,.08.08C68.49,136.21,68.57,136.28,68.65,136.36Z"/><path d="M68.65,136.36c-.08-.08-.16-.15-.23-.23l.2.17A.07.07,0,0,1,68.65,136.36Z"/><path d="M71.36,5.23c-2,.53-4,1-6.06,1.52-1.17,0-2.37-.06-3.67-.12a.14.14,0,0,1-.07-.26A10,10,0,0,1,64.31,5,11.66,11.66,0,0,1,71.36,5.23Z"/><path d="M68.34,136.05l-.3-.26a.38.38,0,0,0-.18-.09v0l.13,0Z"/><path d="M68,135.71l-.13,0v0a.39.39,0,0,0-.49.48c.39,1.6,1.46,2.93,2.19,4.41-11-10.3-22.16-20.74-32.28-32a1,1,0,0,0,.92-.32C48.57,116.89,58.35,126.28,68,135.71Z"/><path d="M63,75.7l7.11-2A17.26,17.26,0,0,1,61.93,79a18.87,18.87,0,0,1-2.49.59,1.13,1.13,0,0,1-.6-2.17A20.65,20.65,0,0,0,63,75.7Z"/><path d="M65.21,148.23c.81.93-.25,2.57-1.39,1.8q-2-1.38-4-3a1.83,1.83,0,0,1,1.9-.21,3.16,3.16,0,0,0,.54.2,12.43,12.43,0,0,0,1.92,1.71C65.35,149.53,65.25,148.83,65.21,148.23Z"/><path d="M65.21,148.23c0,.6.14,1.3-1,.53a12.43,12.43,0,0,1-1.92-1.71,8.79,8.79,0,0,0,2.33.51C64.82,147.78,65,148,65.21,148.23Z"/><path d="M64.19,4.66l.12.34a10,10,0,0,0-2.75,1.37.14.14,0,0,0,.07.26c1.3.06,2.5.07,3.67.12C60.66,7.89,56,8.94,51.36,10.06c-1.3-.1-.78-.12-2.35.31a.46.46,0,0,0-.35.35c-5.88,1.44-12.06,3.39-18.08,4.56-.39-.06-.79-.13-1.19-.18-1.53.27-3.05.5-4.58.7a25,25,0,0,0-5.42,1.12c7.8-2.56,23.76-6.39,31.6-8.5C55.41,7.23,59.8,5.93,64.19,4.66Z"/><path d="M64.62,147.56a8.79,8.79,0,0,1-2.33-.51,22.07,22.07,0,0,0-1.71-1.64c-1,.72-1.76.52-.73,1.65-5.53-4.5-10.49-10.08-15.25-15.2a179.68,179.68,0,0,1-13.89-16.12l.51.53c.06.07.16,0,.1-.1l-.93-.9h0l-.36-.53a1.15,1.15,0,0,0,.59-.33c.27.33.52.63.75.86a1,1,0,0,0-.18-1c5.2,5.12,10,10.68,15.21,15.81C52.28,136,59.09,141.33,64.62,147.56Z"/><path d="M62.29,147.05a3.16,3.16,0,0,1-.54-.2,1.83,1.83,0,0,0-1.9.21c-1-1.13-.26-.93.73-1.65A22.07,22.07,0,0,1,62.29,147.05Z"/><path d="M61.93,79v0c-5.44,1.72-10.86,3.49-16.26,5.35a28.6,28.6,0,0,0,5.88-3.85,26.77,26.77,0,0,0,2.19-2.06c3-1,6.12-1.92,9.2-2.79a20.65,20.65,0,0,1-4.11,1.74,1.13,1.13,0,0,0,.6,2.17A18.87,18.87,0,0,0,61.93,79Z"/><path d="M60.64,42.56c3.83,12.1,2,26.62-6.89,35.93-2,.67-4,1.4-5.9,2.2C58.56,73.44,63,59.08,59.93,46.12A38.45,38.45,0,0,0,48.84,26.88c-6.21-5.78-13.45-7.33-21-9.8.12-.17,0-.48-.22-.46l-1,.08-1.13-.39a1.87,1.87,0,0,1,.32-.08,1.56,1.56,0,0,0-.41-.2,30,30,0,0,1,3.73-.48q.72-.12,1.44-.27C44.66,17.73,56.36,29.07,60.64,42.56Z"/><path class="cls-2" d="M59.93,46.12c3,13-1.37,27.32-12.08,34.57a61,61,0,0,0-7,3.38,19.17,19.17,0,0,1-2,.58C12.25,91-.28,56.57,8.28,34.35a56.84,56.84,0,0,0-.75,10.49,46.62,46.62,0,0,0,2,14.27A22.14,22.14,0,0,0,29.23,78.19c8.1.82,13.51-4.49,16.55-11.35h0a17.36,17.36,0,0,0,2.94-12.27s0,0,0-.06a32.31,32.31,0,0,0,0-3.93,1,1,0,0,0-.13-.44,15.31,15.31,0,0,0-9-11.9.85.85,0,0,0-.43-.75c-7.85-4.86-21.56.76-23.87,9.72a.34.34,0,0,0,0,.1c-2.74,7.26,2,19.23,10.22,18.9A15.8,15.8,0,0,0,36.1,63.35c3.79-2.93,5.39-10.07,2.64-14.11a7.61,7.61,0,0,0-11.07-1.43,5.09,5.09,0,0,0-2.18,4.6,3.45,3.45,0,0,0,1.29,2.24,5.3,5.3,0,0,0,4.75,2.89l1.73,2.11a10,10,0,0,1-7,2.3.41.41,0,0,0-.24-.34c-3.55-1.63-6.53-4.72-6.82-8.82a11.61,11.61,0,0,1,.6-4.41h0c0-.17.11-.35.17-.52,4.27-5.33,8.37-11.44,15.83-10a13.25,13.25,0,0,1,1.51.37,12.13,12.13,0,0,1,1.93.77c4.32,2.1,7,6.55,7.78,11.28a.74.74,0,0,0-.06.34v.27c0,2.65-.78,7.86-.64,7.62,0,.21-.07.41-.11.62-.2,1-.44,2.06-.73,3.08A16.63,16.63,0,0,1,34,72.65c-8.06,2.16-15.78-2-20.07-8.75a31.44,31.44,0,0,1-4-10A43.16,43.16,0,0,1,13.87,25c3.37-3.79,6.07-7.49,11.63-8.73l1.13.39,1.18.38c7.58,2.47,14.82,4,21,9.8A38.45,38.45,0,0,1,59.93,46.12Z"/><path d="M53.75,78.49a26.77,26.77,0,0,1-2.19,2.06,28.6,28.6,0,0,1-5.88,3.85c-1.68.57-3.37,1.16-5,1.76-1,.34-1.49-1.1-.67-1.58.29-.18.59-.35.89-.51a26.09,26.09,0,0,0,7-3.38C49.78,79.89,51.76,79.16,53.75,78.49Z"/><path d="M51.36,10.06l-.88.21-1.82.45a.46.46,0,0,1,.35-.35C50.58,9.94,50.06,10,51.36,10.06Z"/><path d="M48.73,54.56a17.36,17.36,0,0,1-2.94,12.27A36.76,36.76,0,0,0,48.72,54.5S48.73,54.54,48.73,54.56Z"/><path d="M48.74,50.57a32.31,32.31,0,0,1,0,3.93.87.87,0,0,0-.12-.33,14.78,14.78,0,0,0,0-4A1,1,0,0,1,48.74,50.57Z"/><path d="M48.61,50.13a14.78,14.78,0,0,1,0,4,.87.87,0,0,0-1.33-.2,17.39,17.39,0,0,0-.2-3.74A.89.89,0,0,1,48.61,50.13Z"/><path d="M48.72,54.5a36.76,36.76,0,0,1-2.93,12.33h0a18.28,18.28,0,0,1-5.21,5,24.46,24.46,0,0,0,5-9.65,22.24,22.24,0,0,0,.92-3,.77.77,0,0,0,.9-.46,16.78,16.78,0,0,0,1.25-4.49A.87.87,0,0,1,48.72,54.5Z"/><path d="M48.6,54.17a16.78,16.78,0,0,1-1.25,4.49.77.77,0,0,1-.9.46A21.84,21.84,0,0,0,46.83,57s0-.05,0-.08a14.82,14.82,0,0,0,.43-2.9A.87.87,0,0,1,48.6,54.17Z"/><path d="M48.61,50.13a.89.89,0,0,0-1.54.1c-.76-4.73-3.46-9.18-7.78-11.28a1.13,1.13,0,0,0,.27-.72A15.31,15.31,0,0,1,48.61,50.13Z"/><path d="M47.07,50.23a17.39,17.39,0,0,1,.2,3.74.88.88,0,0,0-.23.59c0,.78-.1,1.55-.2,2.31a.19.19,0,0,1,0,.08q-.19.75-.45,1.47A39.87,39.87,0,0,0,47,50.84v-.27A.74.74,0,0,1,47.07,50.23Z"/><path d="M47,54.56a.88.88,0,0,1,.23-.59,14.82,14.82,0,0,1-.43,2.9C46.94,56.11,47,55.34,47,54.56Z"/><path d="M47,50.84a39.87,39.87,0,0,1-.63,7.58s0,0,0,0C46.23,58.7,47,53.49,47,50.84Z"/><path d="M46.84,56.87s0,.06,0,.08A.19.19,0,0,0,46.84,56.87Z"/><path d="M46.83,57a21.84,21.84,0,0,1-.38,2.17.58.58,0,0,1-.19,0c0-.21.08-.41.11-.62,0,0,0,0,0,0Q46.63,57.7,46.83,57Z"/><path d="M46.26,59.08a.58.58,0,0,0,.19,0,22.24,22.24,0,0,1-.92,3C45.82,61.14,46.06,60.11,46.26,59.08Z"/><path d="M45.53,62.16a24.46,24.46,0,0,1-5,9.65,20.45,20.45,0,0,1-18.44,1.92C14.9,69.92,10.3,62.29,9.62,53.94l.3-.07a31.44,31.44,0,0,0,4,10c4.29,6.79,12,10.91,20.07,8.75A16.63,16.63,0,0,0,45.53,62.16Z"/><path d="M40.63,86.16c1.68-.6,3.37-1.19,5-1.76a26.67,26.67,0,0,1-28.59-3C-.61,67.51-4.4,24.91,19.28,17c.47,0,3.25-.46,5.75-.86a.78.78,0,0,0,.22.12l.25.09c-5.56,1.24-8.26,4.94-11.63,8.73.31-.58.64-1.16,1-1.71.14-.23-.16-.56-.39-.38-3.6,2.72-5.35,6.93-6.19,11.4-8.56,22.22,4,56.61,30.53,50.3a19.17,19.17,0,0,0,2-.58c-.3.16-.6.33-.89.51C39.14,85.06,39.68,86.5,40.63,86.16Z"/><path d="M40.85,84.07a61,61,0,0,1,7-3.38A26.09,26.09,0,0,1,40.85,84.07Z"/><path d="M40.57,71.81a18.28,18.28,0,0,0,5.21-5c-3,6.86-8.45,12.17-16.55,11.35A22.14,22.14,0,0,1,9.57,59.11a26,26,0,0,0,6.3,10.51,18.62,18.62,0,0,0,6.26,4.11A21.66,21.66,0,0,0,28,75.84,12.5,12.5,0,0,0,40.57,71.81Z"/><path d="M39,38l.6.26a1.13,1.13,0,0,1-.27.72,12.13,12.13,0,0,0-1.93-.77,13.25,13.25,0,0,0-1.51-.37A12.5,12.5,0,0,0,28,37.64a8.7,8.7,0,0,1,.88-.39C32.05,36.07,35.94,36.7,39,38Z"/><path d="M39.56,38.23,39,38c-3-1.27-6.91-1.9-10.07-.72a8.7,8.7,0,0,0-.88.39,18.35,18.35,0,0,0-4,1.65,21.49,21.49,0,0,0-6.31,5.86,9.3,9.3,0,0,1,.59-.81.14.14,0,0,0-.2-.2,8.4,8.4,0,0,0-1.53,1.92,5.13,5.13,0,0,0-1.22,1c0,.09-.07.18-.11.28a.34.34,0,0,1,0-.1c2.31-9,16-14.58,23.87-9.72A.85.85,0,0,1,39.56,38.23Z"/><path d="M38.74,49.24c2.75,4,1.15,11.18-2.64,14.11A15.8,15.8,0,0,1,25.47,66.2a.76.76,0,0,0,.66-.42.72.72,0,0,0-.34-1,.28.28,0,0,0-.11,0,9.15,9.15,0,0,1-3-1.29h0c3,1.49,6.24.65,9.43-.46,3.68-1.29,5.43-4.65,5.91-8.37a6.2,6.2,0,0,0-1.84-5.83c-1.67-1.51-5.43-2.55-7.35-.77l-.35.78A4.38,4.38,0,0,0,27,50.34a4.49,4.49,0,0,0-.2,4.31,3.45,3.45,0,0,1-1.29-2.24,5.09,5.09,0,0,1,2.18-4.6A7.61,7.61,0,0,1,38.74,49.24Z"/><path class="cls-4" d="M36.23,48.74a6.2,6.2,0,0,1,1.84,5.83c-.48,3.72-2.23,7.08-5.91,8.37-3.19,1.11-6.39,2-9.43.46h0c-.31-.21-.61-.43-.9-.67-4.9-3.92-7.46-12.34-4.08-17.57A21.49,21.49,0,0,1,24,39.29a18.35,18.35,0,0,1,4-1.65,19,19,0,0,0-6.92,6.5l0,0c-2.17,2.92-3.88,6.12-3.2,10a10.39,10.39,0,0,0,6,7.7,0,0,0,0,1,0,0l0,0h0A9.16,9.16,0,0,0,35.3,60c2.42-2.71,4-7.55.84-10.32a6.85,6.85,0,0,0-7.61-.91l.35-.78C30.8,46.19,34.56,47.23,36.23,48.74Z"/><path d="M38.2,108.31a1,1,0,0,1-.92.32l-1.41-1.58.31-.2a12.45,12.45,0,0,0,.85,1c.2-.07.09-.33-.17-.64C37.31,107.56,37.76,107.93,38.2,108.31Z"/><path d="M35.87,107.05l1.41,1.58a1.65,1.65,0,0,1-.33-.09c-.7-.27-1.39-.56-2.08-.87C35.21,107.47,35.54,107.27,35.87,107.05Z"/><path d="M36.86,107.2c.26.31.37.57.17.64a12.45,12.45,0,0,1-.85-1l.14-.09Z"/><path d="M36.86,107.2l-.54-.44-.7-.57-.06,0a.19.19,0,0,0-.27.26c.19.22.38.44.58.65-.33.22-.66.42-1,.62q-.84-.36-1.68-.75c.76-.59,1.32-.29,2.05-1A4.74,4.74,0,0,1,36.86,107.2Z"/><path d="M36.14,49.66c3.12,2.77,1.58,7.61-.84,10.32A9.16,9.16,0,0,1,24,61.87a11.25,11.25,0,0,0,1.75.59.51.51,0,0,0,.6-.51,10,10,0,0,0,7-2.3,8.53,8.53,0,0,0,2.45-3.46c1.08-2.81,0-5.57-3-6.19-1.34-.27-3.21,0-4,1.34a2.26,2.26,0,0,0-.09,2.42,8,8,0,0,1-1.5-1.8l1.42-3.21A6.85,6.85,0,0,1,36.14,49.66Z"/><path d="M36.32,106.76l-.14.09c-.23-.27-.44-.53-.56-.66Z"/><path d="M36.18,106.85l-.31.2c-.2-.21-.39-.43-.58-.65a.19.19,0,0,1,.27-.26l.06,0C35.74,106.32,36,106.58,36.18,106.85Z"/><path class="cls-2" d="M32.7,50c3,.62,4.09,3.38,3,6.19a8.53,8.53,0,0,1-2.45,3.46l-1.73-2.11c1.55,0,1.51-2.53,0-2.39A3.29,3.29,0,0,1,30,54.9c-.11-.11-.24-.23-.38-.39a6.52,6.52,0,0,1-1-.75,2.26,2.26,0,0,1,.09-2.42C29.49,50,31.36,49.73,32.7,50Z"/><path d="M35.24,106c-.73.66-1.29.36-2.05,1-1.86-.87-3.69-1.82-5.51-2.78a.3.3,0,0,0,0-.13,9.28,9.28,0,0,0,0-1.18C30.29,103.49,32.7,105.11,35.24,106Z"/><path d="M35.85,37.81c-7.46-1.41-11.56,4.7-15.83,10a34.54,34.54,0,0,1,3-6.09s0,0,0,0c-.64.79-1.29,1.59-1.91,2.42A19,19,0,0,1,28,37.64,12.5,12.5,0,0,1,35.85,37.81Z"/><path d="M31.53,55.15c1.51-.14,1.55,2.39,0,2.39a5.3,5.3,0,0,1-4.75-2.89,16.57,16.57,0,0,0,3.59,1.82c.32.15.72-.17.51-.51A4.13,4.13,0,0,0,30,54.9,3.29,3.29,0,0,0,31.53,55.15Z"/><path class="cls-4" d="M40.57,71.81a12.5,12.5,0,0,1-12.56,4,21.66,21.66,0,0,1-5.88-2.11A20.45,20.45,0,0,0,40.57,71.81Z"/><path d="M31.16,114.28a1,1,0,0,1,.18,1c-.23-.23-.48-.53-.75-.86a1,1,0,0,0,.3-.39Z"/><path d="M31.32,116.17c.06.07,0,.17-.1.1l-.51-.53-.34-.47h0Z"/><path d="M31.16,114.28l-.27-.27-.53-.52A2.74,2.74,0,0,1,31.16,114.28Z"/><path d="M30.88,56c.21.34-.19.66-.51.51a16.57,16.57,0,0,1-3.59-1.82,4.49,4.49,0,0,1,.2-4.31,4.38,4.38,0,0,1,1.55-1.59L27.11,52a8,8,0,0,0,1.5,1.8A2.84,2.84,0,0,0,30,54.9,4.13,4.13,0,0,1,30.88,56Z"/><path d="M30.36,113.49l.53.52a1,1,0,0,1-.3.39,34,34,0,0,0-2.45-3l1.16,1.09a6.05,6.05,0,0,0,1.05,1Z"/><path d="M30.37,115.27l.34.47c-.27.05-1.34-1.4-1.67-1.73a27.18,27.18,0,0,0-11.42-3.29,6,6,0,0,0,.84-.58,1.18,1.18,0,0,0,.46-.92l1-.08c-.13-.33-.55-.45-1.05-.45a.19.19,0,0,0,0-.07c2.85-.31,6.09,1,8.75,2.28a6.53,6.53,0,0,1,1.74,1.57l-1.16-1.09c-.14-.12-.36,0-.26.2.23.37.55.86.9,1.38s.79,1.18,1.21,1.77l.37.53Z"/><path d="M29.39,15.1c.4.05.8.12,1.19.18q-.72.15-1.44.27a30,30,0,0,0-3.73.48l-.6-.23C26.34,15.6,27.86,15.37,29.39,15.1Z"/><path d="M30.36,115.26h0Z"/><path d="M30.36,115.26l-.37-.53h0Z"/><path d="M30.59,114.4a1.15,1.15,0,0,1-.59.33c-.39-.55-.82-1.18-1.22-1.77s-.67-1-.9-1.38c-.1-.16.12-.32.26-.2A34,34,0,0,1,30.59,114.4Z"/><path d="M30,114.73h0c-.42-.59-.82-1.18-1.21-1.77C29.18,113.55,29.61,114.18,30,114.73Z"/><path d="M29.59,54.51c.14.16.27.28.38.39a2.84,2.84,0,0,1-1.36-1.14A6.52,6.52,0,0,0,29.59,54.51Z"/><path d="M29.3,112.47l1.05,1A6.05,6.05,0,0,1,29.3,112.47Z"/><path d="M27.59,16.62c.24,0,.34.29.22.46l-1.18-.38Z"/><path d="M27.69,102.83a9.28,9.28,0,0,1,0,1.18.3.3,0,0,1,0,.13L25,102.7c0-.19,0-.37-.05-.55Z"/><path d="M27.69,102.83,25,102.15c-.43-3.64-2.37-6.71-4.07-10-.67-1.28-2.14-5.72-3.91-8a0,0,0,0,0,0,0,14.71,14.71,0,0,0-1.33-2.79l.08-.18C19,82.6,20.9,87.34,22.65,90.2,25.08,94.17,27.51,98.16,27.69,102.83Z"/><path d="M25.79,64.73a.72.72,0,0,1,.34,1l-.41-.07C25.89,65.33,26,64.88,25.79,64.73Z"/><path d="M26.06,61.61a.41.41,0,0,1,.24.34,10.12,10.12,0,0,1-2.25-.34.14.14,0,0,0-.15.22,10.39,10.39,0,0,1-6-7.7c-.68-3.84,1-7,3.2-10a7.42,7.42,0,0,0-1.25,3.92l-.26.32s.22,0,.28,0a11.61,11.61,0,0,0-.6,4.41C19.53,56.89,22.51,60,26.06,61.61Z"/><path d="M25.72,65.71l.41.07a.76.76,0,0,1-.66.42C25.53,66.08,25.63,65.9,25.72,65.71Z"/><path d="M26.3,62a.51.51,0,0,1-.6.51A11.25,11.25,0,0,1,24,61.87h0l0,0a0,0,0,0,0,0,0,.14.14,0,0,1,.15-.22A10.12,10.12,0,0,0,26.3,62Z"/><path d="M25.79,64.73c.24.15.1.6-.07,1A9.29,9.29,0,0,1,23.53,65a4.35,4.35,0,0,1,2.15-.36A.28.28,0,0,1,25.79,64.73Z"/><path d="M25.82,16.23a1.87,1.87,0,0,0-.32.08l-.25-.09A.78.78,0,0,1,25,16.1l.38-.07A1.56,1.56,0,0,1,25.82,16.23Z"/><path d="M25.72,65.71c-.09.19-.19.37-.25.49-8.22.33-13-11.64-10.22-18.9,0,.26.36.46.56.22l.12-.14,1.79-2.23c-3.38,5.23-.82,13.65,4.08,17.57a.79.79,0,0,0,0,1.28,1.33,1.33,0,0,0,.19.14,4.31,4.31,0,0,1-.51.81,2.06,2.06,0,0,0,2.06.09A9.29,9.29,0,0,0,25.72,65.71Z"/><path d="M25.68,64.68a4.35,4.35,0,0,0-2.15.36,7.22,7.22,0,0,1-1.55-.9c.24-.41.51-.81.72-.75A9.15,9.15,0,0,0,25.68,64.68Z"/><path d="M25.41,16,25,16.1a.78.78,0,0,1-.22-.3Z"/><path d="M24.81,15.8a.78.78,0,0,0,.22.3c-2.5.4-5.28.87-5.75.86l.11,0A25,25,0,0,1,24.81,15.8Z"/><path d="M23,41.72s.06,0,0,0a34.54,34.54,0,0,0-3,6.09l-.2.25a7.42,7.42,0,0,1,1.25-3.92l0,0C21.71,43.31,22.36,42.51,23,41.72Z"/><path d="M23.53,65A2.06,2.06,0,0,1,21.47,65a4.31,4.31,0,0,0,.51-.81A7.22,7.22,0,0,0,23.53,65Z"/><path d="M22.7,63.39c-.21-.06-.48.34-.72.75a1.33,1.33,0,0,1-.19-.14.79.79,0,0,1,0-1.28C22.09,63,22.39,63.18,22.7,63.39Z"/><path d="M20,47.84c-.06.17-.12.35-.17.52a1.12,1.12,0,0,1,0-.27Z"/><path d="M19.85,48.37h0s0,0,0,0Z"/><path d="M19.85,48.36s0,0,0,0-.3.06-.28,0l.26-.32A1.12,1.12,0,0,0,19.85,48.36Z"/><path d="M18.83,108.69c.5,0,.92.12,1.05.45l-1,.08A1.21,1.21,0,0,0,18.83,108.69Z"/><path d="M18.83,108.69a1.21,1.21,0,0,1,.09.53,8.25,8.25,0,0,0-3.9,1A6.05,6.05,0,0,1,17.18,109l.35-.1A5.51,5.51,0,0,1,18.83,108.69Z"/><path d="M18.81,108.62a.19.19,0,0,1,0,.07,5.51,5.51,0,0,0-1.3.18A7.63,7.63,0,0,1,18.81,108.62Z"/><path d="M18.92,109.22a1.18,1.18,0,0,1-.46.92,6,6,0,0,1-.84.58,16,16,0,0,0-2.68,0,.21.21,0,0,1-.15-.36,2.11,2.11,0,0,1,.23-.19A8.25,8.25,0,0,1,18.92,109.22Z"/><path d="M18.11,44.14a.14.14,0,0,1,.2.2,9.3,9.3,0,0,0-.59.81,4.52,4.52,0,0,1-1.14.91A8.4,8.4,0,0,1,18.11,44.14Z"/><path d="M17,84.12c1.16,3.19,1.89,7.66-1,8.84-1.2.49-2.18-.21-3-1.06a6,6,0,0,1-.74-1.42L12,89.81c-.22-.62-.45-1.23-.67-1.85-.27-1.63-1-4.77-3.3-2.55-.15-.26-.29-.51-.4-.73a0,0,0,0,1,0,0c.06-.05.27-.14.27-.18.25-.5.25-.67.15-.67a2.17,2.17,0,0,1,2.22-.61c1.67.4,2.39,2.64,3,4,.22.51.92,3.22,2,2.84,1.46-.51-1-7.21-1.23-7.77a.92.92,0,0,1,1-1.33,4.67,4.67,0,0,1,.62.24l-.08.18-.78,1.36A2.94,2.94,0,0,1,17,84.1,0,0,0,0,1,17,84.12Z"/><path d="M14.94,110.74a16,16,0,0,1,2.68,0c-3,1.76-5.81-.15-8-2.87-3.79-4.74-8-10.61-9.42-16.63-.37-1.58-.58-4.81,2-4.37,1,.17,1.34,1.2,1.77,1.88l1,2.34c2.95,6.17,4.93,2.92,3.51-1.2-.29-1.75-.69-3.46-1.15-5.17,0-.27.64-.9.84-.9a1.71,1.71,0,0,0-.42.85,0,0,0,0,0,0,0,2.19,2.19,0,0,0,0,.68c0,.16.29.24.33,0h.09a36.64,36.64,0,0,1,2.47,4.94A6.32,6.32,0,0,1,11,94.67c-.84,2.08-3.19,2.34-4.89,1.16a7.25,7.25,0,0,1-2.32-3.47C3.67,92.05,3.07,89,3.06,89,2.37,88,0,86.37,1.4,91.38l.87,1.54c1.1,2.94,4.15,6,6,8.36s5.19,8.94,8.87,7.69A6.05,6.05,0,0,0,15,110.19a2.11,2.11,0,0,0-.23.19A.21.21,0,0,0,14.94,110.74Z"/><path d="M16.58,46.06a4.52,4.52,0,0,0,1.14-.91l-1.79,2.23A11.55,11.55,0,0,1,16.58,46.06Z"/><path d="M22.13,73.73a18.62,18.62,0,0,1-6.26-4.11,26,26,0,0,1-6.3-10.51,22.82,22.82,0,0,1-.14-5.17.1.1,0,0,1,.19,0C10.3,62.29,14.9,69.92,22.13,73.73Z"/><path d="M16.58,46.06a11.55,11.55,0,0,0-.65,1.32l-.12.14c-.2.24-.54,0-.56-.22,0-.1.07-.19.11-.28A5.13,5.13,0,0,1,16.58,46.06Z"/><path d="M15.63,81.31A14.71,14.71,0,0,1,17,84.1a2.94,2.94,0,0,0-2.11-1.43Z"/><path d="M14.47,23c.23-.18.53.15.39.38-.35.55-.68,1.13-1,1.71a29.63,29.63,0,0,0-5.59,9.31C9.12,29.88,10.87,25.67,14.47,23Z"/><path d="M9.92,53.87l-.3.07a.1.1,0,0,0-.19,0,22.82,22.82,0,0,0,.14,5.17,46.62,46.62,0,0,1-2-14.27,56.84,56.84,0,0,1,.75-10.49A29.63,29.63,0,0,1,13.87,25,43.16,43.16,0,0,0,9.92,53.87Z"/><path d="M8.1,83.8c.1,0,.1.17-.15.67,0,0-.21.13-.27.18A1.71,1.71,0,0,1,8.1,83.8Z"/><path d="M8.07,85.41H8c0,.2-.31.12-.33,0a2.19,2.19,0,0,1,0-.68C7.78,84.9,7.92,85.15,8.07,85.41Z"/><path class="cls-5" d="M34.83,17.76C52.36,16.29,68.45,6.94,86,5.12c2.11-.22,4.36-.3,6.21.73S95,8.55,96,10.23a4.38,4.38,0,0,1,.85,2.37c-.06,1.35-1.29,2.3-2.45,3a46.1,46.1,0,0,1-11.12,4.33c-9.19,2.52-18.63,4-28,5.51a18,18,0,0,1-6.5.23,18.07,18.07,0,0,1-5.52-2.58C40.39,21.37,34.83,17.76,34.83,17.76Z"/><path class="cls-5" d="M34.08,113.26A122.05,122.05,0,0,1,58.84,137c1.47,1.88,3.36,4,5.73,3.72a1.25,1.25,0,0,0,.82-.35c.49-.54,0-1.4-.42-2a154.16,154.16,0,0,0-13.42-14.11l-7.18-6.93a65.67,65.67,0,0,0-6.8-6,6.09,6.09,0,0,0-4.12-1.58c-1.5.16-2.85,1.85-2.13,3.17s2.49,1.22,3.92,1"/><g class="cls-6"><path class="cls-7" d="M8.32,103.72a14.59,14.59,0,0,0,5.76,6.57,3,3,0,0,0,1.42.53A2.59,2.59,0,0,0,17,110.3a4.69,4.69,0,0,0,2.21-3.65,3.17,3.17,0,0,0-2.48-3.21,10.19,10.19,0,0,1-1.57-.16,4.23,4.23,0,0,1-1.44-1.13,8.81,8.81,0,0,0-5.74-2.52A9.18,9.18,0,0,0,8.32,103.72Z"/></g><g class="cls-8"><path d="M37.13,86.21c-1.74.65-5.52-1.35-5.39.5a4.1,4.1,0,0,0,1.56,2.52c9,8.42,22.49,10.63,34.68,8.7s23.46-7.48,34.51-13c2.22-1.1,4.74-2.63,4.91-5.1a7.08,7.08,0,0,0-1-3.54c-2.09-4.28-5-9.12-9.71-9.59a13.19,13.19,0,0,0-4.73.66C73.12,72.62,46.4,82.77,37.13,86.21Z"/></g><g class="cls-8"><path d="M3.51,97C2,99.42.24,102,.39,104.81A12.63,12.63,0,0,0,2,109.63c6,12.21,12.23,24.64,21.85,34.27S47.31,160,60.67,157.43c2-.39,4.32-1.4,4.49-3.42.11-1.29-.76-2.44-1.58-3.45L45.15,128c-6.19-7.58-15.5-18.31-25.27-18.83-3-.16-4.15,2.93-6.89,1.77-3-1.27-3.84-5.38-6-7.77A19.56,19.56,0,0,1,3.51,97Z"/></g><g class="cls-8"><path d="M103,51.42c.94,3.77-.71,7.81-3.32,10.69s-6.09,4.8-9.51,6.65C77,75.87,63.31,82.65,48.5,84.83a12.8,12.8,0,0,1-5.58-.08,5,5,0,0,1-3.61-3.89,6.31,6.31,0,0,1,1.81-4.42C43.26,73.87,80.61,57,103,51.42Z"/></g></g></g></g></g></svg>