<svg xmlns="http://www.w3.org/2000/svg" viewBox="0 0 108.82 104.62"><defs><style>.cls-1{fill:#212121;}.cls-2{fill:#fff;}.cls-3{fill:#00bbb4;}.cls-4{fill:#aaa;}</style></defs><g id="Layer_2" data-name="Layer 2"><g id="dragzone_items"><g id="bird"><path d="M96,24.18c8.46,9.5,14.4,20.17,12.47,33.22a55.85,55.85,0,0,1-14.23,29,55.21,55.21,0,0,1-58.85,15.22A56.76,56.76,0,0,1,8.88,82.89C1.06,72.75-1.41,60.83.74,48.27a69.8,69.8,0,0,1,2.6-10.36A19.27,19.27,0,0,1,4.93,36c.16.31.34.62.53.92A63.16,63.16,0,0,0,1.84,55.39C.9,79,21.18,97,43,101.53,63.76,105.82,85.09,97,97.53,79.92c6.09-8.37,10.33-19.28,9.75-29.75a30.92,30.92,0,0,0-3-11.28h0C100.64,31,94.13,24.11,87.9,18.55A69.22,69.22,0,0,0,75.7,9.82c0-.65,0-1.29-.07-1.93A78.06,78.06,0,0,1,96,24.18Z"/><path class="cls-1" d="M107.28,50.17c.58,10.47-3.66,21.38-9.75,29.75C85.09,97,63.76,105.82,43,101.53,21.18,97,.9,79,1.84,55.39A63.16,63.16,0,0,1,5.46,36.93c2.08,3.26,5.81,5.82,8.88,7.79A44.28,44.28,0,0,0,35.87,51.9c-.79,4.75-.1,9.57,2.7,13a20.33,20.33,0,0,0,2,2.17C33,73.45,23.19,77.49,13.08,77.21c-.1,0-.21,0-.31,0a.63.63,0,0,0-.32,1.16l.26.17a121.7,121.7,0,0,1,20,16.2c.16.14.31.3.46.45a.76.76,0,0,0,1.25-.33c2.9-9,9.08-15.7,17.24-20.12C59.91,74.61,69,69,75,64.9,85.2,58,93.74,49.07,102,40l.09,0a.56.56,0,0,0,.26-.17l2-.9A30.92,30.92,0,0,1,107.28,50.17Z"/><path class="cls-1" d="M104.32,38.89l-2,.9a.46.46,0,0,0,.08-.28.5.5,0,0,0-.59-.46c-3.44.61-6.19.88-9.56-.14-1.5-.46-2.87-1.19-4.43-1.55A20.7,20.7,0,0,0,80.48,37a19.76,19.76,0,0,0-9.55,3.86,17.07,17.07,0,0,0-2.62-2.8,43,43,0,0,0,5.06-13.34c1-4.63,2.34-9.89,2.33-14.93a69.22,69.22,0,0,1,12.2,8.73c6.23,5.56,12.74,12.44,16.41,20.33Z"/><path d="M102.38,39.51a.46.46,0,0,1-.08.28A.56.56,0,0,1,102,40L102,40Z"/><path d="M102.38,39.51,102,40l-.7.2.53-.51Z"/><path class="cls-2" d="M102.38,39.51l-.6.16-.53.51-.35.09.08-.09a.14.14,0,0,0-.2-.2l-.45.44a15.29,15.29,0,0,1-5.07.51c-3.17-.33-5.94-2.11-9.1-2.6a21.65,21.65,0,0,0-14.78,3.23c-.14-.23-.3-.45-.45-.67A19.76,19.76,0,0,1,80.48,37a20.7,20.7,0,0,1,7.32.33c1.56.36,2.93,1.09,4.43,1.55,3.37,1,6.12.75,9.56.14A.5.5,0,0,1,102.38,39.51Z"/><path class="cls-2" d="M101.25,40.18l.7-.2C93.74,49.07,85.2,58,75,64.9,69,69,59.91,74.61,51.66,74.74l.24-.14.16-.09h0l.1-.06.42-.22c.49-.25.15-1.1-.38-.9-.84.32-1.65.67-2.44,1.06-.2.1-.4.2-.6.32a15.34,15.34,0,0,1-4.74-1.55c-.5-.26-.14-1,.38-.89a22.69,22.69,0,0,0,11.31-.06l.3-.08c7.69-1.92,15.15-6.9,21.11-11.23C86,54.7,93.64,47.37,101.25,40.18Z"/><path class="cls-3" d="M100.9,40.27l.35-.09C93.64,47.37,86,54.7,77.53,60.9c-6,4.33-13.42,9.31-21.11,11.23l-.2-.74a21.87,21.87,0,0,0,11-6.9c6-6.7,8.88-15.79,4.19-22.93a21.65,21.65,0,0,1,14.78-3.23c3.16.49,5.93,2.27,9.1,2.6a15.29,15.29,0,0,0,5.07-.51Z"/><path d="M100.78,40a.14.14,0,0,1,.2.2l-.08.09-.57.15Z"/><path class="cls-2" d="M75.7,9.82c0,5-1.3,10.3-2.33,14.93a43,43,0,0,1-5.06,13.34l-.81-.66c-.36-.28-.73-.54-1.1-.78a45,45,0,0,0,5-12.44c1.22-4.7,2.72-10,2.9-15.13C74.8,9.32,75.25,9.56,75.7,9.82Z"/><path d="M75.63,7.89c.05.64.07,1.28.07,1.93-.45-.26-.9-.5-1.36-.74q0-.95,0-1.89Z"/><path d="M74.34,7.19q0,.94,0,1.89c-1.81-1-3.65-1.84-5.53-2.61.61-.37,1.22-.73,1.84-1.08Q72.53,6.23,74.34,7.19Z"/><path class="cls-3" d="M74.34,9.08c-.18,5.14-1.68,10.43-2.9,15.13a45,45,0,0,1-5,12.44,18,18,0,0,0-18.1-1.44c2.13-6.94,4.32-13.28,9.11-19.09a44.06,44.06,0,0,1,11.4-9.65C70.69,7.24,72.53,8.12,74.34,9.08Z"/><path d="M71.38,41.56c4.69,7.14,1.81,16.23-4.19,22.93a21.87,21.87,0,0,1-11,6.9,16.46,16.46,0,0,1-15-3.82l.57-.59a.35.35,0,0,0-.5-.5l-.65.56a20.33,20.33,0,0,1-2-2.17c-2.8-3.4-3.49-8.22-2.7-13l.78,0a.48.48,0,0,0,.47-.44l.22,0c-.61,4.91.35,9.85,3.55,13.07,8.22,8.26,18.66,6.85,25.92-1.55,5.33-6.17,7.59-14.59,3.51-20.78C70.67,42,71,41.78,71.38,41.56Z"/><path d="M70.93,40.89c.15.22.31.44.45.67-.36.22-.71.45-1.06.71a4.82,4.82,0,0,0-.39-.57C70.26,41.41,70.59,41.14,70.93,40.89Z"/><path d="M70.65,5.39c-.62.35-1.23.71-1.84,1.08-.71-.3-1.43-.59-2.16-.85.64-.39,1.29-.77,1.94-1.12C69.28,4.78,70,5.08,70.65,5.39Z"/><path d="M70.93,40.89c-.34.25-.67.52-1,.81a13.16,13.16,0,0,0-2.38-2.47c.27-.37.52-.75.76-1.14A17.07,17.07,0,0,1,70.93,40.89Z"/><path d="M67.5,37.43l.81.66c-.24.39-.49.77-.76,1.14a14.94,14.94,0,0,0-1.94-1.38c.27-.39.53-.79.79-1.2C66.77,36.89,67.14,37.15,67.5,37.43Z"/><path class="cls-2" d="M66.65,5.62c.73.26,1.45.55,2.16.85a44.06,44.06,0,0,0-11.4,9.65c-4.79,5.81-7,12.15-9.11,19.09a6.73,6.73,0,0,1-.43.84l-.51.26c.12-.44.29-1,.3-1.1l-.39.22C47.9,23.82,56.39,12,66.65,5.62Z"/><path d="M68.59,4.5c-.65.35-1.3.73-1.94,1.12C53.33.66,38.64.53,25.55,8A50.39,50.39,0,0,1,36.6,1.19C47.31-1.3,58.36.26,68.59,4.5ZM38.41,2.13a0,0,0,0,0,0,0A0,0,0,0,0,38.41,2.13Z"/><path d="M66.4,36.65c-.26.41-.52.81-.79,1.2-.37-.23-.76-.44-1.16-.65-6.14-3.15-12.09-2.91-17-.19l-.06-.1a3,3,0,0,0,.73-1l.22-.73A18,18,0,0,1,66.4,36.65Z"/><path class="cls-3" d="M56.22,71.39l.2.74-.3.08a22.69,22.69,0,0,1-11.31.06c-.52-.13-.88.63-.38.89a15.34,15.34,0,0,0,4.74,1.55A32.62,32.62,0,0,0,33.37,93.3,123.84,123.84,0,0,0,14.88,78.46c10-.18,19.19-3.56,26.32-10.89A16.46,16.46,0,0,0,56.22,71.39Z"/><path class="cls-1" d="M66.65,5.62C56.39,12,47.9,23.82,47.27,35.43c-.76.42-1.47.85-2.15,1.31-3.24-7.1-16.22-9.54-23.06-9.12a26,26,0,0,0-15.35,6A64.35,64.35,0,0,1,25.55,8C38.64.53,53.33.66,66.65,5.62Z"/><path class="cls-2" d="M52.21,73.33c.53-.2.87.65.38.9l-.42.22c.51-.25.15-1.13-.4-.92a13.49,13.49,0,0,0-1.74.88l-.26,0C50.56,74,51.37,73.65,52.21,73.33Z"/><path class="cls-2" d="M51.77,73.53c.55-.21.91.67.4.92l-.1.06h0a12.44,12.44,0,0,1-2-.1A13.49,13.49,0,0,1,51.77,73.53Z"/><path class="cls-2" d="M52.06,74.51l-.16.09a2.29,2.29,0,0,0-.27.14h0C43.5,79.16,37.32,85.86,34.42,94.86a.76.76,0,0,1-1.25.33c-.15-.15-.3-.31-.46-.45l.27-.28,1.25-.33-.86-.83a32.62,32.62,0,0,1,15.8-18.59l.24,0,.62-.33A12.44,12.44,0,0,0,52.06,74.51Z"/><path d="M51.9,74.6l-.24.14h0A2.29,2.29,0,0,1,51.9,74.6Z"/><path class="cls-2" d="M49.77,74.39l.26,0-.62.33-.24,0C49.37,74.59,49.57,74.49,49.77,74.39Z"/><path d="M48.3,35.21l-.22.73-.21.11A6.73,6.73,0,0,0,48.3,35.21Z"/><path d="M47.87,36.05l.21-.11a3,3,0,0,1-.73,1c-.06,0-.11,0-.11,0S47.59,36.52,47.87,36.05Z"/><path d="M47.36,36.31l.51-.26c-.28.47-.59.94-.63.85s0,0,0,0A4.44,4.44,0,0,1,47.36,36.31Z"/><path d="M47.27,35.43l.39-.22c0,.11-.18.66-.3,1.1l-.12.06Z"/><path d="M47.35,36.91l.06.1a20.39,20.39,0,0,0-6.16,5.26,23.23,23.23,0,0,1-1.81,1.91,22.29,22.29,0,0,1,1.24-2.32,16.83,16.83,0,0,1,4-4.57.25.25,0,0,0,.32.07.36.36,0,0,0,.2-.47,1,1,0,0,0-.07-.15c.68-.46,1.39-.89,2.15-1.31l0,.94c0,.17,0,.33,0,.5,0,0,0,0,0,0S47.29,37,47.35,36.91Z"/><path d="M47.24,36.37l.12-.06a4.44,4.44,0,0,0-.13.56C47.23,36.7,47.23,36.54,47.24,36.37Z"/><path d="M45.19,36.89a.36.36,0,0,1-.2.47.25.25,0,0,1-.32-.07l.26-.2c.07-.05,0-.17-.08-.12l-.06,0-.21.14s0,0,0,0c.18-.14.36-.27.55-.39A1,1,0,0,1,45.19,36.89Z"/><path class="cls-2" d="M45.12,36.74c-.19.12-.37.25-.55.39-3-6.82-15.92-9.24-22.51-8.89A25,25,0,0,0,6.32,34.63l.39-1a26,26,0,0,1,15.35-6C28.9,27.2,41.88,29.64,45.12,36.74Z"/><path d="M44.85,37c.08,0,.15.07.08.12l-.26.2a.12.12,0,0,1-.05-.07.25.25,0,0,0,0-.07l.21-.14Z"/><path d="M44.62,37.22a.12.12,0,0,0,.05.07,16.83,16.83,0,0,0-4,4.57,19.46,19.46,0,0,0-1.61,2.31.88.88,0,0,0-.12.44c-.44.37-.8.58-.89.41l.24-.48c.73-1.27,2.42-3.4,3-4.27a16.46,16.46,0,0,1,2.9-2.83l.06,0,.37-.25A.25.25,0,0,1,44.62,37.22Z"/><path d="M44.57,37.13s0,0,0,0l-.37.25A4.22,4.22,0,0,1,44.57,37.13Z"/><path class="cls-3" d="M44.57,37.13a4.22,4.22,0,0,0-.36.27l-.06,0a19.51,19.51,0,0,0-5.85,7.1l-.24.48a25.4,25.4,0,0,0-2,5.85A59.69,59.69,0,0,1,19.8,46.59c-4.36-2-11.17-5.45-14.13-10.24.21-.58.42-1.15.65-1.72a25,25,0,0,1,15.74-6.39C28.65,27.89,41.52,30.31,44.57,37.13Z"/><path d="M44.15,37.44a16.46,16.46,0,0,0-2.9,2.83c-.53.87-2.22,3-3,4.27A19.51,19.51,0,0,1,44.15,37.44Z"/><path d="M41.27,66.48a.35.35,0,0,1,.5.5l-.57.59a7.13,7.13,0,0,1-.58-.53Z"/><path class="cls-2" d="M40.62,67a7.13,7.13,0,0,0,.58.53C34.07,74.9,24.89,78.28,14.88,78.46q-.89-.6-1.8-1.17v-.08C23.19,77.49,33,73.45,40.62,67Z"/><path d="M40.68,41.86a22.29,22.29,0,0,0-1.24,2.32,0,0,0,0,0,0,0l-.48.41a.88.88,0,0,1,.12-.44A19.46,19.46,0,0,1,40.68,41.86Z"/><path d="M39.43,44.2c-.13.27-.25.54-.36.82a.85.85,0,0,1-.12-.41Z"/><path d="M39,44.61a.85.85,0,0,0,.12.41,24.75,24.75,0,0,0-1.73,6.51l-.22,0a.41.41,0,0,0-.34-.53l-.71-.1a25.4,25.4,0,0,1,2-5.85C38.15,45.19,38.51,45,39,44.61Z"/><path d="M38.41,2.08a0,0,0,0,1,0,0A0,0,0,0,1,38.41,2.08Z"/><path d="M36.78,51a.41.41,0,0,1,.34.53.48.48,0,0,1-.47.44l-.78,0c.05-.34.12-.69.2-1Z"/><path class="cls-2" d="M36.07,50.87c-.08.34-.15.69-.2,1a44.28,44.28,0,0,1-21.53-7.18c-3.07-2-6.8-4.53-8.88-7.79l.21-.58c3,4.79,9.77,8.28,14.13,10.24A59.69,59.69,0,0,0,36.07,50.87Z"/><path class="cls-2" d="M34.23,94.13,33,94.46c.12-.39.25-.78.39-1.16Z"/><path class="cls-2" d="M33.37,93.3c-.14.38-.27.77-.39,1.16l-.27.28a121.7,121.7,0,0,0-20-16.2l.06-.09c.71,0,1.41,0,2.11,0A123.84,123.84,0,0,1,33.37,93.3Z"/><path d="M30.92,2.92A42.1,42.1,0,0,1,36.6,1.19,50.39,50.39,0,0,0,25.55,8c-.51.29-1,.6-1.53.91a1,1,0,0,1-1.45-.31A47.67,47.67,0,0,1,30.92,2.92Z"/><path d="M24,8.88c.51-.31,1-.62,1.53-.91A64.35,64.35,0,0,0,6.71,33.66,20.3,20.3,0,0,0,5,35.21a8,8,0,0,1-.39-1c3.86-9.86,9.93-19,17.92-25.68A1,1,0,0,0,24,8.88Z"/><path d="M22.86,6.9a46.36,46.36,0,0,1,8.06-4,47.67,47.67,0,0,0-8.35,5.65A1.12,1.12,0,0,1,22.86,6.9Z"/><path class="cls-2" d="M14.88,78.46c-.7,0-1.4,0-2.11,0,.1-.39.21-.77.31-1.16Q14,77.86,14.88,78.46Z"/><path class="cls-2" d="M13.08,77.21v.08c-.1.39-.21.77-.31,1.16l-.06.09-.26-.17a.63.63,0,0,1,.32-1.16C12.87,77.21,13,77.22,13.08,77.21Z"/><path d="M6.71,33.66l-.39,1a12.88,12.88,0,0,0-1.06,1c-.08-.15-.15-.3-.22-.45A20.3,20.3,0,0,1,6.71,33.66Z"/><path d="M6.32,34.63c-.23.57-.44,1.14-.65,1.72a6,6,0,0,1-.41-.69A12.88,12.88,0,0,1,6.32,34.63Z"/><path d="M5.67,36.35l-.21.58c-.19-.3-.37-.61-.53-.92a2.65,2.65,0,0,1,.33-.35A6,6,0,0,0,5.67,36.35Z"/><path d="M5,35.21c.07.15.14.3.22.45a2.65,2.65,0,0,0-.33.35c-.08-.15-.15-.3-.22-.45C4.81,35.44,4.92,35.33,5,35.21Z"/><path d="M5,35.21c-.12.12-.23.23-.33.35a6.07,6.07,0,0,1-.29-.7c.07-.2.15-.4.23-.61A8,8,0,0,0,5,35.21Z"/><path d="M4.71,35.56c.07.15.14.3.22.45a19.27,19.27,0,0,0-1.59,1.9c.14-.44.29-.88.45-1.31A12.68,12.68,0,0,1,4.71,35.56Z"/><path d="M4.42,34.86a6.07,6.07,0,0,0,.29.7,12.68,12.68,0,0,0-.92,1Q4.09,35.73,4.42,34.86Z"/><path class="cls-4" d="M85.8,65.65A55.15,55.15,0,0,1,62.17,85a56,56,0,0,1-8.26,2.76c-.29.07-.16.49.12.44,8-1.55,16.11-4,22.94-8.68a38.35,38.35,0,0,0,5.21-4.31l-.25-.25A84.6,84.6,0,0,1,69.81,86.44c-.17.14,0,.38.22.29l10.09-5.09-.25-.32A38.06,38.06,0,0,1,72.33,88a.2.2,0,0,0,.21.35c2.55-1.13,5.06-2.37,7.52-3.69.24-.13,0-.48-.21-.36l-9.22,5c-.21.11,0,.41.19.31a143.5,143.5,0,0,0,14.84-7.66l-.15-.2a49.25,49.25,0,0,1-23,11.47c-.14,0-.08.23,0,.2A51.18,51.18,0,0,0,85.69,81.92a.13.13,0,0,0-.16-.2,162.75,162.75,0,0,1-14.9,7.57l.19.31q4.62-2.46,9.24-4.94l-.21-.36q-3.69,2-7.52,3.7l.21.35a38,38,0,0,0,7.62-6.75.21.21,0,0,0-.25-.32L69.85,86.42l.22.28A90.33,90.33,0,0,0,82.18,75.18c.14-.17-.09-.4-.25-.25-5.84,5.72-13.48,9.17-21.28,11.29-2.23.6-4.47,1.09-6.74,1.51l.12.44A54.22,54.22,0,0,0,80.47,72.61a53.41,53.41,0,0,0,5.45-6.89c0-.07-.07-.14-.12-.07Z"/><path class="cls-4" d="M45.51,19.17a13.07,13.07,0,0,1-2,.6c-.59.2-1.18.41-1.75.66a18.73,18.73,0,0,0-3.27,1.83,19.86,19.86,0,0,0-5.13,5.21c-.1.15.14.28.23.14a20.84,20.84,0,0,1,5.17-5.26,24.72,24.72,0,0,1,3-1.75,18.88,18.88,0,0,1,1.78-.79,6.3,6.3,0,0,1,2-.55c.08,0,0-.13,0-.09Z"/><path class="cls-4" d="M21.46,49A12.4,12.4,0,0,0,18.85,59.4c.06.27.45.15.4-.11a13.4,13.4,0,0,1,2.39-10.18c.08-.11-.09-.24-.18-.14Z"/><path class="cls-4" d="M39.16,15.74c-1.66-.73-3.47.37-4.92,1.12a45.43,45.43,0,0,0-4.88,2.94,44.41,44.41,0,0,0-8.5,7.63c-.16.18.1.45.26.27a48.45,48.45,0,0,1,8-7.31,45.92,45.92,0,0,1,4.45-2.84c1.6-.89,3.7-2.34,5.6-1.76,0,0,0,0,0,0Z"/><path class="cls-4" d="M14.26,45a30.89,30.89,0,0,0-2.6,13.24.18.18,0,0,0,.36,0A42.49,42.49,0,0,1,14.36,45s-.08-.09-.1,0Z"/><path class="cls-4" d="M17.5,46.42a7.5,7.5,0,0,0-.9,1.87c-.29.72-.54,1.45-.76,2.18a27.84,27.84,0,0,0-.95,4.42c0,.23.37.28.4.06a33.15,33.15,0,0,1,.94-4.29c.21-.69.44-1.37.68-2a14.58,14.58,0,0,0,.77-2.09c0-.1-.11-.2-.18-.11Z"/><path class="cls-4" d="M32.1,21.64a24.87,24.87,0,0,0-7.31,5.82c-.1.12.06.29.17.17a28.18,28.18,0,0,1,7.2-5.89c.06,0,0-.14-.06-.1Z"/><path class="cls-4" d="M33.74,23.44A15.1,15.1,0,0,0,27,28.29c-.14.17.1.41.23.24a16.16,16.16,0,0,1,6.54-4.88c.13,0,.08-.26,0-.21Z"/><path class="cls-4" d="M20.64,46.49a48.36,48.36,0,0,0-3.2,8.63.18.18,0,0,0,.34.1,72.26,72.26,0,0,1,3-8.68c0-.07-.09-.12-.12,0Z"/></g></g></g></svg>