<svg xmlns="http://www.w3.org/2000/svg" viewBox="0 0 106.34 108.45"><defs><style>.cls-1{fill:#212121;}.cls-2{fill:#fff;}.cls-3{fill:#d64123;}.cls-4{fill:#ff4d00;}.cls-5{fill:#ff671d;}.cls-6{fill:#e04403;}.cls-7{fill:#aaa;}</style></defs><g id="Layer_2" data-name="Layer 2"><g id="dragzone_items"><g id="fireplace"><path d="M103.44,35.12c7.63,22.84,0,50.17-20.21,64-20,13.71-49.29,12.37-67.09-4.44A52.87,52.87,0,0,1,.9,47a.79.79,0,0,0,1.28-.2c.16-.35.31-.71.46-1.07-3.38,20.12,4.82,42.23,22.74,53,20.07,12.08,48.33,8.7,64.5-8.39s19.36-44.55,7.36-64.66C90.46,14.31,79.34,5.26,66.16,2.8A64.65,64.65,0,0,0,30.8,6.45c-16.86,7-21.59,24-28.16,39.26a50.58,50.58,0,0,1,4.48-14,.21.21,0,0,0-.36-.21A47.58,47.58,0,0,0,.9,47a.84.84,0,0,1-.31-.87c2.49-9.58,6-19,11.77-27.11C19.87,8.46,30.24,3.1,42.85,1.07c12.46-2,25.7-1.6,36.9,4.77A53.52,53.52,0,0,1,103.44,35.12Z"/><path class="cls-1" d="M97.24,25.67c12,20.11,8.73,47.65-7.36,64.66s-44.43,20.47-64.5,8.39C7.46,87.94-.74,65.83,2.64,45.71,9.21,30.48,13.94,13.49,30.8,6.45A64.65,64.65,0,0,1,66.16,2.8C79.34,5.26,90.46,14.31,97.24,25.67ZM86,36.74c0-3.4-3.27-5.22-5.09-7.94a.62.62,0,0,0-1.12.47,6.55,6.55,0,0,0,.43,1.21.52.52,0,0,0,.06.13,4.9,4.9,0,0,0,.43.75C82.49,35.51,76.21,41.9,74.1,45c-1.34,1.93-2.66,3.87-3.94,5.83a13.26,13.26,0,0,0-1.58-5.11C68.13,38.94,69,33,70.2,26.16c.69-3.85.16-7.72-3.66-9.53a.71.71,0,0,0-1,.42c-.76,3.38-1.48,7.09-3.36,10.05a18.45,18.45,0,0,1-4,4.32,17.46,17.46,0,0,1-2.92-5.93c-.83-4.33,2.43-6.7,2.72-10.57a5.56,5.56,0,0,0-1.5-4.51,7,7,0,0,0-4-4.48c-.13-.06-.29.1-.17.22a9.09,9.09,0,0,1,2.2,3.17,7.14,7.14,0,0,1,.31,1,6.92,6.92,0,0,1-1.37,6.1,14.6,14.6,0,0,1-2,2l-.71.63A9.94,9.94,0,0,0,48,22.2a4.81,4.81,0,0,0,.15,4.58c-.2,1.2-.37,2.4-.48,3.6-.07-.32-.15-.65-.24-1a22.69,22.69,0,0,0-3.23-7c-1.95-2.79-4.79-5-5.89-8.16a23.37,23.37,0,0,0-.44-3,.59.59,0,0,0,0-.13.5.5,0,0,0-1,.13c-.16,4.81,0,9.4-1,14.16A79.94,79.94,0,0,1,32.39,36a15.62,15.62,0,0,0-1,8.33c-.45-.61-.91-1.19-1.4-1.75-4.23-4.81-10.27-7.44-16-10a.33.33,0,0,0-.45.44c1.17,2.31,2.51,4.7,3.78,7.13a16.76,16.76,0,0,0,1,4.92c-.42,2.47-1.79,4.63-2.23,7.1a11.27,11.27,0,0,0,1.15,6.19c1.44,3.42,3.46,7.41,7.05,8.69.2.77.44,1.54.71,2.31a26.9,26.9,0,0,0,3.49,6.7c.31.45.65.88,1,1.3C33.33,82,38.69,85,45,84.36a.45.45,0,0,0,.33-.2,16.11,16.11,0,0,0,1.81,1.29c4.26,2.6,9.7.25,14.47-1.69a17.1,17.1,0,0,0,7.43-6c2.46-3.46,2-8.29,4.36-11.37,2-2.74,5.71-3.22,7.78-6.17S83.75,53.54,84.26,50C84.89,45.74,86,41.06,86,36.74Z"/><path class="cls-2" d="M80.94,28.8c1.82,2.72,5.1,4.54,5.09,7.94,0,4.32-1.14,9-1.77,13.3-.51,3.5-1,7.24-3.07,10.21s-5.73,3.43-7.78,6.17c-2.31,3.08-1.9,7.91-4.36,11.37a17.1,17.1,0,0,1-7.43,6c-4.77,1.94-10.21,4.29-14.47,1.69a16.11,16.11,0,0,1-1.81-1.29.43.43,0,0,0,0-.51c7.8,4.08,17.69.77,22.92-7.16,2.58-3.92,1.56-9.58,5.68-12.3,1.13-.74,2.52-1,3.64-1.82a11.46,11.46,0,0,0,4.32-6.3c1.24-3.64,1.41-7.53,1.78-11.33.31-3.24,1.59-7.57-.42-10.36-.2-.28-.4-.52-.59-.75a3.69,3.69,0,0,0-1.94-3.47.31.31,0,0,0-.46.32,6.55,6.55,0,0,1-.43-1.21A.62.62,0,0,1,80.94,28.8Z"/><path class="cls-3" d="M83.24,34.38c2,2.79.73,7.12.42,10.36-.37,3.8-.54,7.69-1.78,11.33a11.46,11.46,0,0,1-4.32,6.3c-1.12.77-2.51,1.08-3.64,1.82-4.12,2.72-3.1,8.38-5.68,12.3C63,84.42,53.12,87.73,45.32,83.65h0a.42.42,0,0,0-.21-.11L45,83.46a.14.14,0,0,0-.19.06,18.32,18.32,0,0,1-14.62-7.25,19.43,19.43,0,0,0,1.38-3.68c0-.17.08-.34.11-.51a.56.56,0,0,0,0-.12c0-.18.08-.36.11-.54a7.19,7.19,0,0,0,.15-.91c0-.13,0-.26.06-.39,0-.31.06-.61.08-.91a14.78,14.78,0,0,0,.05-1.76c0-.13,0-.25,0-.38A.3.3,0,0,0,32,66.9h0a21.8,21.8,0,0,0-4.32-10.58c-1.56-2.2-3.36-4.26-4.95-6.45a25.17,25.17,0,0,0-1.53-4.69c-.45-1-1-2-1.49-3-.43-.8-.89-1.58-1.34-2.37-.23-.4-.57-.87-.93-1.38a10.68,10.68,0,0,1-2-3.61c-.32-2,1.07-.48,2.61.28a49.76,49.76,0,0,1,4.84,2.7C31,43.05,32.83,50.19,36.14,58.37a15.54,15.54,0,0,0,1.42,8.5c4.41,8.71,20.33,9.75,26.52,2.7,3.45-3.92,5.93-11.35,6.14-16.63,3.67-4.7,7.19-9.54,10.44-14.51a10.41,10.41,0,0,0,2-4.8C82.84,33.86,83,34.1,83.24,34.38Z"/><path class="cls-2" d="M80.71,30.16a3.69,3.69,0,0,1,1.94,3.47,29.21,29.21,0,0,1-1.91-2.27,3.54,3.54,0,0,0-.43-.75.52.52,0,0,1-.06-.13A.31.31,0,0,1,80.71,30.16Z"/><path class="cls-2" d="M82.65,33.63a10.41,10.41,0,0,1-2,4.8c-3.25,5-6.77,9.81-10.44,14.51,0-.14,0-.29,0-.43a12.24,12.24,0,0,0-.08-1.72c1.28-2,2.6-3.9,3.94-5.83,2.11-3.06,8.39-9.45,6.64-13.6A29.21,29.21,0,0,0,82.65,33.63Z"/><path d="M80.31,30.61a3.54,3.54,0,0,1,.43.75A4.9,4.9,0,0,1,80.31,30.61Z"/><path class="cls-2" d="M66.54,16.63c3.82,1.81,4.35,5.68,3.66,9.53C69,33,68.13,38.94,68.58,45.68a13.51,13.51,0,0,0-2.5-3.29A38.42,38.42,0,0,1,67.46,29.9c.51-1.87,1.43-3.79,1.47-5.76q1-3.12-2.35-5.19c-.13.77-.29,1.54-.48,2.3A20,20,0,0,1,63,28.46a16.22,16.22,0,0,1-4.26,3.85l-.57-.89a18.45,18.45,0,0,0,4-4.32c1.88-3,2.6-6.67,3.36-10A.71.71,0,0,1,66.54,16.63Z"/><path d="M70.16,50.79a12.24,12.24,0,0,1,.08,1.72c0,.14,0,.29,0,.43q-1,1.28-2,2.52c0-.59.05-1.17,0-1.75C68.9,52.73,69.52,51.76,70.16,50.79Z"/><path d="M68.24,55.46q1-1.24,2-2.52c-.21,5.28-2.69,12.71-6.14,16.63-6.19,7.05-22.11,6-26.52-2.7a15.54,15.54,0,0,1-1.42-8.5l.54,1.3c.18.43.74.14.74-.24h.15c0,4,1.59,7.85,5,10.05C49.79,74.18,61.36,73,65.49,65A25.42,25.42,0,0,0,68.24,55.46Z"/><path d="M70.16,50.79c-.64,1-1.26,1.94-1.88,2.92a15.84,15.84,0,0,0-.71-4.59.87.87,0,0,0,1.24-.82c-.1-.89-.18-1.76-.23-2.62A13.26,13.26,0,0,1,70.16,50.79Z"/><path class="cls-4" d="M66.58,19q3.35,2.07,2.35,5.19c0,2-1,3.89-1.47,5.76a38.42,38.42,0,0,0-1.38,12.49,14.14,14.14,0,0,0-2.86-2.14,16.63,16.63,0,0,0-12.89-1.5,6.28,6.28,0,0,1,1-1.35,25.87,25.87,0,0,1,4.9-3.56c.82-.5,1.64-1,2.44-1.53A16.22,16.22,0,0,0,63,28.46a20,20,0,0,0,3.14-7.21C66.29,20.49,66.45,19.72,66.58,19Z"/><path d="M68.81,48.3a.87.87,0,0,1-1.24.82,11.81,11.81,0,0,0-.88-2.07,0,0,0,0,1,0,0,32.77,32.77,0,0,1-.6-4.63,13.51,13.51,0,0,1,2.5,3.29C68.63,46.54,68.71,47.41,68.81,48.3Z"/><path d="M66.08,42.39a32.77,32.77,0,0,0,.6,4.63,11.84,11.84,0,0,0-7.8-5.84,14.64,14.64,0,0,0-10,.8,26.45,26.45,0,0,1,1.43-3.23,16.63,16.63,0,0,1,12.89,1.5A14.14,14.14,0,0,1,66.08,42.39Z"/><path class="cls-2" d="M58.13,31.42l.57.89c-.8.53-1.62,1-2.44,1.53-.15-.21-.3-.43-.44-.65C56.6,32.61,57.38,32,58.13,31.42Z"/><path class="cls-2" d="M56.43,10.41a5.56,5.56,0,0,1,1.5,4.51c-.29,3.87-3.55,6.24-2.72,10.57a17.46,17.46,0,0,0,2.92,5.93c-.75.61-1.53,1.19-2.31,1.77a18.43,18.43,0,0,1-3.39-8.59c-.11-1.62,1.24-4.46,2.28-7.24a6.9,6.9,0,0,0,.77-.9A7.28,7.28,0,0,0,56.7,13,7.2,7.2,0,0,0,56.43,10.41Z"/><path class="cls-2" d="M56.43,10.41A7.2,7.2,0,0,1,56.7,13a7.28,7.28,0,0,1-1.22,3.46,6.9,6.9,0,0,1-.77.9c1.11-3,1.85-5.84.07-7.08a7.14,7.14,0,0,0-.31-1A4.12,4.12,0,0,1,56.43,10.41Z"/><path class="cls-2" d="M55.82,33.19c.14.22.29.44.44.65a25.87,25.87,0,0,0-4.9,3.56,6.28,6.28,0,0,0-1,1.35q-.7.2-1.41.45a6,6,0,0,1,.71-1,37.53,37.53,0,0,1,4.77-3.92Z"/><path class="cls-5" d="M55.82,33.19,54.4,34.26a37.53,37.53,0,0,0-4.77,3.92,6,6,0,0,0-.71,1l-.3.11c.26-3.82.57-7.61,1.05-11.36l.09-.73,0-.22c.26-2,.58-4,1-5.92,1.26-1.4,2.87-2.68,3.91-3.72-1,2.78-2.39,5.62-2.28,7.24A18.43,18.43,0,0,0,55.82,33.19Z"/><path class="cls-2" d="M54.78,10.28c1.78,1.24,1,4.12-.07,7.08-1,1-2.65,2.32-3.91,3.72.18-.92.4-1.83.64-2.74a14.6,14.6,0,0,0,2-2A6.92,6.92,0,0,0,54.78,10.28Z"/><path class="cls-2" d="M56.43,10.41a4.12,4.12,0,0,0-2-1.09,9.09,9.09,0,0,0-2.2-3.17c-.12-.12,0-.28.17-.22A7,7,0,0,1,56.43,10.41Z"/><path class="cls-2" d="M50.73,19l.71-.63c-.24.91-.46,1.82-.64,2.74a9.67,9.67,0,0,0-1.12,1.44C50,21.33,50.34,20.15,50.73,19Z"/><path class="cls-2" d="M50.73,19c-.39,1.18-.74,2.36-1,3.55A3.81,3.81,0,0,0,49,25.58c-.07.39-.15.78-.21,1.17a4.1,4.1,0,0,1-.53-.36l-.06.39A4.81,4.81,0,0,1,48,22.2,9.94,9.94,0,0,1,50.73,19Z"/><path class="cls-2" d="M50.8,21.08c-.43,2-.75,3.94-1,5.92A3.53,3.53,0,0,1,49,25.58c.2-1,.44-2,.71-3.06A9.67,9.67,0,0,1,50.8,21.08Z"/><path class="cls-2" d="M49.79,27l0,.22a5.76,5.76,0,0,1-1-.47c.06-.39.14-.78.21-1.17A3.53,3.53,0,0,0,49.79,27Z"/><path class="cls-2" d="M49.76,27.22l-.09.73a3.47,3.47,0,0,1-1-.6c0-.2.06-.4.1-.6A5.76,5.76,0,0,0,49.76,27.22Z"/><path d="M48.92,39.2q.7-.26,1.41-.45A26.45,26.45,0,0,0,48.9,42a17.4,17.4,0,0,0-2,1.06c.12-.31.23-.63.32-.95.3-.45.59-1,.87-1.46a.36.36,0,0,0,.46-.32c0-.18,0-.36,0-.54S48.81,39.38,48.92,39.2Z"/><path class="cls-5" d="M49.68,22.52c-.27,1-.51,2-.71,3.06A3.81,3.81,0,0,1,49.68,22.52Z"/><path d="M48.62,39.31l.3-.11q-.16.27-.33.57Z"/><path class="cls-2" d="M48.66,27.35a3.47,3.47,0,0,0,1,.6c-.48,3.75-.79,7.54-1.05,11.36-.26.1-.52.2-.78.32a19.29,19.29,0,0,0,.39-3.55,21.09,21.09,0,0,0-.07-2.75,23,23,0,0,0-.47-2.94h0c.11-1.2.28-2.4.48-3.6A3,3,0,0,0,48.66,27.35Z"/><path class="cls-2" d="M48.76,26.75c0,.2-.07.4-.1.6a3,3,0,0,1-.49-.57l.06-.39A4.1,4.1,0,0,0,48.76,26.75Z"/><path d="M48.62,39.31l0,.46c-.16.28-.32.57-.5.86a.37.37,0,0,1-.33-.32c0-.06,0-.11,0-.17s.07-.34.1-.51C48.1,39.51,48.36,39.41,48.62,39.31Z"/><path d="M48.59,39.77c0,.18,0,.36,0,.54a.36.36,0,0,1-.46.32C48.27,40.34,48.43,40.05,48.59,39.77Z"/><path class="cls-2" d="M48.16,33.33a21.09,21.09,0,0,1,.07,2.75C48.17,35.16,48.15,34.24,48.16,33.33Z"/><path class="cls-2" d="M48.16,33.33c0,.91,0,1.83.07,2.75a19.29,19.29,0,0,1-.39,3.55l-.15.07c0-.42-.09-.85-.12-1.28a26.74,26.74,0,0,0-.1-3.79c0-1.42.08-2.83.22-4.24A23,23,0,0,1,48.16,33.33Z"/><path d="M47.84,39.63c0,.17-.06.34-.1.51,0-.15,0-.29-.05-.44Z"/><path d="M47.76,40.31a.37.37,0,0,0,.33.32c-.28.5-.57,1-.87,1.46a18.67,18.67,0,0,0,.52-2C47.75,40.2,47.75,40.25,47.76,40.31Z"/><path d="M47.69,39.7c0,.15,0,.29.05.44a18.67,18.67,0,0,1-.52,2c-.6.91-1.21,1.6-1.76,1.57l.14.25c-.32.22-.63.46-.93.7a.59.59,0,0,1,0-.37,32.72,32.72,0,0,0,1.19-3.63A18,18,0,0,1,47.69,39.7Z"/><path class="cls-2" d="M47.69,30.38h0c-.14,1.41-.21,2.82-.22,4.24a26.74,26.74,0,0,1,.1,3.79c0,.43.07.86.12,1.28a18,18,0,0,0-1.81.91,22.06,22.06,0,0,0-2.07-17.09c-1.59-2.69-3.87-4.85-5.37-7.42,0-.62,0-1.24-.11-1.86,1.1,3.13,3.94,5.37,5.89,8.16a22.69,22.69,0,0,1,3.23,7C47.54,29.73,47.62,30.06,47.69,30.38Z"/><path d="M47.22,42.09c-.09.32-.2.64-.32.95-.45.27-.88.56-1.3.87l-.14-.25C46,43.69,46.62,43,47.22,42.09Z"/><path class="cls-6" d="M43.81,23.52a22.06,22.06,0,0,1,2.07,17.09c-3.89,2.2-7.94,8.82-9.76,13.29A34.88,34.88,0,0,0,33,46.82c-2-6.51,1.74-11.88,3.66-18.41A40.56,40.56,0,0,0,38.44,16.1C39.94,18.67,42.22,20.83,43.81,23.52Z"/><path d="M45.88,40.61a32.72,32.72,0,0,1-1.19,3.63H44.3a.78.78,0,0,1-.63-.33c-.23.09-.14.48-.05.85A10,10,0,0,0,40,48.71,16.19,16.19,0,0,0,37.9,52a16.94,16.94,0,0,0-1.25,3.45h-.08c-.14-.52-.29-1-.45-1.55C37.94,49.43,42,42.81,45.88,40.61Z"/><path class="cls-2" d="M45.32,83.65a.43.43,0,0,1,0,.51l-.55-.48a.12.12,0,0,1,0-.16h.34a.71.71,0,0,0,.21.11Z"/><path class="cls-2" d="M44.79,83.68l.55.48a.45.45,0,0,1-.33.2c-6.32.65-11.68-2.41-15.45-7,.21-.36.41-.72.59-1.09a18.32,18.32,0,0,0,14.62,7.25A.12.12,0,0,0,44.79,83.68Z"/><path d="M45.32,83.64a.71.71,0,0,1-.21-.11A.42.42,0,0,1,45.32,83.64Z"/><path d="M45.11,83.53h-.34a.14.14,0,0,1,.19-.06Z"/><path d="M44.69,44.24a.59.59,0,0,0,0,.37c-.36.28-.71.59-1.05.89.12-.15.06-.44,0-.73A7.1,7.1,0,0,1,44.69,44.24Z"/><path d="M44.3,44.25h.39a7.1,7.1,0,0,0-1.07.53c-.09-.37-.18-.76.05-.85A.78.78,0,0,0,44.3,44.25Z"/><path d="M43.62,44.77c.06.29.12.58,0,.73a.17.17,0,0,1-.06.06,1.5,1.5,0,0,0-.23.15,13,13,0,0,0-3.37,3A10,10,0,0,1,43.62,44.77Z"/><path d="M43.33,45.71a1.5,1.5,0,0,1,.23-.15,28.23,28.23,0,0,0-2.47,2.54A9.86,9.86,0,0,1,43.33,45.71Z"/><path d="M43.33,45.71a9.86,9.86,0,0,0-2.24,2.39c-.71.8-1.37,1.64-2,2.49A15.45,15.45,0,0,1,40,48.71,13,13,0,0,1,43.33,45.71Z"/><path d="M41.09,48.1a37.36,37.36,0,0,0-2.63,4.36,18.62,18.62,0,0,1,.62-1.87C39.72,49.74,40.38,48.9,41.09,48.1Z"/><path d="M40,48.71a15.45,15.45,0,0,0-.88,1.88c-.27.37-.53.74-.79,1.12a.81.81,0,0,1-.39.3A16.19,16.19,0,0,1,40,48.71Z"/><path d="M38.29,51.71c.26-.38.52-.75.79-1.12a18.62,18.62,0,0,0-.62,1.87c-.59,1.11-1.09,2.15-1.46,2.94a1,1,0,0,1-.35.06A16.94,16.94,0,0,1,37.9,52,.81.81,0,0,0,38.29,51.71Z"/><path class="cls-2" d="M38.44,16.1a40.56,40.56,0,0,1-1.76,12.31C34.76,34.94,31,40.31,33,46.82a27,27,0,0,0-1.59-2.45,15.62,15.62,0,0,1,1-8.33,79.94,79.94,0,0,0,3.48-10.66c1-4.76.86-9.35,1-14.16A10.49,10.49,0,0,0,38.44,16.1Z"/><path class="cls-2" d="M38.33,14.24c.06.62.1,1.24.11,1.86a10.49,10.49,0,0,1-1.55-4.88h1A8,8,0,0,0,38.33,14.24Z"/><path class="cls-2" d="M37.89,11.22a23.37,23.37,0,0,1,.44,3A8,8,0,0,1,37.89,11.22Z"/><path class="cls-2" d="M37.87,11.09a.59.59,0,0,1,0,.13h-1A.5.5,0,0,1,37.87,11.09Z"/><path d="M38.46,52.46a25.4,25.4,0,0,0-.89,7h-.15s0,0,0-.07a37.12,37.12,0,0,0-.8-3.76.74.74,0,0,1,0-.14A1,1,0,0,0,37,55.4C37.37,54.61,37.87,53.57,38.46,52.46Z"/><path d="M37.41,59.36s0,0,0,.07c0,.38-.56.67-.74.24l-.54-1.3a17.24,17.24,0,0,1,.47-2.77A37.12,37.12,0,0,1,37.41,59.36Z"/><path class="cls-2" d="M36.57,55.45s0,.1,0,.15a17.24,17.24,0,0,0-.47,2.77C32.83,50.19,31,43.05,22.89,37.82a49.76,49.76,0,0,0-4.84-2.7c-1.54-.76-2.93-2.29-2.61-.28a10.68,10.68,0,0,0,2,3.61.42.42,0,0,0-.09.25,14,14,0,0,0,0,1.45c-1.27-2.43-2.61-4.82-3.78-7.13a.33.33,0,0,1,.45-.44c5.7,2.6,11.74,5.23,16,10,.49.56.95,1.14,1.4,1.75A10.89,10.89,0,0,0,34,49.49c.06.06.15,0,.11-.09A14.65,14.65,0,0,1,33,46.82a34.88,34.88,0,0,1,3.1,7.08c-.08.19-.16.38-.23.57A.71.71,0,0,0,36.57,55.45Z"/><path class="cls-2" d="M36.12,53.9c.16.52.31,1,.45,1.55a.71.71,0,0,1-.68-1C36,54.28,36,54.09,36.12,53.9Z"/><path class="cls-2" d="M34.1,49.4c0,.07-.05.15-.11.09a10.89,10.89,0,0,1-2.56-5.12A27,27,0,0,1,33,46.82,14.65,14.65,0,0,0,34.1,49.4Z"/><path d="M32.13,67.45a14.78,14.78,0,0,1-.05,1.76c0-.33,0-.66,0-1S32.13,67.7,32.13,67.45Z"/><path d="M32.12,67.07c0,.13,0,.25,0,.38s0,.51,0,.77q0-.66-.06-1.32A.3.3,0,0,1,32.12,67.07Z"/><path class="cls-2" d="M32.1,68.22c0,.33,0,.66,0,1s0,.6-.08.91c0,.13,0,.26-.06.39,0,.3-.09.61-.15.91s-.09.44-.15.66a1,1,0,0,1-.43.62h0A26.75,26.75,0,0,0,32.1,68.22Z"/><path class="cls-2" d="M32,66.9q.06.66.06,1.32a26.75,26.75,0,0,1-.91,4.48,1.3,1.3,0,0,1-1-.29c.24-.65.46-1.31.66-2-.08.53-.47,1.72-.13,2,.63-1.72.6-3.51,1-5.4A.22.22,0,0,1,32,66.9Z"/><path d="M31.94,70.51c0-.13,0-.26.06-.39C32,70.25,32,70.38,31.94,70.51Z"/><path class="cls-2" d="M32,66.9a.22.22,0,0,0-.37.11c-.23,1.17-.52,2.3-.85,3.39,1-6.6-3.77-11-7.32-16.23a42,42,0,0,0-.73-4.3c1.59,2.19,3.39,4.25,4.95,6.45A21.8,21.8,0,0,1,32,66.9Z"/><path d="M31.79,71.42c.06-.3.11-.61.15-.91A7.19,7.19,0,0,1,31.79,71.42Z"/><path d="M31.79,71.42c0,.18-.07.36-.11.54a.56.56,0,0,1,0,.12Q31.73,71.75,31.79,71.42Z"/><path d="M31.64,72.08c0,.17-.07.34-.11.51a.94.94,0,0,1-.32.11A1,1,0,0,0,31.64,72.08Z"/><path class="cls-2" d="M31.21,72.7a.94.94,0,0,0,.32-.11,19.43,19.43,0,0,1-1.38,3.68c-.36-.45-.7-.91-1-1.39.38-.81.72-1.63,1-2.47a1.3,1.3,0,0,0,1,.29h0Z"/><path d="M31.21,72.7h0Z"/><path class="cls-2" d="M30.81,70.4c.33-1.09.62-2.22.85-3.39-.38,1.89-.35,3.68-1,5.4-.34-.27.05-1.46.13-2Z"/><path class="cls-5" d="M23.49,54.17C27,59.39,31.77,63.8,30.81,70.4v0c-.2.68-.42,1.34-.66,2-.31.84-.65,1.66-1,2.47a28,28,0,0,1-3.59-7.51c0-.11-.07-.22-.1-.33s-.05-.16-.07-.24C24.15,62.61,24,58.36,23.49,54.17Z"/><path class="cls-2" d="M30.15,76.27c-.18.37-.38.73-.59,1.09-.35-.42-.69-.85-1-1.3.2-.39.39-.78.56-1.18C29.45,75.36,29.79,75.82,30.15,76.27Z"/><path class="cls-2" d="M29.12,74.88c-.17.4-.36.79-.56,1.18a26.9,26.9,0,0,1-3.49-6.7c-.27-.77-.51-1.54-.71-2.31a6.3,6.3,0,0,0,1.17.32A28,28,0,0,0,29.12,74.88Z"/><path class="cls-2" d="M25.43,67c0,.11.07.22.1.33a6.3,6.3,0,0,1-1.17-.32c-.11-.37-.2-.74-.28-1.11A13.2,13.2,0,0,0,25.43,67Z"/><path class="cls-2" d="M25.36,66.8c0,.08.05.16.07.24a13.2,13.2,0,0,1-1.35-1.1c-1.08-4.66-1.21-9.37-2.15-14.1.51.78,1,1.56,1.56,2.33C24,58.36,24.15,62.61,25.36,66.8Z"/><path class="cls-2" d="M24.08,65.94c.08.37.17.74.28,1.11-3.59-1.28-5.61-5.27-7-8.69a11.27,11.27,0,0,1-1.15-6.19c.44-2.47,1.81-4.63,2.23-7.1A26.08,26.08,0,0,0,20,48.57c-.8,1.87-2.27,4.41-2.2,6.47.05,1.76,1.46,4,2.29,5.5A20.67,20.67,0,0,0,24.08,65.94Z"/><path class="cls-5" d="M21.93,51.84c.94,4.73,1.07,9.44,2.15,14.1a20.67,20.67,0,0,1-4-5.4c-.83-1.5-2.24-3.74-2.29-5.5-.07-2.06,1.4-4.6,2.2-6.47C20.57,49.68,21.24,50.76,21.93,51.84Z"/><path class="cls-2" d="M22.76,49.87a42,42,0,0,1,.73,4.3c-.52-.77-1-1.55-1.56-2.33,0-.14-.05-.27-.08-.41a31.17,31.17,0,0,0-1.33-4.5,5.24,5.24,0,0,0,.08-.53,9.9,9.9,0,0,0,.58,1.12C21.67,48.33,22.2,49.11,22.76,49.87Z"/><path class="cls-2" d="M22.76,49.87c-.56-.76-1.09-1.54-1.58-2.35a9.9,9.9,0,0,1-.58-1.12,7.66,7.66,0,0,0-.86-4.2c.53,1,1,2,1.49,3A25.17,25.17,0,0,1,22.76,49.87Z"/><path class="cls-2" d="M21.85,51.43c0,.14.06.27.08.41-.69-1.08-1.36-2.16-2-3.27a1.42,1.42,0,0,0,.08-.18,8.45,8.45,0,0,0,.47-1.46A31.17,31.17,0,0,1,21.85,51.43Z"/><path class="cls-2" d="M19.74,42.2a7.66,7.66,0,0,1,.86,4.2c-.71-1.54-1.15-3.24-2-4.64a10.25,10.25,0,0,0-.82-1.35c0,.08.31.8.51,1.59-.3-.62-.62-1.24-.94-1.85a14,14,0,0,1,0-1.45.42.42,0,0,1,.09-.25c.36.51.7,1,.93,1.38C18.85,40.62,19.31,41.4,19.74,42.2Z"/><path class="cls-2" d="M20.6,46.4a5.24,5.24,0,0,1-.08.53A53.7,53.7,0,0,0,18.33,42c-.2-.79-.51-1.51-.51-1.59a10.25,10.25,0,0,1,.82,1.35C19.45,43.16,19.89,44.86,20.6,46.4Z"/><path class="cls-2" d="M20.52,46.93a8.45,8.45,0,0,1-.47,1.46,1.42,1.42,0,0,1-.08.18,26.08,26.08,0,0,1-1.58-3.5,7.59,7.59,0,0,0,.08-2.34,6.26,6.26,0,0,0-.14-.73A53.7,53.7,0,0,1,20.52,46.93Z"/><path class="cls-2" d="M18.47,42.73a7.59,7.59,0,0,1-.08,2.34,16.76,16.76,0,0,1-1-4.92c.32.61.64,1.23.94,1.85A6.26,6.26,0,0,1,18.47,42.73Z"/><path d="M6.76,31.51a.21.21,0,0,1,.36.21,50.58,50.58,0,0,0-4.48,14c-.15.36-.3.72-.46,1.07A.79.79,0,0,1,.9,47,47.58,47.58,0,0,1,6.76,31.51Z"/><path class="cls-7" d="M19.55,86.37A39.48,39.48,0,0,0,40.38,98.64c.31.06.45-.42.13-.49a38.87,38.87,0,0,1-20.77-12c-.11-.12-.3.06-.19.18Z"/><path class="cls-7" d="M20.48,82.87A41.3,41.3,0,0,0,40,97a36.71,36.71,0,0,0,6.85,1.63c.29,0,.43-.4.13-.45A42.06,42.06,0,0,1,25.39,87.94a38,38,0,0,1-4.75-5.16c-.07-.1-.24,0-.16.09Z"/><path class="cls-7" d="M28.17,83.44a14.75,14.75,0,0,1,.73,1.78,13.62,13.62,0,0,0,.85,1.54,15,15,0,0,0,2.31,2.78,14.66,14.66,0,0,0,6.2,3.52.24.24,0,0,0,.23-.4,28.3,28.3,0,0,0-7-5.75c-.26-.15-.58.23-.34.43a27.26,27.26,0,0,0,7.37,4.39c.23.09.4-.17.36-.36a7,7,0,0,0-1.55-3.23l-.29.5,3.06.84a.28.28,0,0,0,.14-.54c-1-.3-2-.59-3-.87a.3.3,0,0,0-.29.49,6.46,6.46,0,0,1,1.41,3l.36-.36A26.5,26.5,0,0,1,31.53,87l-.33.44a28.52,28.52,0,0,1,7,5.6l.22-.39a14.48,14.48,0,0,1-6.14-3.25,14.69,14.69,0,0,1-2.3-2.61,14.48,14.48,0,0,1-.86-1.42,5.56,5.56,0,0,1-.82-1.91c0-.09-.13,0-.09,0Z"/><path class="cls-7" d="M91.51,49.83A38,38,0,0,1,79.79,79.45a35,35,0,0,1-7.47,5.44.33.33,0,0,0,.33.57A38,38,0,0,0,91.33,59.1a36,36,0,0,0,.43-9.27c0-.16-.26-.16-.25,0Z"/><path class="cls-7" d="M95.64,61c-1.45,7.88-4.19,15.76-9.84,21.64a26.14,26.14,0,0,1-4.91,4c-.25.16,0,.55.22.39,6.79-4.09,11-11.26,13.15-18.74A58.39,58.39,0,0,0,95.83,61c0-.12-.16-.17-.19-.05Z"/><path class="cls-7" d="M93.05,62.69A28.25,28.25,0,0,1,82.51,80.48c-.25.2.1.55.35.35A28.38,28.38,0,0,0,93.15,62.72c0-.07-.09-.1-.1,0Z"/></g></g></g></svg>