<svg xmlns="http://www.w3.org/2000/svg" viewBox="0 0 110.02 107.23"><defs><style>.cls-1{fill:#212121;}.cls-2{fill:#fff;}.cls-3{fill:#5d9abd;}.cls-4{fill:#aaa;}</style></defs><g id="Layer_2" data-name="Layer 2"><g id="dragzone_items"><g id="rain"><path class="cls-1" d="M73,5.06c22.67,7.42,39.45,31.2,34.22,55.32-2.44,11.24-6.53,21.73-14.52,30.2-8.43,8.94-19.08,13.53-31.26,14.54-11.89,1-26,0-36.48-6.11-9.68-5.59-16.16-15-19.8-25.37-7.61-21.73-2-45.22,15.24-59.71C36,3.69,54-1.16,73,5.06Zm27.68,53.17c1.75-.8,1.68-3.11,1.06-4.64a16.55,16.55,0,0,0-2-3.08,9.08,9.08,0,0,0-2.27-2.79.48.48,0,0,0-.69.53,4.49,4.49,0,0,0,.71,1.31l-.16-.07s0,0,0,0c-.12,1.35.64,2.61.6,4,0,1.06-.44,2.16-.19,3.22A2,2,0,0,0,100.67,58.23ZM88,75c4.31-2.59-1.73-8.67-3.62-10.86-.32-.37-.89.11-.66.51.34.62.69,1.22,1.06,1.81a.61.61,0,0,0-.93.66,18,18,0,0,1,.67,4.62,5.14,5.14,0,0,0,.22,2.67C85.42,75.7,86.89,75.68,88,75ZM83.36,36.7a2,2,0,0,0,1.24-2.9,17.2,17.2,0,0,0-2.36-3.09,31.16,31.16,0,0,0-3-3.47.47.47,0,0,0-.79.4.53.53,0,0,0,0,1c1.59.46,1.31,3.47,1.11,4.7a3.81,3.81,0,0,0,0,2.36C80.2,37,82.11,37.13,83.36,36.7ZM69.88,73c8.16-8.27,6.27-24.21-2.09-31.61-7.57-6.72-20.26-6.91-27.53.07a18.11,18.11,0,0,0-6.42,8.16,19.5,19.5,0,0,0,1.62,17.26C41.88,77.34,60.52,82.5,69.88,73ZM67.42,92.09c1.13-1.35.52-3.61-.44-4.86a9.56,9.56,0,0,0-2.18-1.88,13.47,13.47,0,0,1-3.59-3.47c-.17-.24-.7-.2-.65.18a3.68,3.68,0,0,0,1.23,2.26.46.46,0,0,0-.28.61A17,17,0,0,1,62.1,90,3.31,3.31,0,0,0,63,92.25,3.11,3.11,0,0,0,67.42,92.09ZM64.56,20.77c.14-2-1.34-3.41-3-4.28a.21.21,0,0,0-.31.19l-.64.08c-.32-1.5-1.16-3.08-2.65-3.53,0,0,0,0,0,0a23.8,23.8,0,0,1,1.5,3.24c.41,1.58-.12,2.84-.16,4.4A2.43,2.43,0,0,0,62,23.54,2.86,2.86,0,0,0,64.56,20.77Zm-31.81,64c1.3-1.15,1.06-3,.4-4.44a9.11,9.11,0,0,0-2-2.79c-1.19-1.13-3.29-2-3.1-3.9.06-.69-1-.81-1.2-.16-.48,1.78.49,2.8,1.65,3.76a.09.09,0,0,0,0,0C28.62,78.79,28.62,88.39,32.75,84.76Zm-5.19-57a3.41,3.41,0,0,0,1.17-4.28,6.31,6.31,0,0,0-2.14-2.71c-1.1-.87-3.08-1.59-3.74-2.87a.4.4,0,0,0-.73.31.88.88,0,0,1,.05.15.29.29,0,0,0,0,.35,7.12,7.12,0,0,1,1.48,5.5A4.86,4.86,0,0,0,24,27,2.54,2.54,0,0,0,27.56,27.72Zm-12,22.05c1.6-.28,2.19-1.91,2-3.37a9.5,9.5,0,0,0-1-2.86,20.67,20.67,0,0,1-1.37-4.95c-.15-.84-1.49-.63-1.48.2a10.65,10.65,0,0,0,.78,3.75,9.14,9.14,0,0,1-.31,1.54c-.35,1.22-1.17,2.44-1.07,3.75A2,2,0,0,0,15.58,49.77Z"/><path d="M107.21,60.38C112.44,36.26,95.66,12.48,73,5.06c-19-6.22-37-1.37-52.6,8.87a53.79,53.79,0,0,1,6.79-4.88.26.26,0,0,0-.26-.45A49.88,49.88,0,0,0,13.47,19c-1.59,1.26-3.16,2.58-4.69,3.95a.89.89,0,0,1-1.26-1.26C25.71,0,59.38-6.67,84,7.37A52.8,52.8,0,0,1,107,34.2c4.48,11.61,3.56,22.95-.1,34.61-3.73,11.88-10.16,22.46-20.47,29.81-9.91,7.06-22.54,9-34.46,8.55-12.74-.51-25.32-3.23-35-12C8.72,87.7,3.68,77.07,1.32,66.3-2.47,49,2,31.38,13.47,19c2.25-1.79,4.55-3.47,6.92-5C3.15,28.42-2.46,51.91,5.15,73.64,8.79,84.05,15.27,93.42,25,99c10.51,6.07,24.59,7.1,36.48,6.11,12.18-1,22.83-5.6,31.26-14.54C100.68,82.11,104.77,71.62,107.21,60.38Z"/><path class="cls-2" d="M101.73,53.59c.62,1.53.69,3.84-1.06,4.64a2,2,0,0,1-2.93-1.51c-.25-1.06.16-2.16.19-3.22,0-1.38-.72-2.64-.6-4,0,0,0,0,0,0l.16.07a4.49,4.49,0,0,1-.71-1.31.48.48,0,0,1,.69-.53,9.08,9.08,0,0,1,2.27,2.79A16.55,16.55,0,0,1,101.73,53.59ZM98.81,56.1c2,0,2.78-.6,2.25-1.74a8,8,0,0,0-1.71-2.69c-.17-.21-.35-.42-.54-.62a2.38,2.38,0,0,0-1.28-1.48c.38.52.85,1,1.28,1.48a8.85,8.85,0,0,1,.13,4A8.25,8.25,0,0,0,98.81,56.1Z"/><path class="cls-3" d="M101.06,54.36c.53,1.14-.23,1.72-2.25,1.74a8.25,8.25,0,0,1,.13-1.1,8.85,8.85,0,0,0-.13-4c.19.2.37.41.54.62A8,8,0,0,1,101.06,54.36Z"/><path class="cls-2" d="M98.81,51.05c-.43-.49-.9-1-1.28-1.48A2.38,2.38,0,0,1,98.81,51.05Z"/><path class="cls-2" d="M84.4,64.14C86.29,66.33,92.33,72.41,88,75c-1.13.68-2.6.7-3.26-.59a5.14,5.14,0,0,1-.22-2.67,18,18,0,0,0-.67-4.62.61.61,0,0,1,.93-.66c-.37-.59-.72-1.19-1.06-1.81C83.51,64.25,84.08,63.77,84.4,64.14Zm3.67,8.56a1.7,1.7,0,0,0-.35-1.92,22.23,22.23,0,0,0-1.32-1.9c-.35-.5-.69-1-1-1.51a7.11,7.11,0,0,1,.6,2.27c.1.93-.48,3.16,0,4Q88.71,75.31,88.07,72.7Zm-2.7-5.35a5.38,5.38,0,0,0-.39-.7.46.46,0,0,0-.17-.17C85,66.78,85.18,67.06,85.37,67.35Z"/><path class="cls-3" d="M87.72,70.78a1.7,1.7,0,0,1,.35,1.92q.65,2.61-2.12.9c-.45-.8.13-3,0-4a7.11,7.11,0,0,0-.6-2.27c.33.51.67,1,1,1.51A22.23,22.23,0,0,1,87.72,70.78Z"/><path d="M85,66.65a5.38,5.38,0,0,1,.39.7c-.19-.29-.38-.57-.56-.87A.46.46,0,0,1,85,66.65Z"/><path class="cls-2" d="M84.6,33.8a2,2,0,0,1-1.24,2.9c-1.25.43-3.16.32-3.8-1a3.81,3.81,0,0,1,0-2.36c.2-1.23.48-4.24-1.11-4.7a.53.53,0,0,1,0-1,.58.58,0,0,0,.06.17,28.78,28.78,0,0,0,2.71,3.63,10.89,10.89,0,0,1-.07,2.21c-.14,1,0,1.9,1.27,1.75,2-.25,0-2.48-.64-3.28-.18-.23-.37-.46-.56-.68-.12-1.86-.75-3.89-2.6-3.83a.47.47,0,0,0-.17,0,.47.47,0,0,1,.79-.4,31.16,31.16,0,0,1,3,3.47A17.2,17.2,0,0,1,84.6,33.8Z"/><path class="cls-3" d="M81.76,32.12c.64.8,2.63,3,.64,3.28-1.24.15-1.41-.76-1.27-1.75a10.89,10.89,0,0,0,.07-2.21C81.39,31.66,81.58,31.89,81.76,32.12Z"/><path class="cls-2" d="M78.6,27.61c1.85-.06,2.48,2,2.6,3.83a28.78,28.78,0,0,1-2.71-3.63.58.58,0,0,1-.06-.17A.47.47,0,0,1,78.6,27.61Z"/><path d="M70.76,69c5.06-8.73,2.37-20.62-5.33-26.89C57.35,35.49,45.91,37.63,39,44.73a.56.56,0,0,1-.27.15A23.47,23.47,0,0,1,48.93,37.4c.08,0,0-.17,0-.14a31.1,31.1,0,0,0-8.63,4.23c7.27-7,20-6.79,27.53-.07C76.15,48.82,78,64.76,69.88,73c-9.36,9.47-28,4.31-34.42-6.12a19.5,19.5,0,0,1-1.62-17.26,18.11,18.11,0,0,1,6.42-8.16,17,17,0,0,0-2.19,2.56c-.3.43.18.91.61.83-5,6.5-5.8,15.38.61,22.93C46.22,76,64.4,79.94,70.76,69Z"/><path class="cls-2" d="M67,87.23c1,1.25,1.57,3.51.44,4.86a3.11,3.11,0,0,1-4.43.16A3.31,3.31,0,0,1,62.1,90a17,17,0,0,0-.59-5.11.46.46,0,0,1,.28-.61,9.64,9.64,0,0,0,1.16.93,6.91,6.91,0,0,1,.77,3c.06,1.19.05,4.8,2.63,2.83,1.76-1.35,0-3.27-1-4.11-.68-.58-1.57-1.1-2.39-1.67a6.45,6.45,0,0,0-.46-.74.6.6,0,0,0-.7-.19,3.68,3.68,0,0,1-1.23-2.26c-.05-.38.48-.42.65-.18a13.47,13.47,0,0,0,3.59,3.47A9.56,9.56,0,0,1,67,87.23Z"/><path class="cls-3" d="M65.34,86.92c1,.84,2.77,2.76,1,4.11-2.58,2-2.57-1.64-2.63-2.83a6.91,6.91,0,0,0-.77-3C63.77,85.82,64.66,86.34,65.34,86.92Z"/><path class="cls-2" d="M61.61,16.49c1.61.87,3.09,2.29,3,4.28A2.86,2.86,0,0,1,62,23.54a2.43,2.43,0,0,1-2.7-2.65c0-1.56.57-2.82.16-4.4A23.8,23.8,0,0,0,58,13.25s0,0,0,0c1.49.45,2.33,2,2.65,3.53.05.21.08.43.11.63.16,1.38-1.13,5.05,1.25,5.12,1.94.06,2-2.51,1.47-3.59a5.27,5.27,0,0,0-2.09-2.07.2.2,0,0,1-.1-.17A.21.21,0,0,1,61.61,16.49Z"/><path class="cls-3" d="M63.49,18.92C64,20,64,22.57,62,22.51c-2.38-.07-1.09-3.74-1.25-5.12,0-.2-.06-.42-.11-.63l.64-.08a.2.2,0,0,0,.1.17A5.27,5.27,0,0,1,63.49,18.92Z"/><path class="cls-2" d="M62.49,84.51a6.45,6.45,0,0,1,.46.74,9.64,9.64,0,0,1-1.16-.93A.6.6,0,0,1,62.49,84.51Z"/><path d="M48.89,37.26c.09,0,.12.1,0,.14a23.47,23.47,0,0,0-10.25,7.48c-.43.08-.91-.4-.61-.83a17,17,0,0,1,2.19-2.56A31.1,31.1,0,0,1,48.89,37.26Z"/><path class="cls-2" d="M33.15,80.32c.66,1.43.9,3.29-.4,4.44-4.13,3.63-4.13-6-4.28-7.48a.09.09,0,0,1,0,0l.5.41c.12,1,.22,2.06.34,3.09.06.62,0,2.33.35,2.71l2.91-1.25a6.07,6.07,0,0,0-1.27-2.29,14.63,14.63,0,0,0-1.49-1.56c-.27-.24-.55-.47-.84-.7,0-.12,0-.24,0-.36s-.45-.3-.46,0c-1.16-1-2.13-2-1.65-3.76.17-.65,1.26-.53,1.2.16-.19,2,1.91,2.77,3.1,3.9A9.11,9.11,0,0,1,33.15,80.32Z"/><path class="cls-3" d="M32.58,82.19l-2.91,1.25c-.39-.38-.29-2.09-.35-2.71-.12-1-.22-2.06-.34-3.09.29.23.57.46.84.7a14.63,14.63,0,0,1,1.49,1.56A6.07,6.07,0,0,1,32.58,82.19Z"/><path class="cls-2" d="M28.94,77.28c0,.12,0,.24,0,.36l-.5-.41C28.49,77,28.91,77,28.94,77.28Z"/><path class="cls-2" d="M28.73,23.44a3.41,3.41,0,0,1-1.17,4.28A2.54,2.54,0,0,1,24,27a4.86,4.86,0,0,1-.29-2.8,7.12,7.12,0,0,0-1.48-5.5.29.29,0,0,1,0-.35A3.28,3.28,0,0,0,23.79,20a6.77,6.77,0,0,1,.6,2,12.2,12.2,0,0,1,0,2.49,4,4,0,0,0,.09,1.77,2.31,2.31,0,0,0,2.25,1.07c2-.52,1.68-3.18.83-4.47a7.43,7.43,0,0,0-2.63-2.22c-.39-.21-.77-.4-1.12-.6a8.37,8.37,0,0,0-1.16-1.76.27.27,0,0,0-.46.08.88.88,0,0,0-.05-.15.4.4,0,0,1,.73-.31c.66,1.28,2.64,2,3.74,2.87A6.31,6.31,0,0,1,28.73,23.44Z"/><path class="cls-3" d="M27.54,22.82c.85,1.29,1.16,3.95-.83,4.47a2.31,2.31,0,0,1-2.25-1.07,4,4,0,0,1-.09-1.77,12.2,12.2,0,0,0,0-2.49,6.77,6.77,0,0,0-.6-2c.35.2.73.39,1.12.6A7.43,7.43,0,0,1,27.54,22.82Z"/><path d="M26.92,8.6a.26.26,0,0,1,.26.45,53.79,53.79,0,0,0-6.79,4.88c-2.37,1.55-4.67,3.23-6.92,5A49.88,49.88,0,0,1,26.92,8.6Z"/><path class="cls-2" d="M22.63,18.24A8.37,8.37,0,0,1,23.79,20a3.28,3.28,0,0,1-1.62-1.68A.27.27,0,0,1,22.63,18.24Z"/><path class="cls-2" d="M17.63,46.4c.14,1.46-.45,3.09-2,3.37a2,2,0,0,1-2.42-1.94c-.1-1.31.72-2.53,1.07-3.75a9.14,9.14,0,0,0,.31-1.54c0,.1.08.21.13.32a5.57,5.57,0,0,0,.3.6,15.77,15.77,0,0,1-.5,1.75c-.09.23-.19.46-.28.7-.72,1.22,0,1.89,2.18,2,.67-1.2-.67-3.15-1.4-4.48.07-.3.12-.6.16-.9A9.75,9.75,0,0,0,14.92,39a.17.17,0,0,0-.33,0,15.47,15.47,0,0,1-.05,3.47,10.65,10.65,0,0,1-.78-3.75c0-.83,1.33-1,1.48-.2a20.67,20.67,0,0,0,1.37,4.95A9.5,9.5,0,0,1,17.63,46.4Z"/><path class="cls-3" d="M15,43.46c.73,1.33,2.07,3.28,1.4,4.48-2.17-.14-2.9-.81-2.18-2,.09-.24.19-.47.28-.7A15.77,15.77,0,0,0,15,43.46Z"/><path class="cls-2" d="M14.92,39a9.75,9.75,0,0,1,.21,3.53c0,.3-.09.6-.16.9a5.57,5.57,0,0,1-.3-.6c-.05-.11-.09-.22-.13-.32a15.47,15.47,0,0,0,.05-3.47A.17.17,0,0,1,14.92,39Z"/><path class="cls-4" d="M49.29,26.47c-6.44-.34-12.16,3.22-16.41,7.78a53.79,53.79,0,0,0-5.81,7.47,31.82,31.82,0,0,0-4,8.64A18.87,18.87,0,0,0,23,61.3a.28.28,0,0,0,.53-.15c-1.58-6.32.23-12.7,3.5-18.16a52.16,52.16,0,0,1,5.5-7.52,30.94,30.94,0,0,1,6.75-6,18.06,18.06,0,0,1,10-3,0,0,0,0,0,0-.06Z"/><path class="cls-4" d="M34.22,26.4C28.8,30.91,23,35.83,21.53,43.12c-.06.28.37.4.43.12,1.51-7.07,7.12-12.2,12.32-16.78,0,0,0-.09-.06-.06Z"/><path class="cls-4" d="M21.89,26.32a19.48,19.48,0,0,0-9,11.77.24.24,0,0,0,.47.13,21.56,21.56,0,0,1,8.6-11.83s0-.1,0-.07Z"/><path class="cls-4" d="M24.32,30.77c-.06.16-.26.28-.38.4l-.35.33-.67.66a18.68,18.68,0,0,0-1.24,1.43,27.7,27.7,0,0,0-2.08,3.08c-.12.21.21.4.32.19a25.9,25.9,0,0,1,2-3.1q.56-.75,1.14-1.47c.2-.25.4-.49.61-.73l.28-.32c.11-.12.27-.35.44-.41s0-.16-.06-.06Z"/><path class="cls-4" d="M31.1,30.82a38.47,38.47,0,0,0-7.91,10.29c-.09.19.18.36.29.17a44,44,0,0,1,7.74-10.34c.08-.07,0-.19-.12-.12Z"/><path class="cls-4" d="M29.89,35.17a20.22,20.22,0,0,0-6.43,9.34c-.07.19.24.28.31.08A20.51,20.51,0,0,1,30,35.24c.05,0,0-.11-.08-.07Z"/><path class="cls-4" d="M81.12,71.34a2.27,2.27,0,0,0-.56.79l-.61,1c-.48.74-1,1.45-1.53,2.14a29,29,0,0,1-3.33,3.59,28,28,0,0,1-8.6,5.24c-.39.15-.24.78.17.64a25.75,25.75,0,0,0,8.71-5.33,26.83,26.83,0,0,0,3.39-3.75,23.84,23.84,0,0,0,1.41-2.18c.23-.38.44-.78.64-1.18a2,2,0,0,0,.33-.93Z"/><path class="cls-4" d="M98.34,70.46a10.69,10.69,0,0,1-1.1,2.5q-.61,1.22-1.26,2.43c-.81,1.48-1.64,3-2.53,4.38A60.2,60.2,0,0,1,87.34,88,43.46,43.46,0,0,1,70.78,99.66,34.91,34.91,0,0,1,59.59,102a.26.26,0,0,0,0,.52,37.23,37.23,0,0,0,19.23-6.39A49.08,49.08,0,0,0,93,81.21,58.31,58.31,0,0,0,95.94,76c.43-.89.85-1.79,1.25-2.69L97.73,72a7.57,7.57,0,0,1,.7-1.53c0-.06-.08-.11-.09,0Z"/><path class="cls-4" d="M82.76,78A5.48,5.48,0,0,1,81,80.36c-.83.71-1.71,1.37-2.56,2.06l-5.49,4.36c-.24.19,0,.51.28.47a13.5,13.5,0,0,0,7.38-3.87L80.22,83l-4,4a.26.26,0,0,0,.31.41q1.8-.8,3.57-1.62l-.31-.31a3.88,3.88,0,0,1-1,1.26.24.24,0,0,0,.17.41l1.25-.13L80,86.72a13.1,13.1,0,0,1-3.4,3,.22.22,0,0,0,.22.37,9.41,9.41,0,0,0,3.56-3.13.22.22,0,0,0-.19-.33l-1.25.09.18.41a5,5,0,0,0,1.06-1.37.23.23,0,0,0-.31-.31q-1.8.76-3.6,1.56l.32.41,4-4a.26.26,0,0,0-.37-.37,13.75,13.75,0,0,1-7.16,3.7l.27.46L79,82.38c1.42-1.18,3.4-2.38,3.84-4.3,0-.08-.1-.11-.12,0Z"/></g></g></g></svg>