<svg xmlns="http://www.w3.org/2000/svg" viewBox="0 0 94.94 94.6"><defs><style>.cls-1{isolation:isolate;}.cls-2{fill:#fff;}.cls-3{fill:#431323;}.cls-4{opacity:0.15;mix-blend-mode:darken;}</style></defs><g class="cls-1"><g id="Layer_2" data-name="Layer 2"><g id="dragzone_items"><g id="coffee"><path class="cls-2" d="M91.84,49c-1.74,8.7-10.45,11.21-18.13,12a16.72,16.72,0,0,0,1.1-2.2c.21-.48.38-1,.56-1.46A27.88,27.88,0,0,0,86.16,50a11.87,11.87,0,0,1-3.09,5.51c-.6.67.83.14,1.44-.53,2.86-3.21,4.84-7,1.4-10.77a5.54,5.54,0,0,0-6.55-1.38,3.41,3.41,0,0,0-.65.35,3.51,3.51,0,0,0-.4.27c0-.19.07-.38.12-.58.22-1.11.46-2.22.68-3.35.13-.61.25-1.24.37-1.86,2.34-1.48,5.11-2.74,7.57-2.43C92.21,35.89,92.55,45.5,91.84,49Z"/><path class="cls-2" d="M76.66,24.71c-.12,1.09-.25,2.19-.4,3.28a32.06,32.06,0,0,0-6.88-10.82C66,13.77,61.76,12.35,57.3,11A68.82,68.82,0,0,0,45.73,8.27C31.31,6.65,14.21,14.84,8.5,28.66a14.89,14.89,0,0,1,1-5.5C14.6,14.67,22,7.64,31.59,4.54,43.43.73,59.5,3.94,69.06,12A21.38,21.38,0,0,1,76.66,24.71Z"/><path class="cls-2" d="M7,28.7a13.73,13.73,0,0,0,.29,3.71c.07.29.14.58.23.87a17.41,17.41,0,0,0,6.72,9c12.55,9.21,31,10.91,45.46,6A33.19,33.19,0,0,0,73,39.94a17.66,17.66,0,0,1-7.81,7.87c-7.74,4-16.73,5.93-25.52,6.49.27-.41-16.14,1.79-25.31-9.42C11.94,42,9.16,40.07,8,37.12v0a12,12,0,0,1-.48-1.43A17.21,17.21,0,0,1,7,28.7Z"/><path class="cls-2" d="M69.41,48.6a19.69,19.69,0,0,0,7.32-10.11q-.11.39-.21.81c0,.11,0,.23-.08.34-1.13,4.55-2,9.2-3.27,13.62a28.8,28.8,0,0,1-1.55,4.32c-.23.49-.48,1-.74,1.42a13.32,13.32,0,0,1-4.2,4.59c-2.54,1.69-5.56,4.7-8.47,6.41-10.4,4.69-22.53,2.73-32.92-1.72-6-2.57-8.42-8.11-11.32-13.57A57,57,0,0,1,9.38,43.59l.35.35c5.73,5.63,14.68,11,23.18,11.64a2.18,2.18,0,0,0,1.05.21C45.63,56.1,59.52,55.37,69.41,48.6Z"/><path d="M80.74,22.94l0,0s0,.07,0,.05S80.75,22.94,80.74,22.94Z"/><path d="M80.74,22.94h0S80.73,22.93,80.74,22.94Z"/><path d="M91.84,49c.71-3.53.37-13.14-4.79-13.82-2.46-.31-5.23.95-7.57,2.43.07-.41.15-.83.23-1.23,3-2.37,6.7-4.38,9.94-3.11,4.23,1.67,4.92,8.46,5.23,12.23,1,12.43-11.33,18.3-22.12,16.9A15.11,15.11,0,0,0,73.71,61C81.39,60.24,90.1,57.73,91.84,49Z"/><path d="M79.71,36.41c-.08.4-.16.82-.23,1.23l-.57.36c0-.27-.07-.55-.13-.84C79.08,36.91,79.39,36.65,79.71,36.41Z"/><path d="M79.48,37.64c-.12.62-.24,1.25-.37,1.86,0-.49-.12-1-.2-1.5Z"/><path d="M79.36,42.81a.44.44,0,0,1-.65.35A3.41,3.41,0,0,1,79.36,42.81Z"/><path d="M83.07,55.49A11.87,11.87,0,0,0,86.16,50l.35-.43c.18-.23,0-.58-.26-.52a5.69,5.69,0,0,0-.29-1.8c-1.27-3.74-5.79-3.88-8.1-1.34a4.85,4.85,0,0,1,.09-.55c.11-.64.23-1.27.36-1.91a3.51,3.51,0,0,1,.4-.27.44.44,0,0,0,.65-.35,5.54,5.54,0,0,1,6.55,1.38c3.44,3.75,1.46,7.56-1.4,10.77C83.9,55.63,82.47,56.16,83.07,55.49Z"/><path d="M78.44,29.45a46.89,46.89,0,0,0-.12-6.29A17.57,17.57,0,0,1,78.44,29.45Z"/><path d="M78.91,38c.08.5.15,1,.2,1.5-.22,1.13-.46,2.24-.68,3.35a.17.17,0,0,1,0-.1c-.14-1.3-.32-2.64-.55-4C78.19,38.49,78.55,38.25,78.91,38Z"/><path d="M78.09,33.77a34.53,34.53,0,0,1,.69,3.39c-.36.32-.72.64-1,1-.11-.59-.22-1.18-.35-1.77.1-.38.19-.77.27-1.15S77.94,34.24,78.09,33.77Z"/><path d="M77.71,32.28a18.81,18.81,0,0,0,.73-2.82c-.09,1.31-.23,2.61-.44,3.91C77.91,33,77.81,32.64,77.71,32.28Z"/><path d="M77.73,38.11c.33-.31.69-.63,1-1,.06.29.1.57.13.84-.36.25-.72.49-1.06.74C77.8,38.53,77.77,38.32,77.73,38.11Z"/><path d="M78.32,23.16a46.89,46.89,0,0,1,.12,6.29h0a18.81,18.81,0,0,1-.73,2.82c-.29-1-.62-2.05-1-3.06a15.82,15.82,0,0,0-.07-4.51c.2-1.75.38-3.48.57-5.17A19.55,19.55,0,0,1,78.32,23.16Z"/><path d="M78.09,33.77c-.15.47-.29.94-.44,1.42.14-.6.26-1.21.35-1.82C78,33.51,78.07,33.64,78.09,33.77Z"/><path d="M77.65,35.19l-.3,1c-.13-.65-.29-1.3-.45-2a17.88,17.88,0,0,0,.81-2c.1.36.2.73.29,1.09C77.91,34,77.79,34.59,77.65,35.19Z"/><path d="M77.35,36.21l.3-1c-.08.38-.17.77-.27,1.15A.5.5,0,0,0,77.35,36.21Z"/><path d="M76.74,38.47c.19-.76.4-1.51.61-2.26a.5.5,0,0,1,0,.13C77.19,37.06,77,37.77,76.74,38.47Z"/><path d="M76.9,34.26c-.21-.86-.45-1.71-.72-2.56a13.38,13.38,0,0,0,.49-2.08l.06-.4c.36,1,.69,2,1,3.06A17.88,17.88,0,0,1,76.9,34.26Z"/><path d="M76.18,46.26a6.31,6.31,0,0,1,2.13-2.83c-.13.64-.25,1.27-.36,1.91a4.85,4.85,0,0,0-.09.55,4.6,4.6,0,0,0-.62.83C76.91,47.26,75.94,46.89,76.18,46.26Z"/><path d="M76.73,29.22c-.15-.41-.31-.82-.47-1.23.15-1.09.28-2.19.4-3.28A15.82,15.82,0,0,1,76.73,29.22Z"/><path d="M76,55.3c3.41-1.95,6.62-4.18,10.15-6.23a.26.26,0,0,1,.1,0,5.88,5.88,0,0,1-.09.95,27.88,27.88,0,0,1-10.79,7.38C75.6,56.68,75.82,56,76,55.3Z"/><path d="M76.52,39.3c.36-.38.77-.78,1.21-1.19,0,.21.07.42.12.63-.45.32-.86.62-1.23.91a.13.13,0,0,1-.18,0C76.47,39.53,76.5,39.41,76.52,39.3Z"/><path d="M76.74,38.47c.24-.7.45-1.41.64-2.13.13.59.24,1.18.35,1.77-.44.41-.85.81-1.21,1.19q.11-.42.21-.81A0,0,0,0,1,76.74,38.47Z"/><path d="M76.67,29.62a13.38,13.38,0,0,1-.49,2.08c-.11-.35-.22-.7-.34-1.05.16-.88.3-1.77.42-2.66.16.41.32.82.47,1.23Z"/><path d="M76.62,39.65c.37-.29.78-.59,1.23-.91.23,1.37.41,2.71.55,4a.17.17,0,0,0,0,.1c-.05.2-.09.39-.12.58a6.31,6.31,0,0,0-2.13,2.83c-.24.63.73,1,1.06.46a4.6,4.6,0,0,1,.62-.83c-.56,3.12-1,6.33-1.86,9.41a49,49,0,0,1-4.38,2.28,28.8,28.8,0,0,0,1.55-4.32c1.25-4.42,2.14-9.07,3.27-13.62A.13.13,0,0,0,76.62,39.65Z"/><path d="M76.18,31.7A15,15,0,0,1,75,34.44c.33-1.24.6-2.5.82-3.79C76,31,76.07,31.35,76.18,31.7Z"/><path d="M76.18,31.7c.27.85.51,1.7.72,2.56A22.88,22.88,0,0,1,73,39.94,27.35,27.35,0,0,0,75,34.45h0A15,15,0,0,0,76.18,31.7Z"/><path d="M72.05,62.33c-.72-.11-.47-1.13.15-1.18s1-.07,1.51-.13a15.11,15.11,0,0,1-.95,1.41Z"/><path class="cls-3" d="M75,34.45c-2.25,4.12-6.25,7.26-10.38,9.42-11.56,6-26.37,6.08-38.52,1.94C19.47,43.54,11,39.59,9,32.17a11.31,11.31,0,0,1-.3-1.35c7-13.23,19.84-22.15,35.5-21.28,7,.38,16.62,2.72,22.25,6.83C71,19.72,74,25,75.84,30.65c-.22,1.29-.49,2.55-.82,3.79Z"/><path d="M71.62,57.58A49,49,0,0,0,76,55.3c-.18.7-.4,1.38-.63,2.06-1.49.63-3,1.17-4.49,1.64C71.14,58.54,71.39,58.07,71.62,57.58Z"/><path d="M63.21,68.49c1.58-.51,3.11-1,3.79-1.23h0a22.56,22.56,0,0,1-3.73,1.51A.61.61,0,0,0,63.21,68.49Z"/><path d="M63.27,68.78a26,26,0,0,1-4.15.9c.91-.19,2.53-.68,4.09-1.19A.61.61,0,0,1,63.27,68.78Z"/><path d="M61.94,68a.88.88,0,0,1,1.27.52c-1.56.51-3.18,1-4.09,1.19l-.33,0A27.29,27.29,0,0,0,61.94,68Z"/><path d="M63.21,68.49A.88.88,0,0,0,61.94,68a27.29,27.29,0,0,1-3.15,1.76l-.16.07-.42.2c2.91-1.71,5.93-4.72,8.47-6.41A13.32,13.32,0,0,0,70.88,59c1.49-.47,3-1,4.49-1.64-.18.49-.35,1-.56,1.46a16.72,16.72,0,0,1-1.1,2.2c-.51.06-1,.1-1.51.13s-.87,1.07-.15,1.18l.71.1A16.93,16.93,0,0,1,67,67.26C66.32,67.47,64.79,68,63.21,68.49Z"/><path d="M67,67.27c-.08.23-3.8,1.92-4,2.09a23,23,0,0,1-6.18,3.9l-.08-.19c.63-.21,1.25-2.81,1.88-3.27l.16-.07.33,0a26,26,0,0,0,4.15-.9A22.56,22.56,0,0,0,67,67.27Z"/><path d="M56.68,73.08c-1.35.07-1.41-1.79-.3-2.2A11.3,11.3,0,0,0,58.21,70l.42-.2c-.63.46-1.25,3.06-1.88,3.27Z"/><path d="M73,39.94a22.88,22.88,0,0,0,3.94-5.68c.16.65.32,1.3.45,2-.21.75-.42,1.5-.61,2.26a0,0,0,0,0,0,0A19.69,19.69,0,0,1,69.41,48.6C59.52,55.37,45.63,56.1,34,55.79a2.18,2.18,0,0,1-1.05-.21,5.36,5.36,0,0,0,.37-.68,22.7,22.7,0,0,0,6-.35.62.62,0,0,0,.39-.25c8.79-.56,17.78-2.51,25.52-6.49A17.66,17.66,0,0,0,73,39.94Z"/><path d="M39.63,54.3a.62.62,0,0,1-.39.25,22.7,22.7,0,0,1-6,.35c.12-.19.26-.37.41-.41h.07C35.69,54.49,37.66,54.43,39.63,54.3Z"/><path d="M32.91,54.88a1,1,0,0,1,.78-.39c-.15,0-.29.22-.41.41Z"/><path d="M32.91,55.58c-.23-.14-.24-.37,0-.7l.37,0A5.36,5.36,0,0,1,32.91,55.58Z"/><path d="M56.38,70.88c-1.11.41-1.05,2.27.3,2.2h.07l.08.19C46.7,77.61,34,74.79,24.17,70.54,17.68,67.73,14.93,62,12,55.87,9.68,51,7.5,45.81,7,40.42a15.46,15.46,0,0,0,2.34,3.17A57,57,0,0,0,14,54.71c2.9,5.46,5.33,11,11.32,13.57C35.68,72.73,47.81,74.69,58.21,70A11.3,11.3,0,0,1,56.38,70.88Z"/><path d="M8.5,28.66c5.71-13.82,22.81-22,37.23-20.39A68.82,68.82,0,0,1,57.3,11c4.46,1.32,8.68,2.74,12.08,6.14A32.06,32.06,0,0,1,76.26,28c-.12.89-.26,1.78-.42,2.66C74,25,71,19.72,66.45,16.37,60.82,12.26,51.24,9.92,44.2,9.54,28.54,8.67,15.66,17.59,8.7,30.82A13.35,13.35,0,0,1,8.5,28.66Z"/><path d="M14.21,42.29a17.41,17.41,0,0,1-6.72-9c.38-.84.78-1.66,1.21-2.46A11.31,11.31,0,0,0,9,32.17c2,7.42,10.47,11.37,17.12,13.64,12.15,4.14,27,4.06,38.52-1.94,4.13-2.16,8.13-5.3,10.38-9.42A27.35,27.35,0,0,1,73,39.94a33.19,33.19,0,0,1-13.29,8.31C45.19,53.2,26.76,51.5,14.21,42.29Z"/><path d="M32.91,54.88c-.24.33-.23.56,0,.7-8.5-.64-17.45-6-23.18-11.64l-.35-.35A46.4,46.4,0,0,1,8,37.12c1.18,3,4,4.85,6.34,7.76,9.17,11.21,25.58,9,25.31,9.42-2,.13-3.94.19-5.87.18h-.07A1,1,0,0,0,32.91,54.88Z"/><path d="M7.26,32.41A27.45,27.45,0,0,1,8.5,28.66a13.35,13.35,0,0,0,.2,2.16c-.43.8-.83,1.62-1.21,2.46C7.4,33,7.33,32.7,7.26,32.41Z"/><path d="M7.49,35.66A12,12,0,0,0,8,37.09v0a46.4,46.4,0,0,0,1.4,6.47A15.46,15.46,0,0,1,7,40.42a22.32,22.32,0,0,1,0-4.4A.38.38,0,0,1,7.49,35.66Z"/><path d="M19.05,11.48c-3.86,3-7.72,7-9.51,11.68-.78,1.32-1.5,2.66-2.17,4a.71.71,0,0,1-.21.27,22.58,22.58,0,0,1,1.5-4.95.08.08,0,0,0,0-.11c2.17-4.59,6.12-8.09,10.36-11C19,11.34,19.1,11.44,19.05,11.48Z"/><path d="M7.26,32.41A13.73,13.73,0,0,1,7,28.7c0-.4.11-.81.19-1.23a.71.71,0,0,0,.21-.27c.67-1.38,1.39-2.72,2.17-4a14.89,14.89,0,0,0-1,5.5A27.45,27.45,0,0,0,7.26,32.41Z"/><path d="M7.08,27.55c0-.18,0-.37.08-.55a17.6,17.6,0,0,1,1.46-4.59.08.08,0,0,1,0,.11,22.58,22.58,0,0,0-1.5,4.95A.6.6,0,0,1,7.08,27.55Z"/><path d="M8.54,22.43a.07.07,0,0,1,.08,0A17.6,17.6,0,0,0,7.16,27c0,.18-.06.37-.08.55a1.1,1.1,0,0,1-1.45-.26A13,13,0,0,1,8.54,22.43Z"/><path d="M7.16,27.47c-.08.42-.14.83-.19,1.23,0-.38.06-.76.11-1.15A.6.6,0,0,0,7.16,27.47Z"/><path d="M7.49,35.66a.38.38,0,0,0-.42.36,22.32,22.32,0,0,0,0,4.4A16.45,16.45,0,0,1,5.63,27.29a1.1,1.1,0,0,0,1.45.26c0,.39-.09.77-.11,1.15A17.21,17.21,0,0,0,7.49,35.66Z"/><path d="M5.43,26.38C10.08,11.84,24.38.86,39.63.05c13.63-.71,32,5.75,37.53,19.28a1.72,1.72,0,0,1,.07.21c-.19,1.69-.37,3.42-.57,5.17A21.38,21.38,0,0,0,69.06,12C59.5,3.94,43.43.73,31.59,4.54c-9.62,3.1-17,10.13-22,18.62,1.79-4.65,5.65-8.66,9.51-11.68.05,0,0-.14-.07-.09-4.24,2.93-8.19,6.43-10.36,11a.07.07,0,0,0-.08,0,13,13,0,0,0-2.91,4.86A.9.9,0,0,1,5.43,26.38Z"/><g class="cls-4"><path d="M16.74,61.66C14.2,60.4,12.18,63.32,9.92,65,7,67.26-.55,73.21,0,82c.1,1.53,1.83,4.35,2.36,5.78a3.69,3.69,0,0,0,1.53,1.65c6.52,4.46,14.89,4.88,22.78,5.09,8.25.21,16.73.31,24.47-2.58s14.64-9.46,15.47-17.67a3.37,3.37,0,0,0-.21-1.87,2.75,2.75,0,0,0-2.91-1.49c-8.38,2.19-24.35,4.71-33.58,1.33-7.38-2.69-13.2-10.57-13.2-10.57"/></g><g class="cls-4"><path d="M9.46,50.43A2.09,2.09,0,0,1,11.22,48a5.35,5.35,0,0,1,3.28.76,26.64,26.64,0,0,1,10,8.74c1.6,2.33,2.83,4.92,4.63,7.1,3.09,3.72,7.6,5.92,12,8l4,1.89c-2.19,1.79-5.43,1-8.09,0-4.74-1.7-8.28-2.1-12-5.44-2.49-2.22-6.66-3.88-8.56-6.62-2.23-3.22-3.49-9-5.72-12.24Z"/></g><g class="cls-4"><path d="M16.77,26.68c1.21.38,2.49-.22,3.65-.75a42.88,42.88,0,0,1,33.91-.67c3.13,1.3,6.59,3.93,5.89,7.25-.43,2.07-2.35,3.42-3.94,4.82S53.22,40.86,54,42.82a4.8,4.8,0,0,0,3.36,2.45c7.11,2,15-3.39,16.89-10.52s-1.5-15-7.27-19.59S53.49,9,46.14,9.51s-14.43,3-21.23,5.85a32.33,32.33,0,0,0-6,3c-1.39,1-2.74,2.36-2.69,4.05S15.55,26.3,16.77,26.68Z"/></g></g></g></g></g></svg>