<svg xmlns="http://www.w3.org/2000/svg" viewBox="0 0 117.01 174.84"><defs><style>.cls-1{isolation:isolate;}.cls-2{fill:#606060;}.cls-3{fill:#fbf9fa;}.cls-4{opacity:0.15;mix-blend-mode:darken;}.cls-5{fill:#fde9bc;}.cls-6{fill:#431323;}.cls-7{fill:#fff;}.cls-8{fill:#e8ac9e;}.cls-9{fill:#b86b4f;}</style></defs><g class="cls-1"><g id="Layer_2" data-name="Layer 2"><g id="dragzone_items"><g id="cream"><path d="M36.3,40.84l.1,0Z"/><path d="M36,40.58a1.07,1.07,0,0,0,.19.18A.54.54,0,0,1,36,40.58Z"/><path d="M35.67,38.79a3.42,3.42,0,0,0,0,.45c0,.08,0,.15,0,.23l0,.33c-.08-.23-.17-.45-.24-.66C35.45,39,35.55,38.9,35.67,38.79Z"/><path d="M35.61,39.47c0,.11,0,.22,0,.33h0Z"/><polygon points="35.59 39.8 35.59 39.81 35.58 39.8 35.59 39.8"/><path d="M35.59,39.82a24,24,0,0,0,0,3.5,1.07,1.07,0,0,1-1.56-1,5.14,5.14,0,0,1,1.26-3.21c.07.21.16.43.24.66h0Z"/><path d="M34.49,61.86c-.16-.21-.31-.42-.44-.63a20.92,20.92,0,0,1-2-4.78l.32.44C32.9,58.13,33.64,59.86,34.49,61.86Z"/><path d="M32.06,56.45a20.92,20.92,0,0,0,2,4.78,23.89,23.89,0,0,1-2.65-5.45.26.26,0,0,1,.27.1c.13.19.25.37.39.56Z"/><path d="M32.38,56.89l-.32-.44h0c-.14-.46-.28-.89-.42-1.3C31.76,55.45,32,56.07,32.38,56.89Z"/><path d="M31.57,54.92l.06.18A.74.74,0,0,1,31.57,54.92Z"/><path class="cls-2" d="M65.76,25.06c-.48.09-.86-.43-1-.9a4.33,4.33,0,0,1,.23-4,2.48,2.48,0,0,1,3.65-.48.48.48,0,0,1,.15.31.5.5,0,0,1-.09.24l-1.92,3.35c-.28.5-.88,1.07-1.33.7"/><path class="cls-2" d="M80.35,34.72c-1.3.68-3-.54-3.13-2a3.57,3.57,0,0,1,2.36-3.35.77.77,0,0,1,.61-.05.81.81,0,0,1,.31.41A4.69,4.69,0,0,1,80.15,34"/><path d="M101.28,37.76c0-.11,0-.22-.08-.34a11.83,11.83,0,0,0-.1-2c0-.31-.08-.61-.14-.89l.12.26A22.11,22.11,0,0,1,101.28,37.76Z"/><path d="M101.1,35.45a11.83,11.83,0,0,1,.1,2,26.32,26.32,0,0,0-1.42-4.58c0-.11.13-.17.18-.08.36.59.69,1.19,1,1.8C101,34.84,101.06,35.14,101.1,35.45Z"/><path d="M92.61,37.49a.29.29,0,0,1-.21.48.31.31,0,0,1-.19-.08C86.48,33,89.65,17.35,79.26,18.31a1.8,1.8,0,0,0-.08-.21c3.39-1.2,7.75.39,9.14,3.51a13.74,13.74,0,0,1,.86,2.66l-.12-.11c-.21-.2-.48.09-.31.31a8.37,8.37,0,0,0,.62.7C90.13,29.39,89.67,33.75,92.61,37.49Z"/><path d="M89.18,24.27c.07.3.13.6.19.9a8.37,8.37,0,0,1-.62-.7c-.17-.22.1-.51.31-.31Z"/><path d="M80.55,34.82l-.21.08H78.71a1.64,1.64,0,0,0,0-.22c-.09-.89,1.16-1.07,1.57-.43A3.84,3.84,0,0,1,80.55,34.82Z"/><path d="M79.26,18.31a8.08,8.08,0,0,1-.09,5.46c-.17.51-1,.45-1-.13.24-3,1.28-4.81-2-7.42-1-.76-2.3-1.09-3.3-1.82a16.31,16.31,0,0,1-4-4.33,9.76,9.76,0,0,1-1.33-3,11.73,11.73,0,0,1,1.83-3.3,0,0,0,0,0,0,0h0a.52.52,0,0,1,0,.14c-.35,2.69,1.3,5,2.92,6.87a65,65,0,0,0,5,4.79A7.56,7.56,0,0,1,79.13,18a.54.54,0,0,1,.05.11l-.09,0a.1.1,0,0,0-.07.1.08.08,0,0,0,.1.09Z"/><path d="M79.18,18.1a1.8,1.8,0,0,1,.08.21h-.14a.08.08,0,0,1-.1-.09.1.1,0,0,1,.07-.1Z"/><path d="M70.63.4a.12.12,0,0,1-.13.18c-.73-.29-.9,2.44-1,3.19h0a0,0,0,0,0,0,0,17.94,17.94,0,0,0-1.94,2.58A7.08,7.08,0,0,1,69.89.07C70.09-.13,70.45.13,70.63.4Z"/><path d="M69.41,3.76a0,0,0,0,1,0,0,11.73,11.73,0,0,0-1.83,3.3,4.82,4.82,0,0,1-.14-.74h0a17.94,17.94,0,0,1,1.94-2.58A0,0,0,0,1,69.41,3.76Z"/><path d="M68.87,30.78a1,1,0,0,1-.51,1.87,4.36,4.36,0,0,1-4-3.29,7.41,7.41,0,0,1-.14-3.93h0a11.19,11.19,0,0,1,1.68-1.56,12.26,12.26,0,0,0,.49,4A6.1,6.1,0,0,0,68.87,30.78Z"/><path d="M67.43,6.34a4.82,4.82,0,0,0,.14.74c-1.42,3.7-1.56,7.58-6.21,9.47-2.55,1-5.37,1-8,1.8-4.94,1.45-6.55,8-6.77,12.62a1.12,1.12,0,0,1-2.23,0A16.83,16.83,0,0,1,47.13,20.8l.27-.06a.19.19,0,0,0,.1-.06.21.21,0,0,0-.07-.28,11,11,0,0,1,6-4.16c4.31-1.18,8.64-1.1,11.33-5.3C65.72,9.39,66.5,7.83,67.43,6.34Z"/><path d="M65.86,23.14q0,.34,0,.72a11.19,11.19,0,0,0-1.68,1.56,12.38,12.38,0,0,1,.62-1.9A4.86,4.86,0,0,1,65.86,23.14Z"/><path d="M64.83,23.52a12.38,12.38,0,0,0-.62,1.9h0c-1.94,2.18-3.52,4.93-6.44,5.41-.94.16-2.52,0-3-1-.24-.6-.23-1.09.43-1.25a0,0,0,0,1,0,0c-.23,1.26,2.33.71,2.84.54a7.55,7.55,0,0,0,2.38-1.48c.8-.7,1.44-1.54,2.17-2.32A8.28,8.28,0,0,1,64.83,23.52Z"/><path d="M47.43,20.4a.21.21,0,0,1,.07.28.19.19,0,0,1-.1.06l-.27.06.08-.12A3,3,0,0,1,47.43,20.4Z"/><path d="M47.43,20.4a3,3,0,0,0-.22.28l-.08.12A13.43,13.43,0,0,0,36.82,31a18.67,18.67,0,0,0-2.34,2.62C34.7,27,39.9,21.21,47.36,20.39A.08.08,0,0,1,47.43,20.4Z"/><path class="cls-3" d="M44.58,31.63l-.67.56a.26.26,0,0,0-.27.25c-.1,3.18-4.07,3.87-6.39,5.16A13.05,13.05,0,0,1,36.6,34a7.85,7.85,0,0,1,0-1c0-.12,0-.24,0-.36a12,12,0,0,1,.2-1.58A13.43,13.43,0,0,1,47.13,20.8,16.83,16.83,0,0,0,44.36,31,1.13,1.13,0,0,0,44.58,31.63Z"/><path d="M44.15,32.38A4.28,4.28,0,0,1,42.46,37c-1.17.92-3.12,1.53-4.51,2.52a1.17,1.17,0,0,0-.12-.42c-.11-.25-.22-.51-.31-.77s-.17-.49-.25-.74h0v0c2.32-1.29,6.29-2,6.39-5.16a.26.26,0,0,1,.27-.25A.23.23,0,0,1,44.15,32.38Z"/><path d="M37.83,39.12a1.17,1.17,0,0,1,.12.42h0a4.3,4.3,0,0,0-1.32,1.37h0l-.12,0a.2.2,0,0,1-.1,0l-.1,0-.15-.08a1.07,1.07,0,0,1-.19-.18,1,1,0,0,1-.16-.27,5.16,5.16,0,0,1-.21-.49h0c0-.11,0-.22,0-.33s0-.15,0-.23a2.3,2.3,0,0,1,0-.45A4.88,4.88,0,0,1,36.6,38l.26-.18a2.24,2.24,0,0,1,.4-.22c.08.25.17.5.26.73S37.72,38.87,37.83,39.12Z"/><path d="M37.27,37.61c.08.25.16.5.25.74-.09-.23-.18-.48-.26-.73Z"/><path d="M37.25,37.6a3.85,3.85,0,0,0-.4.24,1.14,1.14,0,0,0-.25.18,4.88,4.88,0,0,0-.92.77h0A24.59,24.59,0,0,1,36.6,34,13.05,13.05,0,0,0,37.25,37.6Z"/><path d="M36.82,31a12,12,0,0,0-.2,1.58,31.12,31.12,0,0,0-2,3.53,13.07,13.07,0,0,1-.12-2.49A18.67,18.67,0,0,1,36.82,31Z"/><path d="M36.63,40.92h0a2.89,2.89,0,0,0-.37,1.43,1,1,0,0,1-.64,1,24,24,0,0,1,0-3.5,5.16,5.16,0,0,0,.21.49,1,1,0,0,0,.16.27.54.54,0,0,0,.19.18l.15.08.1,0a.2.2,0,0,0,.1,0l.12,0Z"/><path d="M34.6,36.15a31.12,31.12,0,0,1,2-3.53c0,.12,0,.24,0,.36a22.25,22.25,0,0,0-1.78,4.32A9.68,9.68,0,0,1,34.6,36.15Z"/><path d="M36.6,33a7.85,7.85,0,0,0,0,1,24.59,24.59,0,0,0-.93,4.84c-.12.11-.22.23-.33.35a13,13,0,0,1-.52-1.84A22.25,22.25,0,0,1,36.6,33Z"/><path d="M37.55,65.39a23.58,23.58,0,0,1-3.06-3.53c-.85-2-1.59-3.73-2.11-5C34.21,59.6,36,62.44,37.55,65.39Z"/><g class="cls-4"><path d="M52.31,112.18c-6.71-2.58-14.46.67-19.57,5.73s-8.3,11.69-12.09,17.8A97.88,97.88,0,0,1,8,151.91c-2.29,2.37-4.74,4.67-6.36,7.54s-2.32,6.5-.9,9.48c2.11,4.42,7.77,5.68,12.66,5.86a67.94,67.94,0,0,0,53.5-23.49c4.41-5.18,13.78-21.28,11-27.5-1.6-3.61-10.67,3-13.78.52A73.25,73.25,0,0,1,52.31,112.18Z"/></g><g class="cls-4"><path d="M37.55,65.39c-.48-.3,11.89,10.93,15.07,17.76s5.44,14.23,10.14,20.11c1.06,1.32,2.29,3.12,1.35,4.53A3,3,0,0,1,62,108.91c-3,.45-6-1-8.31-2.87a21.73,21.73,0,0,1-7.79-13.81c-.5-3.66-1.58-8-1.94-11.67-.57-5.75-4.9-12.5-4.9-12.5"/></g><path class="cls-5" d="M53.31,21.5a4.56,4.56,0,0,0-3.13,3.26,9.55,9.55,0,0,0,0,4.69,2,2,0,0,0,.53,1.13.74.74,0,0,0,1.11-.06,1.08,1.08,0,0,0,.05-.69,8.78,8.78,0,0,0-.6-2,5.06,5.06,0,0,1-.53-1.53,3.72,3.72,0,0,1,.11-1.15,21.7,21.7,0,0,1,1.64-4.77"/><path class="cls-5" d="M83.79,22c-.7.08-1,1-.76,1.68a12.93,12.93,0,0,0,1.07,1.82c.76,1.42.46,3.3,1.5,4.52a7.5,7.5,0,0,0-3.15-8.1"/><path class="cls-5" d="M40.32,40c-1.76,1.42-2.24,3.9-2.25,6.16,0,1.55.31,3.37,1.69,4.08,1.06-3.22-.92-7,.52-10,.2-.42.42-1,0-1.27"/><path class="cls-5" d="M44.57,25.22a18.54,18.54,0,0,0-4.35,5.18,4.89,4.89,0,0,0-.74,4,1,1,0,0,0,.32.47c.49.35,1.16-.27,1.22-.87s-.2-1.2-.15-1.8a3.42,3.42,0,0,1,.41-1.2l2.23-4.61"/><path class="cls-5" d="M68.49,9.2c.13-.15-.26-.15-.35,0a3,3,0,0,0,.1,3.07c.64.94,1.8,1.34,2.77,1.92a9.13,9.13,0,0,1,3.64,4.44,14.71,14.71,0,0,1,1,5.73c.46,0,.64-.59.66-1.05a18.82,18.82,0,0,0-.1-4.18,6.43,6.43,0,0,0-1.85-3.68A15.75,15.75,0,0,0,72.5,14.2a11.29,11.29,0,0,1-4.23-5.58"/><path class="cls-6" d="M45.88,40.38a1.23,1.23,0,0,1-.43-1.7,2.32,2.32,0,0,1,1.64-1,1.49,1.49,0,0,1,1,.09,1.27,1.27,0,0,1,.2,1.78,3.68,3.68,0,0,1-1.67,1.07"/><path class="cls-6" d="M63.78,24.38a1.23,1.23,0,0,1-.43-1.69,2.34,2.34,0,0,1,1.64-1,1.49,1.49,0,0,1,1,.1,1.25,1.25,0,0,1,.2,1.77,3.55,3.55,0,0,1-1.67,1.07"/><path class="cls-6" d="M78.64,34.9a1.22,1.22,0,0,1-.42-1.69,2.25,2.25,0,0,1,1.63-1,1.49,1.49,0,0,1,1,.09,1.26,1.26,0,0,1,.2,1.78,3.63,3.63,0,0,1-1.67,1.07"/><path class="cls-6" d="M82.63,20.43a1.22,1.22,0,0,1-.43-1.69,2.34,2.34,0,0,1,1.64-1,1.55,1.55,0,0,1,1,.1,1.26,1.26,0,0,1,.2,1.77,3.65,3.65,0,0,1-1.67,1.08"/><path class="cls-6" d="M43.29,22.89a1.23,1.23,0,0,1-.43-1.7,2.32,2.32,0,0,1,1.63-1,1.51,1.51,0,0,1,1,.1,1.25,1.25,0,0,1,.2,1.77,3.68,3.68,0,0,1-1.67,1.07"/><path class="cls-6" d="M63.52,13.63a1.23,1.23,0,0,1-.42-1.7,2.3,2.3,0,0,1,1.63-1,1.51,1.51,0,0,1,1,.09A1.26,1.26,0,0,1,66,12.81a3.63,3.63,0,0,1-1.67,1.07"/><path d="M115.12,54.94c2.32,2.75,2.09,5.93,1.47,9.35A58,58,0,0,1,111.37,80c-1.94,3.9-4.48,9.65-8.72,11.61-2.64,1.21-5.69.88-7.25-1.67a3,3,0,0,0,3.55,0c5.83.9,10.3-10,12.24-14.32,2.42-5.35,6.18-13.38,4.25-19.49A3.14,3.14,0,0,0,115.12,54.94Z"/><path class="cls-7" d="M115.44,56.11c1.93,6.11-1.83,14.14-4.25,19.49-1.94,4.32-6.41,15.22-12.24,14.32,2.18-1.34,4-4.75,4.79-7.06a24.34,24.34,0,0,0,2.81-4.41,61,61,0,0,0,4.2-9,11.34,11.34,0,0,0,.63-5.28C113.38,62.11,115.69,58.72,115.44,56.11Z"/><path d="M115.44,56.11c.25,2.61-2.06,6-4.06,8a5.36,5.36,0,0,0-.8-2.24,7.9,7.9,0,0,0,3-4.22c1-3.76-3.72-3.68-6.22-2.68-2.72,1.09-5.37,2.29-8,3.57.22-.37.43-.74.63-1.1l.17-.09c1.88-.94,3.79-1.78,5.72-2.62,2.13-.92,5-2.66,7.34-1.56a3.64,3.64,0,0,1,1.85,1.72l-.13-.17s-.08,0-.06,0A11.92,11.92,0,0,1,115.44,56.11Z"/><path d="M115.12,54.94a3.14,3.14,0,0,1,.32,1.17,11.92,11.92,0,0,0-.51-1.29s0-.09.06,0Z"/><path class="cls-7" d="M107.4,55c2.5-1,7.2-1.08,6.22,2.68a7.9,7.9,0,0,1-3,4.22A4.15,4.15,0,0,0,107,60.17c-2.85,0-5.65,2.48-7.8,4q-1.92,1.38-3.72,2.91c-.23.2-.47.39-.71.61.68-1.85,1.38-3.71,2.1-5.55A28.69,28.69,0,0,0,99.4,58.6h0C102,57.31,104.68,56.11,107.4,55Z"/><path d="M111.38,64.16a11.34,11.34,0,0,1-.63,5.28,61,61,0,0,1-4.2,9,24.34,24.34,0,0,1-2.81,4.41,8.83,8.83,0,0,0,.32-1.21.85.85,0,0,0-.59-1c2-2.29,3.42-6.43,4.46-8.66.88-1.87,2.64-4.53,2.29-6.66a.19.19,0,0,0,0-.07A10.5,10.5,0,0,0,111.38,64.16Z"/><path d="M110.58,61.92a5.36,5.36,0,0,1,.8,2.24,10.5,10.5,0,0,1-1.18,1.1,4.56,4.56,0,0,0-1-2.41A11.61,11.61,0,0,0,110.58,61.92Z"/><path d="M110.58,61.92a11.61,11.61,0,0,1-1.39.93c-2.1-2.23-6.36,1.14-7.85,2.13-2.5,1.68-5,3.4-7.47,5.1.27-.78.56-1.57.85-2.35.24-.22.48-.41.71-.61q1.8-1.53,3.72-2.91c2.15-1.56,4.95-4.06,7.8-4A4.15,4.15,0,0,1,110.58,61.92Z"/><path d="M103.47,80.65a.85.85,0,0,1,.59,1,8.83,8.83,0,0,1-.32,1.21,5,5,0,0,1-2.4,1.61,4.16,4.16,0,0,1-.83.12c.57-.93,1.07-1.93,1.51-2.71l.13-.07A6.35,6.35,0,0,0,103.47,80.65Z"/><path d="M103.74,82.86c-.77,2.31-2.61,5.72-4.79,7.06a5,5,0,0,1-1.37-.42,3.15,3.15,0,0,0,2.65-1.25,3,3,0,0,0-.13-3c.14-.21.28-.42.41-.63a4.16,4.16,0,0,0,.83-.12A5,5,0,0,0,103.74,82.86Z"/><path d="M101.08,34.82c3.58,7.41,2.8,15.71-1,22.67-.22.09-.59.25-1,.44h0s0,0-.06,0l-.21.13,0,0-.35.17c1-2.52,2-5,3.09-7.46,0,0,0,0,0,0-.86,1.84-1.81,3.67-2.79,5.5a28.23,28.23,0,0,0,2.63-18.52A21.85,21.85,0,0,0,101.08,34.82Z"/><path class="cls-7" d="M101.28,37.75a28.23,28.23,0,0,1-2.63,18.52c-.12.23-.24.46-.37.69-.38.69-.8,1.36-1.23,2h0a.35.35,0,0,0-.17.18s0,0,0,0a.94.94,0,0,1,0,.09c-.2.31-.42.61-.64.9a29,29,0,0,1-3.89,4.28,32,32,0,0,1-6.94,4.76,35.6,35.6,0,0,1-7.74,2.85,45.73,45.73,0,0,1-12.49,1.2H65c-10.23-.69-21.76-3.91-28.19-11.9C30.82,53.9,30.63,45,34.19,37l.62.28c-3.26,11,2.49,23.16,12.71,29a33.62,33.62,0,0,0,19.13,4,.94.94,0,0,0,.91.53,31.75,31.75,0,0,0,9.34-1.17,33.45,33.45,0,0,0,17-11.32A34.24,34.24,0,0,0,101.28,37.75Z"/><path d="M101.44,50.77s0,0,0,0c-1,2.46-2.08,4.94-3.09,7.46a10.9,10.9,0,0,0-1.1.58c.34-.63.68-1.24,1-1.86.13-.23.25-.46.37-.69C99.63,54.44,100.58,52.61,101.44,50.77Z"/><path d="M101.28,37.75a34.24,34.24,0,0,1-7.39,20.52,33.45,33.45,0,0,1-17,11.32,31.75,31.75,0,0,1-9.34,1.17.94.94,0,0,1-.91-.53A43.18,43.18,0,0,0,89.23,61.8c.27-.21,0-.67-.29-.48-6.2,3.74-12.27,7.11-19.66,7.63-.84.06-1.66.09-2.49.09a1.17,1.17,0,0,1,.77-.39c9-1.05,17.85-4.9,23.85-11.91a30.4,30.4,0,0,0,2.15-2.81l.52-.78a32.17,32.17,0,0,0,3.86-9,8.15,8.15,0,0,0,3.26-6.69A3.38,3.38,0,0,0,101.28,37.75Z"/><path d="M101.2,37.41a8.15,8.15,0,0,1-3.26,6.69A65.92,65.92,0,0,0,99.7,31.23a.24.24,0,0,1,0-.08A11.8,11.8,0,0,1,101,34.56c-.31-.61-.64-1.21-1-1.8,0-.1-.22,0-.18.07A25.78,25.78,0,0,1,101.2,37.41Z"/><path d="M92.27,74.83c2.44,2.94,6.38,8.92,9.75,7-.44.78-.94,1.78-1.51,2.71a3.91,3.91,0,0,1-.9-.07,16.71,16.71,0,0,0-2-1.87,25.62,25.62,0,0,1-5.59-7C92.11,75.4,92.19,75.12,92.27,74.83Z"/><path d="M100.1,85.22a3,3,0,0,1,.13,3,3.15,3.15,0,0,1-2.65,1.25,6.65,6.65,0,0,1-1.15-.68.69.69,0,0,0-1,.23c-1.61-.82-2.53-2.67-3.35-4.57a15.5,15.5,0,0,1-1-2.86C92.64,83.55,94,85.87,96,87.2,97.55,88.23,98.94,87,100.1,85.22Z"/><path d="M100,85.05l.1.17c-1.16,1.73-2.55,3-4.12,2-2-1.33-3.34-3.65-4.9-5.58l-.06-.3c.13-1.08.29-2.16.51-3.24.09-.14.19-.29.3-.43,2,2.92,4.86,6.36,7.78,6.87A5.17,5.17,0,0,1,100,85.05Z"/><path d="M100,57.49c-.2.36-.41.73-.63,1.1h0c-.49.22-1,.46-1.45.7l.21-.53a0,0,0,0,1,0,0c.48-.35.89-.69.89-.7a.07.07,0,0,0,0-.13C99.45,57.74,99.82,57.58,100,57.49Z"/><path d="M99.72,31.15a.24.24,0,0,0,0,.08A65.92,65.92,0,0,1,97.94,44.1c-.18.12-.37.25-.57.36-1,.55-1.57-.57-1.11-1.44.15-.29.3-.58.43-.86,6-12.2-2.87-12.44-7.33-17l-.18-.91C91.62,26.47,98.33,28.54,99.72,31.15Z"/><path d="M99.41,58.59h0Z"/><path d="M98,59.3c.49-.24,1-.48,1.45-.7a28.69,28.69,0,0,1-2.58,3.58C97.19,61.21,97.57,60.26,98,59.3Z"/><path d="M99.05,57.93a.07.07,0,0,1,0,.13s-.41.35-.89.7l.18-.45.38-.24,0,0,.27-.12Z"/><path d="M99,57.92s0,0,.06,0l-.27.12Z"/><path d="M98.73,58.07l-.38.24a.24.24,0,0,1,0-.07Z"/><path d="M98.38,58.24a.24.24,0,0,0,0,.07L97.17,59a1.28,1.28,0,0,0,.11-.2A10.9,10.9,0,0,1,98.38,58.24Z"/><path d="M98.35,58.31l-.18.45a0,0,0,0,0,0,0,3.59,3.59,0,0,1-1.22.68c.08-.14.16-.28.23-.43Z"/><path d="M98.16,58.77,98,59.3,96.67,60l.27-.51A3.59,3.59,0,0,0,98.16,58.77Z"/><path d="M98.28,57c-.32.62-.66,1.23-1,1.86l-.23.16C97.48,58.32,97.9,57.65,98.28,57Z"/><path d="M96.67,60,98,59.3c-.38,1-.76,1.91-1.13,2.88a29,29,0,0,1-2.89,3C94.81,63.41,95.74,61.68,96.67,60Z"/><path d="M97.63,82.65a16.71,16.71,0,0,1,2,1.87c-2.92-.51-5.78-4-7.78-6.87l.09-.11-.11-.83c.06-.34.14-.68.23-1A25.62,25.62,0,0,0,97.63,82.65Z"/><path d="M97.58,89.5a5,5,0,0,0,1.37.42,3,3,0,0,1-3.55,0,.05.05,0,0,1,0-.05.72.72,0,0,1,.06-.83,4,4,0,0,0,1.63.45A4.51,4.51,0,0,0,97.58,89.5Z"/><path class="cls-3" d="M97.37,44.46c.2-.11.39-.24.57-.36a32.17,32.17,0,0,1-3.86,9l-.52.78-.91-.6c.15-.25.29-.5.42-.76a13.81,13.81,0,0,0,.87-9.52l.74-.19a.5.5,0,0,0,0,.13.62.62,0,0,0,.71.21,1.91,1.91,0,0,0,1.21-1.07l0,0c-.13.28-.28.57-.43.86C95.8,43.89,96.41,45,97.37,44.46Z"/><path d="M97.58,89.5a4.51,4.51,0,0,1-.52,0,4,4,0,0,1-1.63-.45.69.69,0,0,1,1-.23A6.65,6.65,0,0,0,97.58,89.5Z"/><path d="M97.28,58.82a1.28,1.28,0,0,1-.11.2l-.24.15a1.88,1.88,0,0,1,.12-.18h0Z"/><path d="M97.17,59c-.07.15-.15.29-.23.43s-.12,0-.11-.15.06-.09.1-.13Z"/><path d="M97.05,59a1.88,1.88,0,0,0-.12.18l-.07,0s0,0,0,0A.35.35,0,0,1,97.05,59Z"/><path class="cls-3" d="M96.73,41.91A5,5,0,0,0,96.94,40a17.56,17.56,0,0,0-1.4-6.68,10.74,10.74,0,0,0-4.5-5l.57.51a37.82,37.82,0,0,1,2.41,3,9.62,9.62,0,0,1,1.13,5.31c-.06,1.84-.39,3.66-.48,5.49a2.26,2.26,0,0,0,0,.26l-.74.19a18.21,18.21,0,0,0-1.12-3.29.05.05,0,0,0,0,0L92.4,38a.29.29,0,0,0,.2-.48c-2.93-3.74-2.48-8.1-3.24-12.32,4.46,4.55,13.29,4.79,7.33,17l0,0Z"/><path class="cls-5" d="M96.94,40a5,5,0,0,1-.21,1.89l-.09.22a1.91,1.91,0,0,1-1.21,1.07.62.62,0,0,1-.71-.21.5.5,0,0,1,0-.13,2.26,2.26,0,0,1,0-.26c.09-1.83.42-3.65.48-5.49A9.62,9.62,0,0,0,94,31.8a37.82,37.82,0,0,0-2.41-3L91,28.31a10.74,10.74,0,0,1,4.5,5A17.56,17.56,0,0,1,96.94,40Z"/><path d="M96.94,59.45l-.27.51-.48.24c.22-.29.44-.59.64-.9C96.82,59.41,96.87,59.45,96.94,59.45Z"/><path d="M96.86,59.21l.07,0s-.06.09-.1.13A.94.94,0,0,0,96.86,59.21Z"/><path d="M96.19,60.2l.48-.24c-.93,1.72-1.86,3.45-2.74,5.2L85.4,69.33l0-.09a32,32,0,0,0,6.94-4.76A29,29,0,0,0,96.19,60.2Z"/><path d="M96.82,62.18c-.72,1.84-1.42,3.7-2.1,5.55-.52.43-1,.9-1.52,1.39l-.26.25a.19.19,0,0,0-.26-.07,4.61,4.61,0,0,0-.59.4c.52-1.45,1.12-3,1.83-4.52,0,0,0,0,0,0A29,29,0,0,0,96.82,62.18Z"/><path d="M95.37,89.88a.05.05,0,0,0,0,.05c-1.33-.87-2.33-2.55-3.19-3.71a25.65,25.65,0,0,1-1.5-2.16c.09-.85.18-1.71.28-2.55l.09.11a15.5,15.5,0,0,0,1,2.86c.82,1.9,1.74,3.75,3.35,4.57A.72.72,0,0,0,95.37,89.88Z"/><path d="M94.72,67.73c-.29.78-.58,1.57-.85,2.35l-2.42,1.61-.06,0c.22-.65.45-1.33.7-2a4.61,4.61,0,0,1,.59-.4.19.19,0,0,1,.26.07c-1,1-1,1.1-.06.28a.18.18,0,0,0,.06-.28l.26-.25C93.69,68.63,94.2,68.16,94.72,67.73Z"/><path d="M93.94,43.05a13.81,13.81,0,0,1-.87,9.52c-.13.26-.27.51-.42.76-.36.57-1.39.19-1.14-.48,1.72-4.41,2.66-8.39,1.2-13.05a.06.06,0,0,1,.06-.08.05.05,0,0,1,0,0A18.21,18.21,0,0,1,93.94,43.05Z"/><path class="cls-8" d="M93.93,65.16s0,0,0,0a36.26,36.26,0,0,1-17.43,8.51l8.91-4.36Z"/><path d="M91.45,71.69l2.42-1.61c-.35.94-.68,1.88-1,2.82-.22.64-.43,1.29-.6,1.93a11.81,11.81,0,0,0-1-1.1.8.8,0,0,0-.48-.21c.19-.58.39-1.19.6-1.81Z"/><path class="cls-3" d="M92.65,53.33l.91.6a30.4,30.4,0,0,1-2.15,2.81c-6,7-14.8,10.86-23.85,11.91a1.17,1.17,0,0,0-.77.39,33.57,33.57,0,0,1-16.37-3.9A27.74,27.74,0,0,1,35.64,43.31a1,1,0,0,0,.64-1,2.87,2.87,0,0,1,.37-1.43h0a4.4,4.4,0,0,1,1.31-1.38c1.39-1,3.34-1.61,4.51-2.52a4.3,4.3,0,0,0,1.7-4.65.23.23,0,0,0-.24-.18l.67-.57a1.13,1.13,0,0,0,2-.65c.21-4.63,1.82-11.18,6.77-12.62,2.63-.77,5.45-.76,8-1.8,4.65-1.9,4.78-5.78,6.21-9.48a9.66,9.66,0,0,0,1.33,3,15.88,15.88,0,0,0,4,4.34c1,.72,2.35,1,3.3,1.81,3.28,2.62,2.23,4.41,2,7.42-.05.59.81.65,1,.14a8.08,8.08,0,0,0,.1-5.46c10.38-1,7.21,14.66,12.95,19.58a.31.31,0,0,0,.19.08l.37,1.75a.06.06,0,0,0-.06.08c1.46,4.66.52,8.64-1.2,13.05C91.26,53.52,92.29,53.9,92.65,53.33ZM89.56,39.58A7,7,0,0,0,89,36a2.43,2.43,0,0,0-3.12-1.19l1-.07c1.65,2.94,1.4,6.54,1,9.88-.28,2.37-.69,4.9-2.36,6.59a9.73,9.73,0,0,1-3.37,2,2.29,2.29,0,0,0-1.63,1,1.35,1.35,0,0,0,0,1.22,6.3,6.3,0,0,0-1.39.17c-2.14.55-3.26,2.56-4.71,4-.07.08,0,.23.13.16,1.32-.86,2.42-2.17,4-2.41,1.45-.21,2.91.25,4.34.28,2,0,3.77-.52,4.75-2.35a.9.9,0,0,0-1.41-1.09,4.36,4.36,0,0,1-3.14,1.18,2.21,2.21,0,0,0,.29-.32,1.43,1.43,0,0,0,.15-1.38,2.16,2.16,0,0,0,.7-.2,5.06,5.06,0,0,0,1.63-1.53,20.4,20.4,0,0,0,1.83-2.61C89.35,46.4,89.48,42.92,89.56,39.58Zm-6.29,4c.75-.1,1.33-1.23.45-1.64-1.9-.88-3.18-1.84-3-4.1a6.45,6.45,0,0,0-.12-3,4.38,4.38,0,0,0-.29-.57c-.41-.64-1.67-.46-1.57.43,0,.07,0,.14,0,.22.34,4.32-3.41,8.8-7.2,10.37-.37.15-.23.74.17.62a11.85,11.85,0,0,0,6.13-4,10.27,10.27,0,0,0,1-1.53,3.73,3.73,0,0,0,.31.72A4.33,4.33,0,0,0,83.27,43.54Zm-8.21,5.54a1.86,1.86,0,0,0,.58-1.66c-3.17,1.72-6.42,3.47-10,4-2.06.31-4.27.21-6.06,1.27h-.38c.17.78,1.17,1,2,1,4.31,0,8.42-1.78,12.32-3.63A5.63,5.63,0,0,0,75.06,49.08ZM70.83,63a1.28,1.28,0,0,0,.45-1.88,1.42,1.42,0,0,0-1-.53.82.82,0,0,0,.11-.31l-.84.39-.27.13.27-.13a1.63,1.63,0,0,1,.73-.08c-.22.45-.73.78-.85,1.28A1.07,1.07,0,0,0,70.83,63ZM68.36,32.65a1,1,0,0,0,.5-1.87,6.25,6.25,0,0,1-2.49-2.89,12.05,12.05,0,0,1-.48-4l0-.71a4.66,4.66,0,0,0-1,.38,7.8,7.8,0,0,0-2.18,1.8c-.73.78-1.38,1.62-2.18,2.32a7.4,7.4,0,0,1-2.37,1.48c-.51.17-3.08.71-2.85-.54,0,0,0,0,0,0-.66.17-.68.66-.43,1.26.44,1.06,2,1.19,3,1,2.91-.48,4.49-3.23,6.44-5.42a7.4,7.4,0,0,0,.13,3.93A4.37,4.37,0,0,0,68.36,32.65Zm-4.1,17.14a.86.86,0,0,0-.44-1.59,6.43,6.43,0,0,1-4.3-.77c-1-.71-1.39-2.07-2.49-2.66-1.76-.93-3.61.52-4.86,1.68-.3.28.11.85.46.6.52-.37,1.57-1.2,2.19-1.17,1,.06,1.78,1,2.37,1.7a8.73,8.73,0,0,0,1.88,1.86A5.24,5.24,0,0,0,64.26,49.79Zm-.65,11.9c-1.25-1.15-3.22-.74-4.89-1-1.88-.36-3.42-1.66-5-2.77a38.44,38.44,0,0,0-5.53-3.18c-.52-.55-1.05-1.1-1.6-1.63l0,.88c.53.24,1,.49,1.58.75A40.18,40.18,0,0,0,54,60.05C56.79,62,60.5,63.06,63.61,61.69ZM51.47,54.41c1.12-.16,1.66-1.93.29-2.2-2.45-.49-5-3.12-6-5.34-1.26-2.72-.33-4.85,1.69-6.81,0,0,0,0,0,0-3.18-.38-4.61,4-4.1,6.43C44,49.73,47.68,54.91,51.47,54.41Z"/><path d="M92.94,69.37a.18.18,0,0,1-.06.28C91.89,70.47,91.9,70.38,92.94,69.37Z"/><path class="cls-8" d="M93.92,65.18c-.71,1.55-1.31,3.07-1.83,4.52a2.63,2.63,0,0,0-.51.55C92.3,68.55,93.08,66.85,93.92,65.18Z"/><path d="M92.27,74.83c-.08.29-.16.57-.23.86-.17-.32-.34-.64-.5-1l.27,2c-.06.23-.11.47-.15.7-.55-.81-1-1.56-1.41-2.19.17-.54.36-1.11.54-1.7a.8.8,0,0,1,.48.21A11.81,11.81,0,0,1,92.27,74.83Z"/><path class="cls-8" d="M93.92,65.18c-.84,1.67-1.62,3.37-2.34,5.07a4.43,4.43,0,0,0-.49,1.16v0c-.28.72-.54,1.44-.79,2.16-.13.37-.25.74-.37,1.1a40.14,40.14,0,0,0-1.1,4.45,0,0,0,0,0,0,0,14.23,14.23,0,0,0-1.09,4.22c-2.42.4-2.59,4.55-5,4.48A6.11,6.11,0,0,1,81,87.37c-3.5-1.14-7.47,2.41-10.84,1-.9-.39-1.61-1.08-2.54-1.39-2.48-.8-4.9,1.52-7.53,1.69-2.84.19-5.33-2.15-8.17-2-1.84.1-3.55,1.23-5.37,1-1.55-.18-.23-.35-.9-1.65a13.59,13.59,0,0,1-.74-1.89v0c-.26-1.17-.58-2.34-.92-3.5a0,0,0,0,1,0,0c-.9-4.71-3.79-11-6.37-15.18a28.13,28.13,0,0,0,9.9,5.84c5.53,2,12.45,3.73,18.64,3.3h0a62.32,62.32,0,0,0,9.3-.31l1.06-.52A36.26,36.26,0,0,0,93.92,65.18Z"/><path d="M91.54,74.72c.16.33.33.65.5,1-.09.34-.17.68-.23,1Z"/><path d="M91.81,76.71l.11.83-.09.11-.17-.24C91.7,77.18,91.75,76.94,91.81,76.71Z"/><path class="cls-8" d="M91.58,70.25a2.63,2.63,0,0,1,.51-.55c-.25.68-.48,1.36-.7,2a.24.24,0,0,1-.3-.26C91.25,71.05,91.41,70.65,91.58,70.25Z"/><path d="M91.66,77.41c0,.22-.09.45-.13.67A4.43,4.43,0,0,0,91,81.32l0,.19a11.53,11.53,0,0,0-1.34-1.44.2.2,0,0,0-.34.14l-.65-.09c0-.31.1-.62.16-.93a0,0,0,0,1,0,0c.12-.32.24-.62.35-.9.36-.92.71-1.94,1.07-3C90.64,75.85,91.11,76.6,91.66,77.41Z"/><path class="cls-8" d="M91.58,70.25c-.17.4-.33.8-.49,1.2v0A4.43,4.43,0,0,1,91.58,70.25Z"/><path class="cls-8" d="M91.39,71.71c-.21.62-.41,1.23-.6,1.81a.83.83,0,0,0-.49.09c.25-.72.51-1.44.79-2.16A.24.24,0,0,0,91.39,71.71Z"/><path d="M91.53,78.08c-.22,1.08-.38,2.16-.51,3.24A4.43,4.43,0,0,1,91.53,78.08Z"/><path d="M91,81.51c-.1.84-.19,1.7-.28,2.55a8.12,8.12,0,0,1-1.4-3.85.2.2,0,0,1,.34-.14A11.53,11.53,0,0,1,91,81.51Z"/><path class="cls-8" d="M90.3,73.61a.83.83,0,0,1,.49-.09c-.18.59-.37,1.16-.54,1.7l-.3-.47a.08.08,0,0,1,0,0C90.05,74.35,90.17,74,90.3,73.61Z"/><path class="cls-8" d="M90,74.75l.3.47c-.36,1.1-.71,2.12-1.07,3-.11.28-.23.58-.35.9a40.14,40.14,0,0,1,1.1-4.45A.08.08,0,0,0,90,74.75Z"/><path d="M90.71,84.06c-.26,2.5-.46,5-.84,7.6-1,7-5.86,13.31-12.54,14.53A24.39,24.39,0,0,0,80,104.68a.3.3,0,0,0-.31-.52l-.09,0a19.12,19.12,0,0,0,5.8-6.27c3-5.11,2.37-11.48,3.15-17.16l.09-.65.65.09A8.12,8.12,0,0,0,90.71,84.06ZM87.09,96a.08.08,0,1,0,0-.16A.08.08,0,0,0,87.09,96Z"/><path class="cls-5" d="M89,36a7,7,0,0,1,.56,3.63c-.08,3.34-.21,6.82-1.84,9.73a20.4,20.4,0,0,1-1.83,2.61,5.06,5.06,0,0,1-1.63,1.53,2.16,2.16,0,0,1-.7.2.9.9,0,0,0-.35-.4,1.51,1.51,0,0,0-1-.09,9.73,9.73,0,0,0,3.37-2c1.67-1.69,2.08-4.22,2.36-6.59.39-3.34.64-6.94-1-9.88l-1,.07A2.43,2.43,0,0,1,89,36Z"/><path d="M88.94,61.32c.32-.19.56.27.29.48a43.18,43.18,0,0,1-22.58,8.43A1.13,1.13,0,0,1,66.79,69c.83,0,1.65,0,2.49-.09C76.67,68.43,82.74,65.06,88.94,61.32Z"/><path class="cls-9" d="M88.82,79.19c-.06.31-.11.62-.16.93l-.09.65c-.78,5.68-.12,12-3.15,17.16a19.12,19.12,0,0,1-5.8,6.27h0a32.56,32.56,0,0,1-6.62,2l-1.21.21h-.05a.94.94,0,0,0-.3.05,30.31,30.31,0,0,1-8.87,0c-.76-.11-1.51-.25-2.26-.43a25.89,25.89,0,0,1-8.57-3.72,12.64,12.64,0,0,1-4.3-4.3c-1.14-2-1.06-4-1.27-6.28a56.31,56.31,0,0,0-1.28-7.67A13.59,13.59,0,0,0,45.6,86c.67,1.3-.65,1.47.9,1.65,1.82.22,3.53-.91,5.37-1,2.84-.15,5.33,2.19,8.17,2,2.63-.17,5.05-2.49,7.53-1.69.93.31,1.64,1,2.54,1.39,3.37,1.44,7.34-2.11,10.84-1a6.11,6.11,0,0,0,1.74.52c2.45.07,2.62-4.08,5-4.48-.15.12-.07.11,0,.08,0,.12.11,0,.12-.08s0-.1-.13,0A14.23,14.23,0,0,1,88.82,79.19Z"/><path class="cls-8" d="M87.73,83.41c.13-.1.16-.06.13,0S87.83,83.39,87.73,83.41Z"/><path class="cls-8" d="M87.73,83.41c.1,0,.13,0,.13,0s-.06.06-.12.08A.19.19,0,0,1,87.73,83.41Z"/><path class="cls-8" d="M87.86,83.41c0,.08-.1.2-.12.08S87.86,83.43,87.86,83.41Z"/><path d="M86.26,54.17a.9.9,0,0,1,1.41,1.09c-1,1.83-2.76,2.37-4.75,2.35-1.43,0-2.89-.49-4.34-.28-1.62.24-2.72,1.55-4,2.41-.1.07-.2-.08-.13-.16,1.45-1.48,2.57-3.49,4.71-4a6.3,6.3,0,0,1,1.39-.17,1,1,0,0,0,.47.48l.76.25a4.85,4.85,0,0,0,1.38-.75A4.36,4.36,0,0,0,86.26,54.17Z"/><path class="cls-8" d="M87.73,83.41a.19.19,0,0,0,0,.08C87.66,83.52,87.58,83.53,87.73,83.41Z"/><path d="M87.09,95.81a.08.08,0,1,1,0,.16A.08.08,0,0,1,87.09,95.81Z"/><path d="M85.36,69.24l0,.09-8.91,4.36a46.53,46.53,0,0,1-10.36.83A23.18,23.18,0,0,0,69.5,74a.31.31,0,0,0-.07-.6c-1.39,0-2.84,0-4.3-.14a45.73,45.73,0,0,0,12.49-1.2A35.6,35.6,0,0,0,85.36,69.24Z"/><path d="M83.72,41.9c.88.41.3,1.54-.45,1.64a4.33,4.33,0,0,1-4.19-2.45,3.73,3.73,0,0,1-.31-.72,16.62,16.62,0,0,0,1.57-5.47l.21-.08a6.45,6.45,0,0,1,.12,3C80.54,40.06,81.82,41,83.72,41.9Z"/><path class="cls-6" d="M83.56,53.65A1.43,1.43,0,0,1,83.41,55a2.21,2.21,0,0,1-.29.32c-.86,0-1.75,0-2.61,0a1.35,1.35,0,0,1,0-1.22,2.29,2.29,0,0,1,1.63-1A1.53,1.53,0,0,0,83.56,53.65Z"/><path class="cls-6" d="M83.56,53.65a1.53,1.53,0,0,1-1.38-.49,1.51,1.51,0,0,1,1,.09A.9.9,0,0,1,83.56,53.65Z"/><path class="cls-6" d="M80.51,55.37c.86,0,1.75,0,2.61,0a4.85,4.85,0,0,1-1.38.75L81,55.85A1,1,0,0,1,80.51,55.37Z"/><path d="M82.77,115c2.32,9.46-15.8,9.48-21,8.88-3.9-.44-8.66-1.36-10.55-5.28a6,6,0,0,1-.41-3.92,6,6,0,0,0,.11.7,5.73,5.73,0,0,0,2.91,3.32c.23.31.4.51.44.55a9.53,9.53,0,0,0,4.79,2.4,43.22,43.22,0,0,0,7.52,1c5.78.38,13.79.71,15-6.19a5.28,5.28,0,0,0,.42-1.72,4.92,4.92,0,0,0-.25-1.83A12.74,12.74,0,0,1,82.77,115Z"/><path d="M81.74,112.88a4.92,4.92,0,0,1,.25,1.83.53.53,0,0,0-.28.45,7,7,0,0,1-.09.93c0-1-.43-3.29-.4-3.77C81.31,112.26,81.52,112.51,81.74,112.88Z"/><path d="M82,114.71a5.28,5.28,0,0,1-.42,1.72.91.91,0,0,0,.05-.33h0a7,7,0,0,0,.09-.93A.53.53,0,0,1,82,114.71Z"/><path d="M81.62,116.09h0c0,.12,0,.23-.05.33a7,7,0,0,1-.85,1.43c-3.13,4.06-11.61,4.39-16.16,3.91-2.39-.26-7.48-1.12-10.76-3.06-.91-1.22-2.86-4.11-1.64-4.42a.12.12,0,0,0,.08-.15c0-.06,0-.11,0-.16a.3.3,0,0,0-.27-.2,1.32,1.32,0,0,0-1.17.91c-.35-3.66,3.65-6.29,6.86-7.13.25.07.49.15.74.2-3.47,1.56-7.52,6-3.47,9.07,2.47,1.89,6.82,2.39,9.79,2.9,3.3.57,6.8,1.24,10.13.54s9-3.15,4.62-9.17c-.94-1.27-3.69-2.95-5-3.75l.63-.23h0a.76.76,0,0,0,.32-.11h0l.31-.13a.79.79,0,0,1,.35.09c2.36,1.34,4.86,3.45,5.65,5.92-.22-.37-.43-.62-.52-.56C81.19,112.8,81.67,115.12,81.62,116.09Z"/><path d="M81.57,116.43c0-.1,0-.21.05-.33A.91.91,0,0,1,81.57,116.43Z"/><path class="cls-7" d="M80.72,117.86a7,7,0,0,0,.85-1.43c-1.23,6.9-9.24,6.57-15,6.19a43.22,43.22,0,0,1-7.52-1,9.53,9.53,0,0,1-4.79-2.4s-.21-.24-.44-.55c3.28,1.94,8.37,2.8,10.76,3.06C69.11,122.25,77.59,121.92,80.72,117.86Z"/><path d="M78.72,34.9h1.62a16.62,16.62,0,0,1-1.57,5.47C78.17,38.5,79.21,36.83,78.72,34.9Z"/><path d="M79.71,104.16a.3.3,0,0,1,.31.52,24.39,24.39,0,0,1-2.69,1.51,12.68,12.68,0,0,1-2.4.21c.43-.16.87-.35,1.29-.55a13.82,13.82,0,0,0,3.37-1.64h0Z"/><path class="cls-7" d="M79.45,111.1c4.41,6-1.16,8.46-4.62,9.17s-6.83,0-10.13-.54c-3-.51-7.32-1-9.79-2.9-4-3.1,0-7.51,3.47-9.07a27.72,27.72,0,0,0,4.85.87,5.41,5.41,0,0,1,.46,3.65c-.15,1.12,1.69,1.34,2,.26a4.67,4.67,0,0,0-.92-3.83,28.24,28.24,0,0,0,4.6-.2,3.84,3.84,0,0,0-.66,4.86c.45.66,1.7.48,1.63-.45a8.19,8.19,0,0,1,.58-4.66,26.52,26.52,0,0,0,3.56-.91h0C75.76,108.15,78.51,109.83,79.45,111.1Z"/><path d="M78.72,34.9c.49,1.93-.55,3.6,0,5.47a10.27,10.27,0,0,1-1,1.53,11.85,11.85,0,0,1-6.13,4c-.4.12-.54-.47-.17-.62C75.29,43.7,79,39.22,78.7,34.9Z"/><path d="M79.59,104.21a13.82,13.82,0,0,1-3.37,1.64C77.36,105.33,78.45,104.72,79.59,104.21Z"/><path d="M79.59,104.21c-1.14.51-2.23,1.12-3.37,1.64a13,13,0,0,1-2.22.52c-.35,0-.69-.07-1-.12A32.56,32.56,0,0,0,79.59,104.21Z"/><path d="M77.33,106.19c-.52.24-1,.47-1.59.68a.49.49,0,0,0-.31.13h0l-.32.11h0c-.42.07-1,0-.64.23a26.52,26.52,0,0,1-3.56.91,4.91,4.91,0,0,1,.34-.5c.12-.16,0-.51-.24-.4a4.77,4.77,0,0,0-1.65,1.15,28.24,28.24,0,0,1-4.6.2,6.22,6.22,0,0,0-2-1.79.45.45,0,0,0-.21-.06l.06-.35a30.31,30.31,0,0,0,8.87,0c-.43.16-.45.68.13.84s1.18-.57,1.74-.49a9.94,9.94,0,0,0,1.64-.46h0A12.68,12.68,0,0,0,77.33,106.19Z"/><path class="cls-9" d="M76.49,73.69l-1.06.52a62.32,62.32,0,0,1-9.3.31A46.53,46.53,0,0,0,76.49,73.69Z"/><path d="M75.74,106.87l-.31.13A.49.49,0,0,1,75.74,106.87Z"/><path class="cls-5" d="M75.64,47.42a1.86,1.86,0,0,1-.58,1.66,5.63,5.63,0,0,1-1.55,1c-3.9,1.85-8,3.61-12.32,3.63-.81,0-1.81-.22-2-1h.38c1.79-1.06,4-1,6.06-1.27C69.22,50.89,72.47,49.14,75.64,47.42Z"/><path d="M76.22,105.85c-.42.2-.86.39-1.29.55h0c-.31,0-.61,0-.92,0A13,13,0,0,0,76.22,105.85Z"/><path d="M75.08,107.12l-.63.23h0C74.12,107.14,74.66,107.19,75.08,107.12Z"/><path d="M74,106.37c.31,0,.61,0,.92,0a9.94,9.94,0,0,1-1.64.46c-.56-.08-1.16.64-1.74.49s-.56-.68-.13-.84l.3-.05h.05A13.9,13.9,0,0,0,74,106.37Z"/><path d="M73,106.25c.34,0,.68.08,1,.12a13.9,13.9,0,0,1-2.24.09Z"/><path d="M71.71,106.46l-.3.05A.94.94,0,0,1,71.71,106.46Z"/><path class="cls-3" d="M71.28,61.15A1.28,1.28,0,0,1,70.83,63a1.07,1.07,0,0,1-1.41-1.13c.12-.5.63-.83.85-1.28A1.42,1.42,0,0,1,71.28,61.15Z"/><path d="M71,107.36c.25-.11.36.24.24.4a4.91,4.91,0,0,0-.34.5c-.51.1-1,.18-1.55.25A4.77,4.77,0,0,1,71,107.36Z"/><path class="cls-3" d="M69.54,60.7l.84-.39a.82.82,0,0,1-.11.31A1.63,1.63,0,0,0,69.54,60.7Z"/><path d="M70.3,112.92c.07.93-1.18,1.11-1.63.45a3.84,3.84,0,0,1,.66-4.86c.52-.07,1-.15,1.55-.25A8.19,8.19,0,0,0,70.3,112.92Z"/><path d="M69.43,73.43a.31.31,0,0,1,.07.6,23.18,23.18,0,0,1-3.37.49h0l-1.27-.06a54.54,54.54,0,0,1-8.17-1.08l-.19-.08c-.4-.27-.1-1,.46-.92a57.82,57.82,0,0,0,8.11.9h.1C66.59,73.39,68,73.43,69.43,73.43Z"/><path class="cls-3" d="M69.54,60.7l-.27.13Z"/><path d="M50.42,65.14A33.57,33.57,0,0,0,66.79,69a1.13,1.13,0,0,0-.14,1.19,33.62,33.62,0,0,1-19.13-4c-10.22-5.82-16-17.94-12.71-29a14.28,14.28,0,0,0,.53,1.85,5.12,5.12,0,0,0-1.26,3.21,1.06,1.06,0,0,0,1.56,1A27.74,27.74,0,0,0,50.42,65.14Z"/><path class="cls-8" d="M64.82,74.46l1.27.06C59.9,75,53,73.21,47.45,71.22a28.13,28.13,0,0,1-9.9-5.84L56.46,73.3a.37.37,0,0,0,.19.08A37.68,37.68,0,0,0,64.82,74.46Z"/><path d="M64.73,108.71a4.67,4.67,0,0,1,.92,3.83c-.27,1.08-2.11.86-2-.26a5.41,5.41,0,0,0-.46-3.65C63.73,108.67,64.22,108.7,64.73,108.71Z"/><path d="M63.82,48.2a.86.86,0,0,1,.44,1.59,5.24,5.24,0,0,1-5.19-.35,8.73,8.73,0,0,1-1.88-1.86c-.59-.67-1.32-1.64-2.37-1.7-.62,0-1.67.8-2.19,1.17-.35.25-.76-.32-.46-.6,1.25-1.16,3.1-2.61,4.86-1.68,1.1.59,1.45,1.95,2.49,2.66A6.43,6.43,0,0,0,63.82,48.2Z"/><path d="M64.73,108.71c-.51,0-1,0-1.5-.08a3.44,3.44,0,0,0-.94-1,.41.41,0,0,1,.19-.75.45.45,0,0,1,.21.06A6.22,6.22,0,0,1,64.73,108.71Z"/><path d="M62.29,107.61a3.44,3.44,0,0,1,.94,1,27.72,27.72,0,0,1-4.85-.87l.37-.15a.14.14,0,0,0-.08-.26c-.33.05-.67.12-1,.21a23,23,0,0,1-11.21-7.25c-1.91-2.33-1.93-4.89-2.19-7.79a57.43,57.43,0,0,0-2.87-13.39c-1.54-4.59-4.59-11.89-6.88-17.28a21.61,21.61,0,0,0,3.06,3.53,79.73,79.73,0,0,1,6.37,15.18,0,0,0,0,0,0,0,31.92,31.92,0,0,0,.92,3.5v0a56.31,56.31,0,0,1,1.28,7.67c.21,2.27.13,4.23,1.27,6.28a12.64,12.64,0,0,0,4.3,4.3,25.89,25.89,0,0,0,8.57,3.72c.75.18,1.5.32,2.26.43l-.06.35A.41.41,0,0,0,62.29,107.61Z"/><path class="cls-5" d="M58.72,60.64c1.67.31,3.64-.1,4.89,1-3.11,1.37-6.82.3-9.61-1.64a40.18,40.18,0,0,1-5.79-5.36,38.44,38.44,0,0,1,5.53,3.18C55.3,59,56.84,60.28,58.72,60.64Z"/><path d="M58.67,107.35a.14.14,0,0,1,.08.26l-.37.15c-.25-.05-.49-.13-.74-.2C58,107.47,58.34,107.4,58.67,107.35Z"/><path d="M65,73.28a57.82,57.82,0,0,1-8.11-.9c-.56-.11-.86.65-.46.92L37.55,65.38a98.45,98.45,0,0,0-5.18-8.49c-.36-.83-.61-1.44-.73-1.76.14.41.27.85.42,1.31q-.21-.28-.39-.57a.31.31,0,0,0-.27-.1c-2.52-7.37-1.59-15.9,3.08-22.11a12.93,12.93,0,0,0,.12,2.48c-.14.29-.28.58-.41.87-3.56,8-3.37,16.89,2.65,24.37C43.27,69.37,54.8,72.59,65,73.28Z"/><path d="M56.65,73.38a54.54,54.54,0,0,0,8.17,1.08A37.68,37.68,0,0,1,56.65,73.38Z"/><path class="cls-8" d="M56.46,73.3l.19.08A.37.37,0,0,1,56.46,73.3Z"/><path d="M52.24,114.14a.12.12,0,0,1-.08.15c-1.22.31.73,3.2,1.64,4.42a5.73,5.73,0,0,1-2.91-3.32,6,6,0,0,1-.11-.7,1.32,1.32,0,0,1,1.17-.91.3.3,0,0,1,.27.2S52.23,114.08,52.24,114.14Z"/><path d="M51.76,52.21c1.37.27.83,2-.29,2.2-3.79.5-7.44-4.68-8.12-7.95-.51-2.47.92-6.81,4.1-6.43,0,0,0,0,0,0-2,2-2.95,4.09-1.69,6.81C46.8,49.09,49.31,51.72,51.76,52.21Z"/><path class="cls-5" d="M48.21,54.69c-.53-.26-1.05-.51-1.58-.75l0-.88C47.16,53.59,47.69,54.14,48.21,54.69Z"/><path class="cls-8" d="M44.85,84.09a31.92,31.92,0,0,1-.92-3.5C44.27,81.75,44.59,82.92,44.85,84.09Z"/><path class="cls-9" d="M43.92,80.56a79.73,79.73,0,0,0-6.37-15.18C40.13,69.53,43,75.85,43.92,80.56Z"/></g></g></g></g></svg>