<svg xmlns="http://www.w3.org/2000/svg" viewBox="0 0 105.49 97.11"><defs><style>.cls-1{isolation:isolate;}.cls-2{fill:#fff;}.cls-3{fill:#b1d3a3;}.cls-4{fill:none;stroke:#000;stroke-miterlimit:10;}.cls-5{opacity:0.15;mix-blend-mode:darken;}</style></defs><g class="cls-1"><g id="Layer_2" data-name="Layer 2"><g id="dragzone_items"><g id="marcha_latte"><path class="cls-2" d="M83.22,38.08a19.58,19.58,0,0,0-2.07.78c.13-.6.23-1.21.31-1.81A32.25,32.25,0,0,0,81.62,30a.19.19,0,0,0,0-.07c.52-.18,1-.35,1.57-.49A18,18,0,0,1,85,29a17.17,17.17,0,0,1,10,.8c5.2,2.07,9.55,7.29,9.84,13,.35,6.46-4.58,11.85-9.84,14.85a16.55,16.55,0,0,1-10.44,2.11c-.93-.11-8.88-.63-6.63-5.92.27-.61.53-1.24.79-1.86s.44-1.07.65-1.61l.11-.27.22.06.48.12a25.76,25.76,0,0,0,11.48.33c3.74-.87,6.73-3,7.12-7C99.44,35.76,89.42,36.12,83.22,38.08Z"/><path class="cls-2" d="M42.94,33.39c-.09-3.81-3.7-6.62-6.72-8.71-1.8-1.24-3.75-2.46-5-4.35-2.37-3.7-1-8.75,5.07-7.65,3.82.69,7.81,5.78,10.28,8.52a.05.05,0,0,0,0,0,.09.09,0,0,0,.06,0,.16.16,0,0,0,.3.07,17.65,17.65,0,0,1,4.92-4.86A21.15,21.15,0,0,1,55,14.89c2.17.11,2.66,1.48,2.78,3.33,1.42,4.58-5,8.68-8.1,10.52A36.62,36.62,0,0,0,42.94,33.39Z"/><path class="cls-2" d="M77.68,49.51c-.37,1.05-.75,2.11-1.14,3.17-.49,1.3-1,2.61-1.51,3.91-.23.59-.47,1.17-.71,1.76C69.66,69.67,57.1,76.68,45,77.28c-10.77.55-22.78-6.38-27.88-15.74a71.79,71.79,0,0,1-5.72-13.81c.67.78,1.37,1.51,2.1,2.21,8.16,7.83,19.56,11.75,30.76,11.86,10.83.11,23.1-3.64,30.84-11.49A22.11,22.11,0,0,0,79.51,44c-.44,1.41-.89,2.82-1.38,4.22C78,48.62,77.84,49.06,77.68,49.51Z"/><path d="M85.13,27.63c0,.45-.1.89-.16,1.34a18,18,0,0,0-1.76.43c.09-.48.18-1,.28-1.43C84,27.83,84.58,27.72,85.13,27.63Z"/><path d="M97.35,45.82a5.18,5.18,0,0,0-2.9-7.48A22.34,22.34,0,0,0,89.78,38,21.85,21.85,0,0,0,83,39c.07-.32.16-.64.23-1,6.2-2,16.22-2.32,15.48,5.49-.39,4-3.38,6.17-7.12,7a27.38,27.38,0,0,0,4.06-2.76l0,0A7.84,7.84,0,0,0,97.35,45.82Z"/><path d="M83.49,28c-.1.47-.19,1-.28,1.43-.53.14-1,.31-1.57.49.13-.51.24-1,.34-1.51A12.94,12.94,0,0,1,83.49,28Z"/><path d="M81.64,29.89a.19.19,0,0,1,0,.07V29.9Z"/><path d="M81.62,29.9c0-.45-.08-.91-.13-1.36l.49-.16c-.1.5-.21,1-.34,1.51Z"/><path d="M80.44,28.93c.35-.14.69-.27,1-.39.05.45.1.91.13,1.36l-1.06.39C80.53,29.84,80.49,29.38,80.44,28.93Z"/><path d="M81,38.94c.17-.63.34-1.26.5-1.89-.08.6-.18,1.21-.31,1.81Z"/><path d="M83,39c-.69.21-1.36.45-2,.71.07-.3.13-.6.19-.89a19.58,19.58,0,0,1,2.07-.78C83.15,38.4,83.06,38.72,83,39Z"/><path d="M79.92,39.49a27.41,27.41,0,0,0,.75-6.41,29.42,29.42,0,0,0,1-3.12,32.25,32.25,0,0,1-.16,7.09c-.16.63-.33,1.26-.5,1.89C80.57,39.12,80.23,39.31,79.92,39.49Z"/><path d="M81.15,38.86c-.06.29-.12.59-.19.89l-.25.1.25-.91Z"/><path d="M81.62,29.9V30a29.42,29.42,0,0,1-1,3.12c0-.92,0-1.86-.11-2.79Z"/><path d="M83,39c-.86,3.27-1.88,6.51-3.06,9.68l-1.8-.54c.49-1.4.94-2.81,1.38-4.22A23.54,23.54,0,0,0,81,39.75C81.63,39.49,82.3,39.25,83,39Z"/><path d="M80.71,39.85l-.52.22A.34.34,0,0,1,79.8,40a4.05,4.05,0,0,0,.12-.5c.31-.18.65-.37,1-.55Z"/><path d="M80.56,30.29c-.54.22-1.1.45-1.63.7.14-.52.27-1,.39-1.57.37-.18.74-.34,1.12-.49C80.49,29.38,80.53,29.84,80.56,30.29Z"/><path d="M79.62,50.16a3.45,3.45,0,0,1,.41-.25c.16-.1.3.12.18.25l-.11.12Z"/><path d="M79.32,29.42a24.91,24.91,0,0,0,.57-4c.23,1.15.41,2.3.55,3.46C80.06,29.08,79.69,29.24,79.32,29.42Z"/><path d="M79.51,44q.63-2,1.2-4.11l.25-.1A23.54,23.54,0,0,1,79.51,44Z"/><path d="M79.93,48.72c-.18.46-.36.92-.53,1.38a18.11,18.11,0,0,1-1.72-.59c.16-.45.32-.89.45-1.33Z"/><path d="M79.4,50.1c.17-.46.35-.92.53-1.38,4.93,1.39,11.68,2.36,15.68-.91l0,0a27.38,27.38,0,0,1-4.06,2.76,25.76,25.76,0,0,1-11.48-.33l.11-.12c.12-.13,0-.35-.18-.25a3.45,3.45,0,0,0-.41.25Z"/><path d="M78.64,52c-.26.62-.52,1.25-.79,1.86-.07-.19-.14-.37-.22-.56C78,52.84,78.29,52.41,78.64,52Z"/><path d="M78.7,16.86a53.35,53.35,0,0,1,2.79,11.68c-.36.12-.7.25-1,.39-.14-1.16-.32-2.31-.55-3.46a15.69,15.69,0,0,0-1.93-9A.59.59,0,0,1,78.7,16.86Z"/><path d="M79.29,50.37a13,13,0,0,0-2.75,2.31c.39-1.06.77-2.12,1.14-3.17a18.11,18.11,0,0,0,1.72.59Z"/><path d="M77.85,53.84c-2.25,5.29,5.7,5.81,6.63,5.92a16.55,16.55,0,0,0,10.44-2.11c5.26-3,10.19-8.39,9.84-14.85-.29-5.74-4.64-11-9.84-13A17.17,17.17,0,0,0,85,29c.06-.45.12-.89.16-1.34a18.49,18.49,0,0,1,14.55,3.53,15.34,15.34,0,0,1,4.16,19c-4.11,8.56-11.9,13.27-21.38,11.58-2.49-.44-5.61-.84-6.86-3.14C76.38,57.06,77.14,55.46,77.85,53.84Z"/><path d="M75,56.59c.52-1.3,1-2.61,1.51-3.91a13,13,0,0,1,2.75-2.31c-.21.54-.43,1.07-.65,1.61s-.69.86-1,1.3c.08.19.15.37.22.56-.71,1.62-1.47,3.22-2.25,4.79a4,4,0,0,1-.44-1.16A5.5,5.5,0,0,1,75,56.59Z"/><path class="cls-2" d="M67.69,20.41a17.24,17.24,0,0,0-4.36-4.52A12.08,12.08,0,0,1,67.69,20.41Z"/><path class="cls-2" d="M62.64,17.06l.69-1.17a17.24,17.24,0,0,1,4.36,4.52,9.92,9.92,0,0,1,.65,5.53,16.52,16.52,0,0,0-.93-2.49C67.18,20.52,65.5,18.77,62.64,17.06Z"/><path class="cls-2" d="M67.41,23.45a17.63,17.63,0,0,0-4.77-6.39C65.5,18.77,67.18,20.52,67.41,23.45Z"/><path class="cls-2" d="M64.88,22.93a13.86,13.86,0,0,0-2.24-3.75A6.2,6.2,0,0,1,64.88,22.93Z"/><path class="cls-2" d="M63.33,15.89l-.69,1.17L62.5,17C61.91,16.47,62.7,15.46,63.33,15.89Z"/><path class="cls-2" d="M64,24.85a5.45,5.45,0,0,0-2.15-4.69l.76-1h0a13.86,13.86,0,0,1,2.24,3.75,13.35,13.35,0,0,1-1,7.24,10.8,10.8,0,0,0,.19-5.3Z"/><path class="cls-2" d="M64,24.85a12,12,0,0,0-2.27-4.79.67.67,0,0,1-.13-.41c0-.47.41-.94.88-.58l.13.1-.76,1A5.45,5.45,0,0,1,64,24.85Z"/><path class="cls-2" d="M68.26,26.59c-.73,5.05-2.53,9-7.41,10.77l0-.07a14.4,14.4,0,0,0,2.25-2.23c3.11-2,4.11-6.68,4.35-10.07a7.17,7.17,0,0,0,0-1.54,16.52,16.52,0,0,1,.93,2.49h0C68.32,26.15,68.29,26.36,68.26,26.59Z"/><path class="cls-2" d="M63.07,35.06a14.4,14.4,0,0,1-2.25,2.23L60.28,36A5.91,5.91,0,0,0,63.07,35.06Z"/><path class="cls-2" d="M63.83,30.17a13.35,13.35,0,0,0,1-7.24,12,12,0,0,1-1.81,12.13,5.91,5.91,0,0,1-2.79.9l-.12-.15a11.81,11.81,0,0,0,3.67-5.63Z"/><path class="cls-2" d="M60.07,27.28c.28-.63,1.37-.17,1.13.48L60,27.43h0A.69.69,0,0,0,60.07,27.28Z"/><path class="cls-2" d="M61.17,27.84a13.16,13.16,0,0,1-1.33,3A32.07,32.07,0,0,0,61.17,27.84Z"/><path class="cls-2" d="M60.16,35.81l.12.15.54,1.33,0,.07-.37.13c-.71.24-1.37-.82-.76-1.3C59.87,36.07,60,36,60.16,35.81Z"/><path class="cls-2" d="M60,27.43l1.19.33,0,.08a32.07,32.07,0,0,1-1.33,3s0,0,0,0a13.74,13.74,0,0,1-5.37,5A15,15,0,0,0,60,27.43Z"/><path class="cls-2" d="M53.43,37.8q-.66.53-.45.06Z"/><path class="cls-2" d="M61.56,32.58A16.13,16.13,0,0,0,64,24.87a10.8,10.8,0,0,1-.19,5.3h0c-2,5.16-6.35,9-12.13,8.33-.35,0-.59-.55-.21-.74A17.07,17.07,0,0,0,54.44,36h0a13.74,13.74,0,0,0,5.37-5,14.75,14.75,0,0,1-1.44,2.34c-1.26,1.67-3,2.61-4.41,4.06l-.54.49-.45.06q-.21.47.45-.06c.66-.09,1.32-.17,2-.27A10.76,10.76,0,0,0,61.56,32.58Z"/><path class="cls-2" d="M20.41,47.65C25.85,51.89,32.52,54,39.3,54.93c7.43,1,15.94,1.34,23.21-.84C68.63,52.25,73,48,76.15,42.53a60.68,60.68,0,0,0,4.52-9.45,27.41,27.41,0,0,1-.75,6.41,4.05,4.05,0,0,1-.12.5,21.19,21.19,0,0,1-5.41,9.59C67,57.11,55.87,60.43,45.56,60.52a47.21,47.21,0,0,1-28.23-8.93,36.17,36.17,0,0,1-6.56-6.24,28.88,28.88,0,0,1-1.85-2.47A29.75,29.75,0,0,1,7.06,35a42.62,42.62,0,0,1,4.62-15.78L13,17.72a1,1,0,0,0,.19-.17l1.28,1c-.19.23-.36.46-.52.68C7.29,28.18,12.08,41.15,20.41,47.65Z"/><path d="M46.72,21.2a.31.31,0,0,1,0-.09A.06.06,0,0,1,46.72,21.2Z"/><path class="cls-2" d="M44.7,43.56c-.71-.39-.19-.64.59-.38,7,2.39,17.14.76,21.77-5.94C69.32,34,69.48,29.81,68.34,26h0a9.92,9.92,0,0,0-.65-5.53c3.43,5.11,4.57,12.12,1.36,17.45C64.47,45.47,52.1,47.7,44.7,43.56Z"/><path class="cls-2" d="M44.35,36.64A15.08,15.08,0,0,0,60,27.43h0a15,15,0,0,1-5.56,8.51h0a13.92,13.92,0,0,1-10.17,1.2.25.25,0,0,1-.18-.26A.24.24,0,0,1,44.35,36.64Z"/><path class="cls-3" d="M61.2,27.76c.24-.65-.85-1.11-1.13-.48a.69.69,0,0,1-.07.15,15.08,15.08,0,0,1-15.65,9.21.24.24,0,0,0-.26.25l-2.31-.38c.26-.31.53-.61.83-.91,5.32-5.43,16.26-8.27,16.67-16.1l2.34.15a.67.67,0,0,0,.13.41A12,12,0,0,1,64,24.85v0a16.13,16.13,0,0,1-2.46,7.71,10.76,10.76,0,0,1-6.15,5c-.66.1-1.32.18-2,.27l.54-.49c1.38-1.45,3.15-2.39,4.41-4.06a14.75,14.75,0,0,0,1.44-2.34s0,0,0,0a13.16,13.16,0,0,0,1.33-3Z"/><path d="M57.77,18.22c-.12-1.85-.61-3.22-2.78-3.33a21.15,21.15,0,0,0-3.05,1.52A17.65,17.65,0,0,0,47,21.27a.16.16,0,0,1-.3-.07.06.06,0,0,0,0-.09c.08-.18.17-.36.27-.55,2.22-4.23,10.42-11.7,12.08-3.5a10.39,10.39,0,0,1,.2,2.43h0c-.41,7.83-11.35,10.67-16.67,16.1l-.08-.07a.74.74,0,0,0,.19-.35,6.69,6.69,0,0,0,.22-1.79,36.62,36.62,0,0,1,6.73-4.65C52.76,26.9,59.19,22.8,57.77,18.22Z"/><path d="M41.26,35.28a12.08,12.08,0,0,1,1.68-1.89,6.69,6.69,0,0,1-.22,1.79.74.74,0,0,1-.19.35A.8.8,0,0,1,41.26,35.28Z"/><path d="M39.5,38.74a12.25,12.25,0,0,1,1.76-3.46.8.8,0,0,0,1.27.25l.08.07c-.3.3-.57.6-.83.91A9.61,9.61,0,0,0,40.31,39C40.12,39.44,39.34,39.26,39.5,38.74Z"/><path class="cls-2" d="M32.68,38.94l.89-1.15,0,0,.11.14A.73.73,0,0,1,32.68,38.94Z"/><path d="M32.68,38.94h0l-.12-.15A.86.86,0,0,0,32.68,38.94Z"/><path class="cls-2" d="M30.29,32.15a22.89,22.89,0,0,0,3.31,5.61l0,0A7.74,7.74,0,0,1,30.29,32.15Z"/><path class="cls-2" d="M30.36,28.21a5.17,5.17,0,0,1-.31-1.68c0-.06-.2-2.6.44-1A5.63,5.63,0,0,1,30.36,28.21Z"/><path d="M31.09,21.75a8.77,8.77,0,0,1-1.79-5.38c.43-.72.92-1.44,1.42-2.18.24-.34-.2-.68-.53-.52h0a1.3,1.3,0,0,1,.1-.15c4.65-6.35,13.88,3.74,16.47,7.58a.31.31,0,0,0,0,.09.09.09,0,0,1-.06,0,.05.05,0,0,1,0,0c-2.47-2.74-6.46-7.83-10.28-8.52-6.07-1.1-7.44,3.95-5.07,7.65,1.21,1.89,3.16,3.11,5,4.35,3,2.09,6.63,4.9,6.72,8.71a12.08,12.08,0,0,0-1.68,1.89.7.7,0,0,1-.07-.3C41.09,27.64,34.7,26.7,31.09,21.75Z"/><path class="cls-2" d="M30.75,23.93A16.35,16.35,0,0,0,37,36.51s0,0,0,0a13,13,0,0,1-6.16-7c-.15-.39-.32-.85-.47-1.31a5.63,5.63,0,0,0,.13-2.63c-.64-1.65-.44.89-.44,1a5.17,5.17,0,0,0,.31,1.68,10.67,10.67,0,0,0-.25,1.91,14.55,14.55,0,0,0,.18,2,25.06,25.06,0,0,1-.81-2.4,34.34,34.34,0,0,1,.46-5.93C30,23.35,30.74,23.49,30.75,23.93Z"/><path d="M29.3,16.37a4.9,4.9,0,0,1,.86-2.69h0c.33-.16.77.18.53.52C30.22,14.93,29.73,15.65,29.3,16.37Z"/><path class="cls-2" d="M30.29,32.15a7.74,7.74,0,0,0,3.28,5.64l-.89,1.15a.86.86,0,0,1-.13-.14,16.11,16.11,0,0,1-3.07-9A25.06,25.06,0,0,0,30.29,32.15Z"/><path class="cls-2" d="M27.92,36.77l1-.43s0,.09.05.13c.18.51-.59,1-.93.54a2,2,0,0,1-.17-.23Z"/><path class="cls-2" d="M28.81,25.61a21.81,21.81,0,0,0,.67,4.14,16.11,16.11,0,0,0,3.07,9,23.41,23.41,0,0,1-4.77-9.18,22.36,22.36,0,0,1-.68-5.29A31.27,31.27,0,0,1,27.41,21a25.85,25.85,0,0,1,1.4-3.28l-.26,0c.11-.21.23-.42.35-.63C30,19.75,28.64,22.76,28.81,25.61Z"/><path class="cls-2" d="M28.55,17.68l-1-.13c.23-.34.49-.71.72-1.07a1.08,1.08,0,0,1,.61.56h0C28.78,17.26,28.66,17.47,28.55,17.68Z"/><path class="cls-2" d="M28.55,17.68A18,18,0,0,0,27.5,20a6.78,6.78,0,0,0-.14-2.15c.07-.1.14-.2.21-.32Z"/><path d="M27.56,16.57l-.21.26A.56.56,0,0,1,27.56,16.57Z"/><path class="cls-2" d="M28.81,17.72A25.85,25.85,0,0,0,27.41,21c0-.33.07-.66.09-1a18,18,0,0,1,1.05-2.34Z"/><path class="cls-2" d="M27.36,17.87c0-.12-.07-.24-.11-.36l.32,0C27.5,17.67,27.43,17.77,27.36,17.87Z"/><path class="cls-2" d="M26.75,31.45A16.74,16.74,0,0,0,29,36.34l-1,.43C27.65,35,27.19,33.22,26.75,31.45Z"/><path class="cls-2" d="M26.73,23.34A13.5,13.5,0,0,1,27.5,20c0,.32-.05.65-.09,1A20.63,20.63,0,0,0,26.73,23.34Z"/><path class="cls-2" d="M26.71,31.28a16.92,16.92,0,0,1,0-7.94,14.38,14.38,0,0,0,0,2.55A45.12,45.12,0,0,0,29,36.34a16.74,16.74,0,0,1-2.2-4.89.13.13,0,0,0,0-.06A.81.81,0,0,0,26.71,31.28Z"/><path class="cls-2" d="M25.63,23.7a13.18,13.18,0,0,1,1.19-5c.07-.14.28-.46.54-.86A6.78,6.78,0,0,1,27.5,20a13.5,13.5,0,0,0-.77,3.32,16.92,16.92,0,0,0,0,7.94A28.1,28.1,0,0,1,25.63,23.7Z"/><path class="cls-2" d="M27.9,36.78c-4.56-6-3.61-13.44-.57-19.92h0s0,0,0,0l.21-.26a.74.74,0,0,1,.73-.09c-.23.36-.49.73-.72,1.07l-.32,0c0,.12.08.24.11.36-.26.4-.47.72-.54.86a13.18,13.18,0,0,0-1.19,5,28.1,28.1,0,0,0,1.08,7.58.81.81,0,0,1,0,.11.13.13,0,0,1,0,.06c.44,1.77.9,3.54,1.17,5.32Z"/><path class="cls-2" d="M27.33,16.86a29.53,29.53,0,0,0-2.55,3.49,24.62,24.62,0,0,0-1.91,8.17c-.49,5.31-.37,11.69,4.73,14.72.71.42.25,1-.47.62-5.68-3-6.57-9.46-5.89-15.34C22,22,24.16,16.69,30.16,13.68a4.9,4.9,0,0,0-.86,2.69l-.4.67a1.08,1.08,0,0,0-.61-.56,5.17,5.17,0,0,0,.85-1.54c-.05-.14-.75.63-1.58,1.63a.56.56,0,0,0-.21.26s0,0,0,0Z"/><path d="M22.19,7c-1,1.13-2.09,2.21-3.11,3.31l2.63-3.19A1.22,1.22,0,0,1,21.9,7l.1-.06.1-.06C22.18,6.78,22.25,6.89,22.19,7Z"/><path d="M19.08,10.26l-5.31,6.46A51,51,0,0,1,19.08,10.26Z"/><path d="M54.39,2.83C28.92-2.6,14.71,15.56,13.47,17.16c.09-.15.19-.29.3-.44l5.31-6.46c1-1.1,2.07-2.18,3.11-3.31.06-.06,0-.17-.09-.12l-.1.06C30.42,1.05,41.39-1,51.66.45c11.75,1.66,29.1,8,30.62,21.88a20.59,20.59,0,0,1-.3,6.05l-.49.16A53.35,53.35,0,0,0,78.7,16.86.59.59,0,0,0,78,16.5a16.5,16.5,0,0,0-3.11-4C69.41,7.32,61.64,4.37,54.39,2.83Z"/><path d="M13.11,17.52l.66-.8c-.11.15-.21.29-.3.44a.61.61,0,0,0-.07.1,1.16,1.16,0,0,1-.26.29Z"/><path class="cls-3" d="M54.39,2.83c7.25,1.54,15,4.49,20.46,9.71a16.5,16.5,0,0,1,3.11,4,15.69,15.69,0,0,1,1.93,9,24.91,24.91,0,0,1-.57,4c-.12.52-.25,1-.39,1.57A52.75,52.75,0,0,1,76.77,37c-3.33,7.87-7.85,14.29-16.66,16.29-7.93,1.79-17.36,1.32-25.23-.38s-15.54-5.51-20-12.41a18.86,18.86,0,0,1,1.89-23.28.4.4,0,0,0-.56-.57,17.1,17.1,0,0,0-1.83,1.9l-1.28-1a1.16,1.16,0,0,0,.26-.29.61.61,0,0,1,.07-.1C14.71,15.56,28.92-2.6,54.39,2.83Zm-27.06,14c-3,6.48-4,14,.57,19.92a2,2,0,0,0,.17.23c.34.45,1.11,0,.93-.54,0,0,0-.09-.05-.13A45.12,45.12,0,0,1,26.7,25.89a14.38,14.38,0,0,1,0-2.55A20.63,20.63,0,0,1,27.41,21a31.27,31.27,0,0,0-.31,3.33,22.36,22.36,0,0,0,.68,5.29,23.41,23.41,0,0,0,4.77,9.18l.12.15h0a.73.73,0,0,0,1-1l-.11-.14a22.89,22.89,0,0,1-3.31-5.61,14.55,14.55,0,0,1-.18-2,10.67,10.67,0,0,1,.25-1.91c.15.46.32.92.47,1.31a13,13,0,0,0,6.16,7s0,0,0,0a16.35,16.35,0,0,1-6.26-12.58c0-.44-.75-.58-.81-.11a34.34,34.34,0,0,0-.46,5.93,21.81,21.81,0,0,1-.67-4.14c-.17-2.85,1.14-5.86.09-8.56h0l.4-.67a8.77,8.77,0,0,0,1.79,5.38c3.61,4.95,10,5.89,10.1,13.23a.7.7,0,0,0,.07.3,12.25,12.25,0,0,0-1.76,3.46c-.16.52.62.7.81.22a9.61,9.61,0,0,1,1.47-2.45l2.31.38a.25.25,0,0,0,.18.26A13.92,13.92,0,0,0,54.44,36a17.07,17.07,0,0,1-2.95,1.82c-.38.19-.14.69.21.74,5.78.68,10.09-3.17,12.13-8.33a11.81,11.81,0,0,1-3.67,5.63c-.15.14-.29.26-.44.38-.61.48.05,1.54.76,1.3l.37-.13c4.88-1.8,6.68-5.72,7.41-10.77,0-.23.06-.44.08-.64,1.14,3.86,1,8-1.28,11.29-4.63,6.7-14.79,8.33-21.77,5.94-.78-.26-1.3,0-.59.38,7.4,4.14,19.77,1.91,24.35-5.7,3.21-5.33,2.07-12.34-1.36-17.45a12.08,12.08,0,0,0-4.36-4.52c-.63-.43-1.42.58-.83,1.06l.14.11a17.63,17.63,0,0,1,4.77,6.39,7.17,7.17,0,0,1,0,1.54c-.24,3.39-1.24,8.11-4.35,10.07a12,12,0,0,0,1.81-12.13,6.2,6.2,0,0,0-2.24-3.75h0l-.13-.1c-.47-.36-.88.11-.88.58l-2.34-.15h0a10.39,10.39,0,0,0-.2-2.43c-1.66-8.2-9.86-.73-12.08,3.5-.1.19-.19.37-.27.55-2.59-3.84-11.82-13.93-16.47-7.58a1.3,1.3,0,0,0-.1.15c-6,3-8.18,8.36-8.92,14.84-.68,5.88.21,12.31,5.89,15.34.72.39,1.18-.2.47-.62-5.1-3-5.22-9.41-4.73-14.72a24.62,24.62,0,0,1,1.91-8.17A29.53,29.53,0,0,1,27.33,16.86Z"/><path d="M13.11,17.52l0,0a1,1,0,0,1-.19.17Z"/><path d="M13,17.72a3.42,3.42,0,0,1-.7.4c.4-.77.82-1.51,1.24-2.22,0,0-.52.52-.86.88a32.11,32.11,0,0,1,9.08-9.71l-2.63,3.19a51,51,0,0,0-5.31,6.46l-.66.8Z"/><path d="M13,17.72l-1.27,1.54c.18-.38.37-.77.57-1.14A3.42,3.42,0,0,0,13,17.72Z"/><path d="M13.49,15.9c-.42.71-.84,1.45-1.24,2.22-.23.09-.4.09-.35-.05l0-.06c.23-.41.46-.83.7-1.23S13.48,15.9,13.49,15.9Z"/><path d="M62.51,54.09c-7.27,2.18-15.78,1.83-23.21.84-6.78-.89-13.45-3-18.89-7.28-8.33-6.5-13.12-19.47-6.51-28.38.16-.22.33-.45.52-.68a17.1,17.1,0,0,1,1.83-1.9.4.4,0,0,1,.56.57,18.86,18.86,0,0,0-1.89,23.28c4.42,6.9,12.18,10.74,20,12.41s17.3,2.17,25.23.38c8.81-2,13.33-8.42,16.66-16.29A52.75,52.75,0,0,0,78.93,31c.53-.25,1.09-.48,1.63-.7.07.93.11,1.87.11,2.79a60.68,60.68,0,0,1-4.52,9.45C73,48,68.63,52.25,62.51,54.09Z"/><path d="M75.13,50.31c-7.74,7.85-20,11.6-30.84,11.49-11.2-.11-22.6-4-30.76-11.86-.73-.7-1.43-1.43-2.1-2.21-.24-.79-.46-1.58-.66-2.38a36.17,36.17,0,0,0,6.56,6.24,47.21,47.21,0,0,0,28.23,8.93C55.87,60.43,67,57.11,74.39,49.58A21.19,21.19,0,0,0,79.8,40a.34.34,0,0,0,.39.08l.52-.22q-.57,2.07-1.2,4.11A22.11,22.11,0,0,1,75.13,50.31Z"/><path d="M11.05,20c-.37-.17.53-1.43.85-1.95-.05.14.12.14.35.05-.2.37-.39.76-.57,1.14Z"/><path d="M11.68,19.26A42.62,42.62,0,0,0,7.06,35c-.61-6.58,1.39-12.47,5.26-17.93l.31-.33c-.24.4-.47.82-.7,1.23l0,.06c-.32.52-1.22,1.78-.85,1.95Z"/><path d="M17.15,61.54C22.25,70.9,34.26,77.83,45,77.28c12.07-.6,24.63-7.61,29.29-18.93.24-.59.48-1.17.71-1.76a5.5,5.5,0,0,0,.13.88,4,4,0,0,0,.44,1.16c-.8,1.58-1.64,3.12-2.5,4.63C67.74,72.62,54.92,78.81,44.41,79c-6,.13-11.23-2.3-16.45-5-4.71-2.47-8.13-5.09-10.92-9.68A63.63,63.63,0,0,1,9.39,45.11a30.61,30.61,0,0,0,2,2.62A71.79,71.79,0,0,0,17.15,61.54Z"/><path d="M10.77,45.35c.2.8.42,1.59.66,2.38a30.61,30.61,0,0,1-2-2.62c-.18-.74-.33-1.49-.47-2.23A28.88,28.88,0,0,0,10.77,45.35Z"/><path d="M8.92,42.88c.14.74.29,1.49.47,2.23C7.47,42.36,6.84,38.84,7.06,35A29.75,29.75,0,0,0,8.92,42.88Z"/><path class="cls-4" d="M97.38,46.31a23.07,23.07,0,0,1-1.74,1.54,26.4,26.4,0,0,1-4.06,2.76,27.82,27.82,0,0,1-7.18,2.8"/><g class="cls-5"><path d="M63.05,71.68c-3.61,2.41-7.29,4.85-11.46,6-7.4,2.13-15.42.07-22.31-3.36S23.77,68.06,17,64.32c-.78-.43-2.77-5.76-3.65-5.61a75.46,75.46,0,0,0-8,3.93C2,65.58,1,70.3.4,74.7c-.5,3.63-.79,7.48.74,10.8,2.39,5.21,8.43,7.54,14,9,9,2.3,18.4,3.51,27.54,2s18-6,23.53-13.52a11.13,11.13,0,0,0,2.44-5.54,5,5,0,0,0-2.72-5.07C62.85,71,63.05,71.68,63.05,71.68Z"/></g><g class="cls-5"><path d="M12.57,49.46c7.51,4.8,11.08,14.07,18.2,19.42a22.57,22.57,0,0,0,13.11,4.49,9.39,9.39,0,0,1,3.74.48c1.15.54,2,2,1.46,3.09a3.08,3.08,0,0,1-1.92,1.35C42.79,79.67,38.07,78,34,75.93A50,50,0,0,1,19.34,65.58a28.18,28.18,0,0,1-7.72-15.93,17.66,17.66,0,0,1,9.74,9.91"/></g><g class="cls-5"><path d="M47.89,1.18C46.18.69,43.41,2.28,41.78,3,42.91,5.09,45.66,5.51,48,5.71A37.51,37.51,0,0,1,58.86,7.78c3.43,1.37,6.56,3.87,7.89,7.32C69.8,23,62.4,31.69,64,40a6.17,6.17,0,0,0,2.11,3.85c2.86,2.13,7-.23,9.1-3.09,5.69-7.62,6.85-19.57,1.31-27.31S60.36,2.86,50.91,1.82C47.94,1.49,47.89,1.18,47.89,1.18Z"/></g></g></g></g></g></svg>