<svg xmlns="http://www.w3.org/2000/svg" xmlns:xlink="http://www.w3.org/1999/xlink" viewBox="0 0 96.61 72.26"><defs><style>.cls-1{isolation:isolate;}.cls-2{fill:url(#linear-gradient);}.cls-3{fill:#fff;}.cls-4{fill:url(#linear-gradient-2);}.cls-5{fill:#666;}.cls-6{fill:#b7b7b7;}.cls-7{fill:url(#linear-gradient-3);}.cls-8{opacity:0.15;mix-blend-mode:darken;}</style><linearGradient id="linear-gradient" x1="7.43" y1="30.07" x2="94.48" y2="30.07" gradientUnits="userSpaceOnUse"><stop offset="0" stop-color="#fff"/><stop offset="0.26" stop-color="#9c9c9c"/><stop offset="0.43" stop-color="#eeeef0"/><stop offset="0.81" stop-color="#f8f8f9"/><stop offset="1" stop-color="#121212"/></linearGradient><linearGradient id="linear-gradient-2" x1="62.08" y1="27.37" x2="65.83" y2="27.37" gradientUnits="userSpaceOnUse"><stop offset="0" stop-color="#48c8ff"/><stop offset="0.53" stop-color="#1c98f5"/><stop offset="1" stop-color="#1c61f5"/></linearGradient><linearGradient id="linear-gradient-3" x1="34.01" y1="29.53" x2="40.17" y2="29.53" gradientUnits="userSpaceOnUse"><stop offset="0.26" stop-color="#9c9c9c"/><stop offset="1" stop-color="#121212"/></linearGradient></defs><title>Asset 6</title><g class="cls-1"><g id="Layer_2" data-name="Layer 2"><g id="dropzone_items"><g id="ipod"><path class="cls-2" d="M94.18,37.35c.09,1.24.32,3,.3,4.61a8.92,8.92,0,0,1-.41,2.79,4.54,4.54,0,0,1-.42.92A36.74,36.74,0,0,1,86,47.51q-9.37,1.59-18.76,3.1c-12.58,2-25.18,3.93-37.73,6.1-3.37.57-6.94,1.36-10.35.65a10.12,10.12,0,0,1-2.6-.93,28.52,28.52,0,0,0-1.28-5.15c-.55-1.85-1.11-3.69-1.67-5.54,0-.11-.07-.22-.1-.33-.26-.87-.53-1.73-.78-2.6-.9-3-1.78-5.93-2.71-8.89-1.15-3.64-2.53-7.3-2.61-11.17a21.1,21.1,0,0,1,1.9-8.16c2.81-2.48,6.46-3.81,10.29-4.65,1.58-.35,3.18-.61,4.77-.83,2.19-.31,4.35-.54,6.37-.82,10.81-1.5,21.64-2.86,32.5-3.94,4.16-.41,8.33-.79,12.5-1.18l4.89-.46.79-.07a1.19,1.19,0,0,0,.46-.15,7.75,7.75,0,0,1,1.28.44,8.4,8.4,0,0,1,2.46,1.8,15.37,15.37,0,0,1,3,5.49,95.25,95.25,0,0,1,3.66,13.25A106.31,106.31,0,0,1,94.18,37.35Zm-6.47,1.84c0-.42,0-.87-.07-1.29,0-.25,0-.5-.06-.74-.07-1.21-.16-2.42-.26-3.63-.21-2.41-.47-4.81-.79-7.22s-.68-4.78-1.1-7.16a30.21,30.21,0,0,0-1.69-6.57,13.16,13.16,0,0,0-1.69-2.9,13.41,13.41,0,0,0-1.17-1.33c-.21-.21-.69-.26-.71-.1a3.91,3.91,0,0,0-.68,0c-.73,0-1.47.14-2.19.21s-1.43.13-2.14.22l-.64.07c-1.94.22-3.87.48-5.8.76a87,87,0,0,0-11.43,2.31l-.08,0s0,0,0,0c-.82.28-1,1.6-1.19,2.55a6.27,6.27,0,0,0,.42,2.93c.33,1,.64,1.92.89,2.91a88.43,88.43,0,0,1,1.8,12.34c.22,2,.46,4.1.85,6.14a14.93,14.93,0,0,0,.67,2.85,2.84,2.84,0,0,0,.37.71,1.38,1.38,0,0,0,.39.37,3.65,3.65,0,0,0,1.23.36,16.8,16.8,0,0,0,2.84.16c1.07,0,2.14,0,3.22,0a59.49,59.49,0,0,0,6.25-.58c.87-.13,1.75-.27,2.61-.44,1.46-.28,2.92-.62,4.36-1,1.14-.31,2.28-.65,3.4-1l.56-.19A14.51,14.51,0,0,0,87.71,39.19ZM53.42,35c.81-4.11,1.26-8.66-.25-12.67a13.69,13.69,0,0,0-7.89-7.68,24.52,24.52,0,0,0-11.19-1.57,17.5,17.5,0,0,0-8.77,2.81,9.42,9.42,0,0,0-1.61,1,12.75,12.75,0,0,0-3.07,3.32,16.42,16.42,0,0,0-1.73,3.58,24.23,24.23,0,0,0-1.13,9.32,16.05,16.05,0,0,0,1.66,6.37,15.29,15.29,0,0,0,2.27,3.21,16.32,16.32,0,0,0,1.54,1.46,18.09,18.09,0,0,0,2,1.42,21.43,21.43,0,0,0,10.16,3c4.21.22,8.93-.37,12.39-3a4.31,4.31,0,0,0,.4-.32,12,12,0,0,0,2.53-2.9A21.53,21.53,0,0,0,53.42,35Z"/><path class="cls-3" d="M80.35,19.37c.15.88.28,1.75.42,2.62-1.54.17-3.07.35-4.6.55-1.8.21-3.6.44-5.4.67-.27,0-.93.24-1.17.13s-.3-.64-.37-.95c-.17-.86-.35-1.71-.53-2.57-.28-1.39-.57-2.79-.87-4.18v0c.85-.09,1.69-.29,2.52-.44,1-.19,2.07-.37,3.12-.51.4-.06.79-.11,1.19-.15q2.4-.3,4.83-.42c0,.23.09.48.13.72C79.87,16.34,80.12,17.86,80.35,19.37Z"/><path class="cls-4" d="M65.8,36.51c.06.43.07,1.43-.49.67a5.08,5.08,0,0,1-.57-1.88c-.66-2.92-1.32-5.82-1.79-8.77-.27-1.69-.53-3.36-.67-5.07-.11-1.31-.08-2.66-.2-4a.84.84,0,0,1,1-.09c.57.26.72,1,.8,1.54.18,1.41.2,2.86.32,4.29.25,3,.61,5.92,1,8.86C65.38,33.56,65.61,35,65.8,36.51Z"/><path class="cls-5" d="M45.35,36.08a2.74,2.74,0,0,1,1.12-.65A12.5,12.5,0,0,1,48.2,35a.19.19,0,0,0,0-.37,3.81,3.81,0,0,0-3.49.89,1.48,1.48,0,0,0-.29,1.67,1.9,1.9,0,0,0,1.31,1,2.9,2.9,0,0,0,1.21,0,4.28,4.28,0,0,0,1.12-.44c.44-.24.13-.9-.34-.79-.26.06-.53.13-.8.22a2.66,2.66,0,0,1-.74.12,1.18,1.18,0,0,1-.27,0l-.13,0-.08,0,0,0-.12-.07-.07,0-.1-.1,0,0,0-.06a.41.41,0,0,1-.07-.11s0,0,0,0,0-.09,0-.14v-.09A.79.79,0,0,1,45.35,36.08Z"/><path class="cls-5" d="M47.06,31.19A5.37,5.37,0,0,1,45,33a.42.42,0,0,0,0,.72,3.4,3.4,0,0,0,2.65.38.46.46,0,0,0-.23-.9,4.44,4.44,0,0,1-1.26,0A6.09,6.09,0,0,0,48,31.09c.09-.18,0-.49-.21-.53a6.93,6.93,0,0,0-1.93,0,4.45,4.45,0,0,0-1.77.61.17.17,0,0,0,.14.3,15.11,15.11,0,0,1,1.68-.32A6,6,0,0,1,47.06,31.19Z"/><path class="cls-5" d="M44.71,27.14l0,0c0,.19.05.38.06.58a5,5,0,0,0,.13.79c.08.54.17,1.08.24,1.61a.44.44,0,0,0,.53.3.44.44,0,0,0,.3-.52c-.19-.5-.38-1-.56-1.53a5.29,5.29,0,0,0-.27-.76A5.55,5.55,0,0,1,45,27a1.87,1.87,0,0,1,2.33,2c0,.2.26.3.32.09a2.37,2.37,0,0,0-1.3-2.72,2.35,2.35,0,0,0-2.92,1.06,3,3,0,0,0-.31.88c-.07.32-.12.81.17,1a.34.34,0,0,0,.57-.15,1.94,1.94,0,0,0,0-.68,1.45,1.45,0,0,1,.11-.54A1.94,1.94,0,0,1,44.71,27.14Z"/><path class="cls-5" d="M46.62,23.92a.28.28,0,0,0-.12-.47,5.78,5.78,0,0,0-1.76-.16l.94-.66a.35.35,0,0,0-.17-.64c-1.3,0-2.61,0-3.9.06a.26.26,0,0,0,0,.51c1,.08,2,.1,2.93.11-.32.26-.66.53-1,.78l-.06,0c-.24.19-.12.61.22.52l.07,0a5.15,5.15,0,0,1,2-.09A11,11,0,0,1,44.29,25a14.86,14.86,0,0,1-2.21.95.35.35,0,0,0,.18.67,9.24,9.24,0,0,0,2.34-1.09A11.05,11.05,0,0,0,46.62,23.92Z"/><path class="cls-6" d="M40.83,27.35a4.74,4.74,0,0,0-5-1.54A6.25,6.25,0,0,0,35,26a.39.39,0,0,0-.11.69,4.55,4.55,0,0,1,.72-.3,3,3,0,0,1,.55-.14c.19,0,.37,0,.56,0a.11.11,0,0,1,0,.21,4.56,4.56,0,0,0-.58.3l-.1.05c.47,0,.94,0,1.42,0a3.22,3.22,0,0,1,1.89.65A2,2,0,0,1,40.17,29a2.51,2.51,0,0,1-1,1.64c-.93.87-2.34,1.94-3.69,1.43A2.49,2.49,0,0,1,34,29.46,3.25,3.25,0,0,1,35,27.72a4.41,4.41,0,0,1,.78-.65,1.75,1.75,0,0,1,.35-.2c-.32,0-.64,0-1,0a.32.32,0,0,1-.22-.1c-.13.06-.24.13-.36.2a3.77,3.77,0,0,0-1.42,1.87,3.6,3.6,0,0,0,1.48,4.06,3.07,3.07,0,0,0,2.49.35,6.69,6.69,0,0,0,2.46-1.33,5,5,0,0,0,1.69-2.14A2.76,2.76,0,0,0,40.83,27.35Z"/><path class="cls-7" d="M39.39,27.53A2,2,0,0,1,40.17,29a2.51,2.51,0,0,1-1,1.64c-.93.87-2.34,1.94-3.69,1.43A2.49,2.49,0,0,1,34,29.46,3.25,3.25,0,0,1,35,27.72a4.41,4.41,0,0,1,.78-.65,1.75,1.75,0,0,1,.35-.2c.47,0,.94,0,1.42,0A3.22,3.22,0,0,1,39.39,27.53Z"/><path class="cls-5" d="M39.46,42.22a15.3,15.3,0,0,1,2.08-3l.15-.18c.29-.32,0-.92-.45-.77l-.22.06c-.75.23-1.51.44-2.26.62-.59.13-1.17.25-1.76.35a.77.77,0,0,0-.27-.14.43.43,0,0,0-.53.41h0a.34.34,0,0,0,.21.45c.11.13.25.26.37.38l.64.65,1.29,1.28a.43.43,0,0,0,.31.12h-.08a5.93,5.93,0,0,0-.72.1h-.08a4.8,4.8,0,0,0-.83.14.1.1,0,0,0,0,.2,4.4,4.4,0,0,0,.79.15c.28,0,.56.08.84.1l1.53.13a1.78,1.78,0,0,0,.57,0,.53.53,0,0,0,.52-.52.61.61,0,0,0-.08-.3.57.57,0,0,0-.44-.23,1.54,1.54,0,0,0-.57,0l-1.29.1A.39.39,0,0,0,39.46,42.22Z"/><path class="cls-5" d="M37.67,38.47a1.84,1.84,0,0,0,.81.35,1.07,1.07,0,0,0,.25,0c.44-.13.6-.69.77-1.09.24-.56.48-1.13.73-1.69a.39.39,0,0,0-.44-.57c-.71.22-1.45.41-2.19.56a16.06,16.06,0,0,1-1.69.27.46.46,0,0,0-.51.14.43.43,0,0,0,0,.56,11.83,11.83,0,0,0,1.51,1C37.19,38.15,37.42,38.31,37.67,38.47Z"/><path class="cls-5" d="M36.05,16.81h0a8.94,8.94,0,0,0-1.61.37c-.49.11-1,.2-1.48.28s-1,.11-1.48.17l-.82.08a1.33,1.33,0,0,0-.72.13.3.3,0,0,0-.06.44l0,0,.05,0s0,0,0,0H30a3.34,3.34,0,0,0,1.33.16h.52a.36.36,0,0,0,.11.1c.23.11.57.17.81.26A25.27,25.27,0,0,0,30.73,21a.52.52,0,0,0,.36.88c.31,0,.62,0,.93,0a.52.52,0,0,0,.22.65l.31.12.06,0h.06a1.67,1.67,0,0,1,.23.12h0c-.15.21-.31.41-.46.61-.29.39-.61.76-.87,1.18a.49.49,0,0,0,.3.72,7,7,0,0,0,3.54-.3.42.42,0,0,0,.16-.09.54.54,0,0,0,.15-.68,5.48,5.48,0,0,0-1.23-1.64,5.24,5.24,0,0,0-1.18-.81,15.07,15.07,0,0,0,2.11-.29.54.54,0,0,0,.37-.64,4.09,4.09,0,0,0-1.25-2.16l-.47-.35q.3,0,.6-.09a5,5,0,0,0,1.66-.41A.55.55,0,0,0,36.05,16.81Z"/><path class="cls-5" d="M28.53,35.88a.68.68,0,0,0-.79-.39,5.33,5.33,0,0,0-1.11.36l-1,.4-1,.4a6,6,0,0,0-1,.54.22.22,0,0,0,.11.41,6.49,6.49,0,0,0,1.16-.1l1.1-.22a10.93,10.93,0,0,0,2.32-.57A.66.66,0,0,0,28.53,35.88Z"/><path class="cls-5" d="M25.64,35.36a1.46,1.46,0,0,0,.53-.15.67.67,0,0,0,.33-.51h0v0a0,0,0,0,0,0,0,.33.33,0,0,0-.05-.21l0,0h0s0,0,0,0l-.05,0a.67.67,0,0,0-.5-.22,2.1,2.1,0,0,0-.54.12l-.45.14-.44.13a10.62,10.62,0,0,0-1.79.64.38.38,0,0,0-.16.47.37.37,0,0,0,.36.27,11,11,0,0,0,1.89-.31C25,35.5,25.33,35.44,25.64,35.36Z"/><path class="cls-5" d="M23.1,30.74c.08.1.15.21.22.31a2.3,2.3,0,0,1,.21.33.27.27,0,0,0,0,.15.51.51,0,0,0,.49.37.5.5,0,0,0,.48-.37c.34-1.28.66-2.57,1-3.86.09-.36-.26-.81-.66-.66L21,28.49a.62.62,0,0,0-.41.55.59.59,0,0,0,0,.14.57.57,0,0,0,.69.4c.18-.07.35-.15.54-.21a6.21,6.21,0,0,1,.73.72C22.78,30.31,23,30.52,23.1,30.74Z"/><path class="cls-6" d="M96,30.32a100.92,100.92,0,0,0-2.25-12.41,52.18,52.18,0,0,0-4-11.74C88.17,3.26,84.57-.71,80.83.11a4.6,4.6,0,0,0-.5.13.92.92,0,0,0-.47.33C78.56.69,77.27.83,76,1c-9.36,1-18.69,2.29-28,3.5q-8.22,1-16.42,2.23c-2.33.33-4.69.63-7,1-1.59.24-3.18.53-4.74.91-.76.16-1.51.35-2.24.56A19.28,19.28,0,0,0,9.92,13a16.08,16.08,0,0,0-2.64,3.55h0a19.08,19.08,0,0,0-1.7,2.79A27.81,27.81,0,0,0,2.94,34.21a44.13,44.13,0,0,0,1.77,8.68c.29,1,.61,2,1,3,.92,2.69,2,5.34,2.94,8,.49,1.29,1,2.58,1.41,3.89.28.85.56,1.69.83,2.54a12.36,12.36,0,0,0,2,1.76A17.54,17.54,0,0,0,19,64.69c6.6,1.5,13.49-.35,20-1.62Q59.68,59,80.46,55c1.91-.37,3.81-.72,5.71-1.12a21.8,21.8,0,0,0,5-1.55,8.49,8.49,0,0,0,4.93-6.39l0-.54a.59.59,0,0,0,0-.2c0-.15.08-.3.11-.46s.07-.27.1-.42c.09-.52.16-1,.2-1.52,0-.28,0-.56,0-.84A67.3,67.3,0,0,0,96,30.32ZM90.42,51.23c-2.83,1.29-6.11,1.65-9.14,2.24l-19.7,3.86q-9.91,2-19.82,3.88c-3.31.64-6.61,1.32-9.91,1.92a41,41,0,0,1-9.76.77,17.19,17.19,0,0,1-9.78-3.73C10.76,55.37,8.66,50.63,7,45.83c-.36-1-.69-2-1-2.95C4.22,37.36,3.24,31.72,4.44,25.82a25.84,25.84,0,0,1,.72-2.75C5.1,26.54,6.08,30,7,33.28s1.86,6.38,2.83,9.56l.81,2.64c0,.1.05.2.08.3q.87,2.88,1.75,5.78l.36,1.25a21.64,21.64,0,0,0,1.59,4.27,7.72,7.72,0,0,0,1.23,1,14.38,14.38,0,0,0,8.62,1.75c3.38-.28,6.75-1,10.1-1.53s6.91-1.18,10.35-1.78q20.55-3.62,41.11-7.15a37.2,37.2,0,0,0,5.9-1.43,22.46,22.46,0,0,0,3.43-1.45,5.07,5.07,0,0,1-.55,1.26A9.24,9.24,0,0,1,90.42,51.23Zm3.65-6.48a4.54,4.54,0,0,1-.42.92A36.74,36.74,0,0,1,86,47.51q-9.37,1.59-18.76,3.1c-12.58,2-25.18,3.93-37.73,6.1-3.37.57-6.94,1.36-10.35.65a10.12,10.12,0,0,1-2.6-.93,28.52,28.52,0,0,0-1.28-5.15c-.55-1.85-1.11-3.69-1.67-5.54,0-.11-.07-.22-.1-.33-.26-.87-.53-1.73-.78-2.6-.9-3-1.78-5.93-2.71-8.89-1.15-3.64-2.53-7.3-2.61-11.17a21.1,21.1,0,0,1,1.9-8.16c2.81-2.48,6.46-3.81,10.29-4.65,1.58-.35,3.18-.61,4.77-.83,2.19-.31,4.35-.54,6.37-.82,10.81-1.5,21.64-2.86,32.5-3.94,4.16-.41,8.33-.79,12.5-1.18l4.89-.46.79-.07a1.19,1.19,0,0,0,.46-.15,7.75,7.75,0,0,1,1.28.44,8.4,8.4,0,0,1,2.46,1.8,15.37,15.37,0,0,1,3,5.49,95.25,95.25,0,0,1,3.66,13.25,106.31,106.31,0,0,1,1.83,13.88c.09,1.24.32,3,.3,4.61A8.92,8.92,0,0,1,94.07,44.75Z"/><path class="cls-6" d="M87.58,37.16c-.07-1.21-.16-2.42-.26-3.63-.21-2.41-.47-4.81-.79-7.22s-.68-4.78-1.1-7.16a30.21,30.21,0,0,0-1.69-6.57,13.16,13.16,0,0,0-1.69-2.9,13.41,13.41,0,0,0-1.17-1.33c-.21-.21-.69-.26-.71-.1a3.91,3.91,0,0,0-.68,0c-.73,0-1.47.14-2.19.21s-1.43.13-2.14.22l-.64.07c-1.94.22-3.87.48-5.8.76a87,87,0,0,0-11.43,2.31l-.08,0s0,0,0,0c-.82.28-1,1.6-1.19,2.55a6.27,6.27,0,0,0,.42,2.93c.33,1,.64,1.92.89,2.91a88.43,88.43,0,0,1,1.8,12.34c.22,2,.46,4.1.85,6.14a14.93,14.93,0,0,0,.67,2.85,2.84,2.84,0,0,0,.37.71,1.38,1.38,0,0,0,.39.37,3.65,3.65,0,0,0,1.23.36,16.8,16.8,0,0,0,2.84.16c1.07,0,2.14,0,3.22,0a59.49,59.49,0,0,0,6.25-.58c.87-.13,1.75-.27,2.61-.44,1.46-.28,2.92-.62,4.36-1,1.14-.31,2.28-.65,3.4-1l.56-.19a14.51,14.51,0,0,0,1.85-.72c0-.43,0-.87-.07-1.29C87.62,37.65,87.59,37.4,87.58,37.16Zm-2.11,1.46c-.87.32-1.75.6-2.64.87a53.51,53.51,0,0,1-5.61,1.41A58.07,58.07,0,0,1,65.9,42c-.91,0-1.86,0-2.77-.07S62,41,61.84,40.25a53,53,0,0,1-1-5.58c-.3-2.37-.54-4.77-.85-7.14-.18-1.28-.37-2.55-.61-3.83a32.89,32.89,0,0,0-1.68-6,6.9,6.9,0,0,1-.79-3c0-.59.35-1.65.45-2.28l.39-.06c3.71-.56,7.38-1.32,11.09-1.86q2.94-.41,5.89-.71l.31,0c.82-.09,1.64-.18,2.47-.24s1.71-.1,2.56-.21l.2,0c.22.26.43.53.63.82a14.34,14.34,0,0,1,1.44,2.6c.1.25.2.5.29.76A30,30,0,0,1,83.86,19c.68,4.6,1.21,9.22,1.55,13.85.1,1.33.19,2.65.28,4,0,.55,0,1.14,0,1.73Z"/><path class="cls-6" d="M82.54,32.42a.66.66,0,0,1-.56-.51c-.09-.34.19-.52.31-.81.29-.65-.22-1.17-.75-1.47a1.59,1.59,0,0,1-1-1.17,2.39,2.39,0,0,1,.35-1.61c.09-.17-.06-.41-.25-.34-1.52.58-1.14,2.87,0,3.64.15.1.31.18.46.27s.41.17.43.31-.2.36-.25.47a1.25,1.25,0,0,0-.11.5,1.42,1.42,0,0,0,1,1.33c-.13.48-.26.95-.4,1.44a.27.27,0,0,0,.52.15c.19-.6.39-1.19.61-1.78A.34.34,0,0,0,82.54,32.42Z"/><path class="cls-6" d="M78.15,31c-.27-.94-.72-2-.27-3,.05-.1-.09-.24-.19-.14a3.17,3.17,0,0,0-.5,2.95c.12.56.31,1.08.44,1.63a6.26,6.26,0,0,1,.14.83,5.19,5.19,0,0,0,0,.88.39.39,0,0,0,.7.08,2.74,2.74,0,0,0,0-1.63A14.91,14.91,0,0,0,78.15,31Z"/><path class="cls-6" d="M78.18,23.4,80,23.16l1.4-.18a.54.54,0,0,0,.51-.66c-.54-2.95-1.07-5.88-1.56-8.82a.46.46,0,0,0-.44-.33h-.14c-1.68.08-3.36.25-5,.49l-1.23.19a28.63,28.63,0,0,0-5.77,1.28c-.11-.18-.82,0-.44,1.86,0,.18.08.49.15.87.27,1.67.76,4.8,1,5.57a1.18,1.18,0,0,0,1.3,1c.91,0,1.84-.21,2.75-.32l3.06-.36Zm-7.41-.19c-.27,0-.93.24-1.17.13s-.3-.64-.37-.95c-.17-.86-.35-1.71-.53-2.57-.28-1.39-.57-2.79-.87-4.18v0c.85-.09,1.69-.29,2.52-.44,1-.19,2.07-.37,3.12-.51.4-.06.79-.11,1.19-.15q2.4-.3,4.83-.42c0,.23.09.48.13.72.25,1.52.5,3,.73,4.55.15.88.28,1.75.42,2.62-1.54.17-3.07.35-4.6.55C74.37,22.75,72.57,23,70.77,23.21Z"/><path class="cls-6" d="M74.43,32a5.82,5.82,0,0,1,.2-1.38c.08-.41.24-.8.31-1.21s.11-.95.19-1.43a.18.18,0,0,0-.34-.09c-.18.43-.4.87-.55,1.33s-.13.83-.2,1.24A4.19,4.19,0,0,0,74,32.68c.28.71.83,1.27,1.08,2a5.75,5.75,0,0,1,.18,2.44c0,.2.3.24.35,0a5.44,5.44,0,0,0-.75-4.1A2.18,2.18,0,0,1,74.43,32Z"/><path class="cls-6" d="M66.06,32.81c-.51-3.69-.88-7.4-1.17-11.11-.07-.94-.09-1.89-.21-2.81,0-.18-.05-.35-.08-.51A2.75,2.75,0,0,0,63.93,17a1.76,1.76,0,0,0-2-.37.25.25,0,0,0-.11,0c-.07.4-.13.79-.17,1.19h0a30.71,30.71,0,0,0,0,4.07,49.45,49.45,0,0,0,.48,5.3c.26,1.8.59,3.6.93,5.38.17.85.34,1.68.52,2.51a7.75,7.75,0,0,0,.69,2.48,1.69,1.69,0,0,0,1.2.95,1.13,1.13,0,0,0,1.18-.87,4.07,4.07,0,0,0-.13-1.86C66.35,34.83,66.2,33.82,66.06,32.81Zm-.75,4.37a5.08,5.08,0,0,1-.57-1.88c-.66-2.92-1.32-5.82-1.79-8.77-.27-1.69-.53-3.36-.67-5.07-.11-1.31-.08-2.66-.2-4a.84.84,0,0,1,1-.09c.57.26.72,1,.8,1.54.18,1.41.2,2.86.32,4.29.25,3,.61,5.92,1,8.86.2,1.47.43,2.94.62,4.42C65.86,36.94,65.87,37.94,65.31,37.18Z"/><path class="cls-6" d="M45.28,14.64a24.52,24.52,0,0,0-11.19-1.57,17.5,17.5,0,0,0-8.77,2.81,9.42,9.42,0,0,0-1.61,1,12.75,12.75,0,0,0-3.07,3.32,16.42,16.42,0,0,0-1.73,3.58,24.23,24.23,0,0,0-1.13,9.32,16.05,16.05,0,0,0,1.66,6.37,15.29,15.29,0,0,0,2.27,3.21,16.32,16.32,0,0,0,1.54,1.46,18.09,18.09,0,0,0,2,1.42,21.43,21.43,0,0,0,10.16,3c4.21.22,8.93-.37,12.39-3a4.31,4.31,0,0,0,.4-.32,12,12,0,0,0,2.53-2.9A21.53,21.53,0,0,0,53.42,35c.81-4.11,1.26-8.66-.25-12.67A13.69,13.69,0,0,0,45.28,14.64ZM52.54,31.7c-.45,3.67-1.29,7.65-3.54,10.68l0,0a10.34,10.34,0,0,1-3.48,2.92,16.66,16.66,0,0,1-6.59,1.77,22.45,22.45,0,0,1-10.7-1.56,16.14,16.14,0,0,1-4.46-2.87,13.64,13.64,0,0,1-4-6.35,21,21,0,0,1-.61-6.42c0-.32,0-.65.06-1a19.67,19.67,0,0,1,.59-3.58c.09-.39.21-.79.33-1.18,0-.1.07-.21.11-.31s.13-.39.21-.57.17-.42.27-.63.22-.5.35-.75h0c.16-.28.31-.57.49-.85a12,12,0,0,1,.82-1.23,10.54,10.54,0,0,1,1.12-1.3c0,.42,5.11-3.06,8.33-3.69A22.76,22.76,0,0,1,36,14.43a24.27,24.27,0,0,1,6.09.69c3.27.8,6.51,2.41,8.47,5.22C52.86,23.65,53,27.83,52.54,31.7Z"/><path class="cls-6" d="M36.73,26.31c-.19,0-.37,0-.56,0a3,3,0,0,0-.55.14,4.55,4.55,0,0,0-.72.3.32.32,0,0,0,.22.1c.32,0,.64,0,1,0l.1-.05a4.56,4.56,0,0,1,.58-.3A.11.11,0,0,0,36.73,26.31Z"/><g class="cls-8"><path d="M91.61,51.8c-3.61,5.05-9.15,8.47-15,10.58s-12,3-18.19,3.92L20.84,71.8c-3.22.47-6.65.91-9.61-.44A13.69,13.69,0,0,1,6,66.47,34.63,34.63,0,0,1,2.55,34C5.88,39.76,6,45.72,7.92,52.09c1.16,3.84,3.82,9.38,7.48,11a26.63,26.63,0,0,0,11,2.08c3.87,0,8.12-1,11.87-2,17.34-4.4,33.89-6.62,51.32-10.68"/></g></g></g></g></g></svg>