<svg xmlns="http://www.w3.org/2000/svg" viewBox="0 0 219 78.85"><defs><style>.cls-1{isolation:isolate;}.cls-2{fill:#eaeaea;}.cls-3,.cls-5{fill:#fff;}.cls-4{fill:#f7be72;}.cls-5{opacity:0.8;mix-blend-mode:overlay;}.cls-6{opacity:0.15;mix-blend-mode:darken;}</style></defs><g class="cls-1"><g id="Layer_2" data-name="Layer 2"><g id="dropzone_items"><g id="plate"><g id="plate-2" data-name="plate"><path class="cls-2" d="M86.77,28.33c7.3,4.31,15.77,10.89,9.61,14.48a20.11,20.11,0,0,1-6.69,2c-.87.14-1.77.25-2.63.37-1.34.17-2.64.32-3.8.5-2.72.43-5.47.77-8.23,1-1,.09-2,.16-3,.2s-1.92.06-2.87.06c-4.51,0-9.37-.49-13.29-2.93-3.65-2.27-5.21-5.3-6.11-9-.17-.67-.31-1.37-.44-2.09-.59-.18-1.18-.37-1.79-.53a89.82,89.82,0,0,0-25.81-2.78c-4.68.13-9.13,1.12-13.74,1.69-2.94,1.22-4.28.45-4-2.3-1-1.5-.86-2.56.56-3.16a12.84,12.84,0,0,1,4.74-2.59,21.66,21.66,0,0,1,8.4-.64.37.37,0,0,0,.28-.08h0c3,.46,6.29.21,9.32.48,4.91.45,9.78,1.11,14.65,1.85,8.34,1.28,5.16-.56,13.41.94h.12a.49.49,0,0,0,.32-.16c4.58-5.2,12.1-4.58,18.57-2.79.77.21,1.51.44,2.24.67s1.58.54,2.32.8a56.09,56.09,0,0,1,7,3.49Z"/><path class="cls-3" d="M186.22,20c8.24,3.74,17.56,9.28,17.31,19.54-.25,10-8.46,17.44-17.19,20.91-8.57,3.41-18.14,4.33-27.25,5.06a171.57,171.57,0,0,1-28.85-.1c-14.93-1.3-31.29-6.86-39.54-19,3.72-.71,8.21-1.82,9.75-4.91,1.87-3.73-2.54-7.15-5-9.28a48.18,48.18,0,0,0-7.58-5.45c4.12-5.16,11-8.2,17.43-9.77a179.51,179.51,0,0,1,27.08-4.16C150.53,11.29,169.45,12.42,186.22,20Z"/><path class="cls-3" d="M205.06,15.82c12.06,7.68,14.54,22.37,7.44,34.5-12.9,22-44.7,26.81-67.81,25.15a168.62,168.62,0,0,1-38.31-7.68c-10.56-3.3-22.56-7.36-29.1-16.94a22.11,22.11,0,0,1-1.19-2A113.91,113.91,0,0,0,87.47,47l.59-.12c6.83,10.69,20.41,17.17,32.74,19.32,11.39,2,23.11,1.83,34.6,1.18,10.9-.63,22.7-1.32,32.89-5.58,15-6.26,24.93-25.82,9.68-37.68-16.35-12.7-40.75-14.8-60.62-13.67-11.76.66-24.25,2-35.54,5.54-6,1.86-11.68,5.19-14.94,10.17a48.38,48.38,0,0,0-5.39-2.57c-1-.39-2-.79-3.13-1.18a33.6,33.6,0,0,1,4.85-6.37,44.64,44.64,0,0,1,5.7-4.6c26.17-7.32,53-10.45,80-6.42a158.33,158.33,0,0,1,21,4.21A58.66,58.66,0,0,1,205.06,15.82Zm7,11.81a.05.05,0,1,0,0-.1A.05.05,0,0,0,212,27.63Z"/><path d="M217.65,27.37c4,12-1.36,24.91-10.19,33.24-20.42,19.25-52.6,20.64-78.71,16-13.47-2.37-27.75-5.83-39.93-12.2C82,60.88,76.14,55.78,73,49.16a58,58,0,0,1-7.1,0c-7.54-.44-19.76-5.62-18.74-14.84-7.21-1.74-14.35-3.05-21.94-2.78A110.92,110.92,0,0,0,10,33.33c-2.39.41-4.94,1-7.23-.15-3.57-1.81-3.54-5.49-.88-8.08a16.06,16.06,0,0,1,14.84-3.68.2.2,0,0,1,.09-.05c3.37-1,7.61-.08,11.05.26,4.37.43,8.72,1.05,13.06,1.72,4.57.71,10,1,13.94,1.9A.85.85,0,0,1,55,25c4-6.37,12.91-5.62,20.18-3.59.33.1.67.19,1,.3A36.77,36.77,0,0,1,85.7,11.19c.61-.45,1.23-.88,1.85-1.29C95.94,4.38,105.74,2.35,115.66,2c1-.16,2.09-.32,3.14-.46l2.42-.33h0A173.64,173.64,0,0,1,190.56,7l.83.24C202.16,10.45,213.8,15.9,217.65,27.37Zm-5.15,23c7.1-12.13,4.62-26.82-7.44-34.5A58.66,58.66,0,0,0,189.9,9.26a158.33,158.33,0,0,0-21-4.21c-27-4-53.83-.9-80,6.42a44.64,44.64,0,0,0-5.7,4.6,33.6,33.6,0,0,0-4.85,6.37c1.13.39,2.18.79,3.13,1.18a48.38,48.38,0,0,1,5.39,2.57c.35.19.68.39,1,.6a48.18,48.18,0,0,1,7.58,5.45c2.44,2.13,6.85,5.55,5,9.28-1.54,3.09-6,4.2-9.75,4.91l-2.64.48-.59.12A113.91,113.91,0,0,1,76.09,48.9a22.11,22.11,0,0,0,1.19,2c6.54,9.58,18.54,13.64,29.1,16.94a168.62,168.62,0,0,0,38.31,7.68C167.8,77.13,199.6,72.35,212.5,50.32ZM96.39,42.8c6.16-3.58-2.32-10.16-9.62-14.47l-.85-.49a56.72,56.72,0,0,0-7-3.49c-.74-.27-1.51-.54-2.32-.8s-1.47-.46-2.24-.67c-6.46-1.79-14-2.41-18.56,2.79a.54.54,0,0,1-.33.16h-.12c-8.24-1.51-5.06.34-13.41-.94-4.86-.74-9.74-1.4-14.65-1.85-3-.27-6.3,0-9.32-.48h0a.36.36,0,0,1-.28.08,21.66,21.66,0,0,0-8.4.64,12.84,12.84,0,0,0-4.74,2.59Q2.39,26.76,4,29c-.23,2.75,1.11,3.51,4,2.3,4.62-.57,9.06-1.56,13.75-1.69a89.89,89.89,0,0,1,25.81,2.78c.6.16,1.19.35,1.79.53.12.72.27,1.41.43,2.09.9,3.71,2.46,6.74,6.11,9C59.81,46.48,64.68,47,69.18,47c1,0,1.91,0,2.87-.06s2-.11,3-.2c2.76-.22,5.51-.56,8.23-1,1.16-.18,2.46-.33,3.81-.5.86-.12,1.75-.23,2.62-.37A20,20,0,0,0,96.39,42.8Z"/><path d="M212,27.53a.05.05,0,1,1,0,.1A.05.05,0,0,1,212,27.53Z"/><path class="cls-4" d="M203.53,39.55c.25-10.26-9.07-15.8-17.31-19.54-16.77-7.59-35.69-8.72-53.82-7.15A179.51,179.51,0,0,0,105.32,17C98.88,18.59,92,21.63,87.89,26.79c-.34-.21-.67-.41-1-.6,3.26-5,8.93-8.31,14.94-10.17,11.29-3.5,23.78-4.88,35.54-5.54,19.87-1.13,44.27,1,60.62,13.67,15.25,11.86,5.32,31.42-9.68,37.68-10.19,4.26-22,5-32.89,5.58-11.49.65-23.21.79-34.6-1.18-12.33-2.15-25.91-8.63-32.74-19.32l2.64-.48c8.25,12.13,24.61,17.69,39.54,19a171.57,171.57,0,0,0,28.85.1c9.11-.73,18.68-1.65,27.25-5.06C195.07,57,203.28,49.59,203.53,39.55Z"/><path class="cls-5" d="M64.44,23.77A21.69,21.69,0,0,0,57.13,29C56,30.24,55,31.75,55.22,33.38c.26,2.08,2.52,3.45,4.62,3.45a12.66,12.66,0,0,0,5.9-2,14.27,14.27,0,0,1,5.85-2.21c4.65-.27,8.38,4,13,4.68a2.38,2.38,0,0,0,2-.42,2.11,2.11,0,0,0,.4-1.94c-.45-2.22-2.46-3.74-4.4-4.91a48.65,48.65,0,0,0-15.75-6.09,4.4,4.4,0,0,0-2.16,0,1.6,1.6,0,0,0-1.19,1.61"/><path class="cls-5" d="M88.77,38a1.68,1.68,0,1,0,2.85,0c-.76-1.19-2.61-1-3.78-.18"/><g class="cls-6"><path d="M86.72,23.89c-1-2.58-6-2.87-8.38-1.45C82.71,25.59,88.63,27.8,93,31c2.51,1.8,5.3,4.23,4.94,7.3a5.9,5.9,0,0,1-3.11,4.21,17.6,17.6,0,0,1-5.14,1.67L78.83,46.44a3.83,3.83,0,0,0-2.08.91c-1,1.13-.34,2.93.5,4.21,3.22,4.9,8.39,8.73,14.21,9.37s12.15-2.46,14.39-7.87c1.77-4.29.85-9.32-1.42-13.37s-5.76-7.25-9.3-10.24A57.37,57.37,0,0,0,86.72,23.89Z"/></g><g class="cls-6"><path d="M4.06,31.78c-1.69.91-.6,3.51.73,4.89,9.92,10.27,24.19,14.87,38,18.61a102.71,102.71,0,0,0,16.43,3.43,111.1,111.1,0,0,0,13.9.28l23.08-.5L75.38,49,55.71,46.43Z"/></g><path class="cls-5" d="M7.78,26.07a101.77,101.77,0,0,1,40.14,2.48l-9.13-.06a200.06,200.06,0,0,0-23.23.76c-2.93.32-6.11.73-8.65-.78a1.36,1.36,0,0,1-.76-.87,1.31,1.31,0,0,1,.26-.84,4.6,4.6,0,0,1,3.91-2.11"/></g></g></g></g></g></svg>