<svg xmlns="http://www.w3.org/2000/svg" viewBox="0 0 233.85 139.99"><defs><style>.cls-1{isolation:isolate;}.cls-2{fill:#db936b;}.cls-3{fill:#f7be72;}.cls-4{fill:#fff;opacity:0.8;mix-blend-mode:overlay;}.cls-5{opacity:0.15;mix-blend-mode:darken;}</style></defs><g class="cls-1"><g id="Layer_2" data-name="Layer 2"><g id="dropzone_items"><g id="wooden"><path class="cls-2" d="M232.28,15.41c0,.15-.05.3-.08.45a15.41,15.41,0,0,1-2.84,6.66c-3.15,3.95-8.25,5.9-12.83,7.63-9.29,3.49-19.3,5.74-26.79,12.67-.52.48-1,1-1.51,1.51,0-.12,0-.25.06-.37a13.37,13.37,0,0,1,3.29-6.9c6.79-2.7,13.53-5.53,20.29-8.29,5.93-2.42,12.77-4.55,17.47-9.13A13.61,13.61,0,0,0,232.28,15.41Z"/><path class="cls-3" d="M230.44,6.63a8.48,8.48,0,0,1,.69,4c-.27,4.33-3.25,7.52-6.73,9.76-5.37,3.45-11.88,5.39-17.78,7.72-5.21,2.07-10.48,4-15.71,6l.06.15c-1.83.78-3.28,2.8-4.2,4.64-.15.31-.29.62-.41.91A30.67,30.67,0,0,0,184.31,50c-.13,2.3.5,6.78.74,6.63.06.75.11,1.51.14,2.28.21,4.36,0,8.83-1.9,12.75-3.12,6.59-10.43,8.54-16.74,10.82Q147,89.59,127.29,96.24c-24.31,8.19-49,15.23-73.17,23.87a1.3,1.3,0,0,0-1.63-.42C41.73,125.4,34.35,114.48,29,106.77Q21.33,95.63,14.4,84C9.78,76.26,4.14,67.43,4.32,58.06c.12-6,2.82-10.3,6.45-14.06,8.92-1.89,17.78-4.56,26.51-6.87q18.88-5,37.67-10.37,33.51-9.6,66.65-20.42A25.33,25.33,0,0,1,146.32,8a46.66,46.66,0,0,1,4.44,2.4c5.62,3.35,11.1,7.44,17.64,8.27,5.41.68,10.73-1.06,15.82-2.65q9-2.81,17.83-6l2-.7c1.09-.39,2.21-.85,3.36-1.34,4.12-1.77,8.58-4,12.9-4.89A18.36,18.36,0,0,1,224,2.69a7.55,7.55,0,0,1,2.53.38,5.21,5.21,0,0,1,.94.4A5.83,5.83,0,0,1,230.44,6.63ZM217.84,17c3.41.22,5.92-3.17,5.62-6.39a2.31,2.31,0,0,0-1.06-2.09,6.73,6.73,0,0,0-2.82-.46,8.06,8.06,0,0,0-.87.07,4.57,4.57,0,0,0-5.33,2.25C211.91,13.46,214.75,16.82,217.84,17Z"/><path class="cls-2" d="M220.6,11.11c.07,2.29-2.18,4.51-4.35,2.6a2.22,2.22,0,0,1-.81-1.39,1.12,1.12,0,0,0,.5-.16,8.2,8.2,0,0,1,3.62-1.08A6,6,0,0,1,220.6,11.11Z"/><path class="cls-2" d="M180.69,79.29c.3-.23.58-.47.85-.71A40,40,0,0,1,173.8,85c-8.46,5.49-18,9-27.5,12.21-20.65,7-41.45,13.47-62.15,20.26-5.93,1.94-11.87,3.87-17.79,5.85-5.3,1.77-10.72,3.39-15.92,5.48a13.27,13.27,0,0,0-3.09-.07,15.93,15.93,0,0,1-3.7-.57,27.36,27.36,0,0,1-6.71-2.9,48.15,48.15,0,0,1-10.45-8.43c-6.61-6.93-11.43-15.28-16.36-23.43C8.68,91,7.2,88.67,5.67,86.33c-.4-.61-.82-1.22-1.25-1.81h0c-.32-1.79-.65-3.58-.89-5.39-.37-2.94-.64-5.89-.76-8.85-.09-2.14-.15-4.29-.16-6.44,1.49,8.27,6.42,16,10.58,23,6,10,12.09,20.77,19.71,29.67,5,5.85,14.1,10.82,21.08,5.09a1,1,0,0,0,.3-.36c28.14-6.34,55.68-16,82.93-25.38q11-3.76,21.9-7.7c6.3-2.27,13.15-4.12,19.08-7.28a16.49,16.49,0,0,0,2.2-1.39Z"/><path class="cls-4" d="M6,53.09c6.92-3.6,15-4.17,22.27-7.07L4.66,56.59c.28-.07,1.29-3.5,1.29-3.5"/><path class="cls-4" d="M6,72.52A247.61,247.61,0,0,1,60.42,55.13c-8.69,5.4-19.15,6.91-28.92,10A92.13,92.13,0,0,0,9.27,75.47"/><path class="cls-4" d="M152.93,52.21c-12.66,5.44-25.66,11-39.43,11.71a249.2,249.2,0,0,1,34.39-11.61A9.32,9.32,0,0,1,152.93,52.21Z"/><path class="cls-4" d="M85.06,100.16a79.43,79.43,0,0,0-21.68,9.44c3.26.38,6.15-1.87,9.16-3.16a53.29,53.29,0,0,1,8.2-2.2c2.75-.68,5.54-1.69,7.52-3.72a.5.5,0,0,0,.2-.44.52.52,0,0,0-.31-.27A3.78,3.78,0,0,0,85.06,100.16Z"/><path class="cls-4" d="M160.85,60.58l-7.66,2.6c-6.35,2.15-12.8,4.32-19.5,4.58a172.81,172.81,0,0,1,24.89-8.25,10.69,10.69,0,0,1,4.3-.45A5.28,5.28,0,0,1,160.85,60.58Z"/><path class="cls-4" d="M185,70l-6.11,2.35C175,73.8,170.73,75.26,167,73.59c4.58-2.18,13-4.46,17.71-6.28Z"/><path class="cls-4" d="M43.94,79.18a35.35,35.35,0,0,1,6.93-3.73,47.25,47.25,0,0,1,6.44-1.8l13.76-3.17C63,75.16,43.94,79.18,43.94,79.18Z"/><path class="cls-4" d="M89.67,38.94C84.14,40.7,78.49,42.52,73.85,46c3.25.19,6.2-1.73,9.28-2.79,3.3-1.13,7-1.34,9.94-3.12a1.42,1.42,0,0,0,.75-.83,1,1,0,0,0-.65-1A11.52,11.52,0,0,0,89.67,38.94Z"/><path class="cls-4" d="M150,9.55c-8,.89-15.27,5.4-23.26,6.51,5.95-1.61,10.87-5.71,16.44-8.33a7.91,7.91,0,0,1,2.65-.85Z"/><path class="cls-4" d="M175.8,22.76q-10.86,3-21.41,6.94c4.26,1.45,8.85-.4,13-2.07q6.72-2.7,13.65-4.84a10.69,10.69,0,0,0-6.93.79"/><path class="cls-4" d="M204.66,8.77,187.3,16.1c6.77,1,18-3.63,17.16-3.27,5.46-3,14.07-7.17,19.53-10.14-.87-1-5.67.57-6.94,1q-13.11,4.77-26.4,9"/><path class="cls-4" d="M162.61,79c-2.31,1.09-4.72,2-7.13,2.84-11.46,4.13-23,8.29-35,10.14a297.57,297.57,0,0,1,31-10.91A65.88,65.88,0,0,1,162.61,79Z"/><g class="cls-5"><path d="M1.55,69.81C3,78.1-1.21,86.64.35,94.92c.89,4.75,3.62,8.94,6.38,12.92q7,10.13,14.8,19.68c3.89,4.78,8.23,9.65,14.1,11.55s12,.54,17.91-1c19.09-5.15,37.44-12.8,56.56-17.84,12.86-3.39,26.11-5.61,38.37-10.77s23.76-13.83,28.7-26.18L156,91.3c-16.48,6.26-33,12.53-50,17.08-11.25,3-22.74,5.26-33.6,9.46-8.29,3.21-13,9-21.66,11A22.56,22.56,0,0,1,32,125.39c-4.23-3.09-10.28-8.38-12.69-13A305.39,305.39,0,0,0,3,84.08Z"/></g><g class="cls-5"><path d="M214.93,33.81c-7.7.47-15.63,2.15-21.77,6.84s-10,12.91-7.82,20.31a2.56,2.56,0,0,0,3.78,1.86c3.9-1,7.06-3.77,10.15-6.35,5.2-4.32,10.77-8.37,17.11-10.73,3.8-1.41,8-2.32,10.83-5.25,3.59-3.79,3.61-9.62,3.41-14.84-1.46-.49-3,.07-4.47.63l-24.1,9.34"/></g><path d="M233.61,10.76h0l-.21-2.44a10.29,10.29,0,0,0-1.46-4.26,8.85,8.85,0,0,0-.77-1,8.22,8.22,0,0,0-3.73-2.5,10.38,10.38,0,0,0-3.51-.5,18.45,18.45,0,0,0-4.31.59,57.1,57.1,0,0,0-8.3,2.67c-1.26.49-2.51,1-3.76,1.53-1.68.7-3.36,1.42-5,2.08-1.26.51-2.51,1-3.74,1.42-8.06,2.81-16.7,6.48-25.2,7.62-7.87,1.06-15.05-4.23-22.25-8.24a47.14,47.14,0,0,0-5.25-2.58L145.78,5a22.56,22.56,0,0,0-2.44-.82l-4,0c-2.47.83-4.93,1.64-7.4,2.45q-28.21,9.24-56.7,17.61Q57,29.63,38.62,34.64C30.51,36.85,22.16,38.7,14,41c-1.35.37-2.7.76-4,1.16a30,30,0,0,0-2.39,2.53A22.29,22.29,0,0,0,2.75,53.8h0a14.34,14.34,0,0,0-1.23,3.37C1.24,58.57,1,60,.85,61.4a66.09,66.09,0,0,0-.52,9.11c0,2.94.15,6,.46,9,0,.2,0,.41.07.61,1.23,2,2.18,4.2,3.29,6.32l.79,1.52c1,1.9,1.93,3.83,2.93,5.73,2.44,4.66,5,9.27,7.82,13.7,5,7.88,11.4,15.26,19.49,20.12a29.88,29.88,0,0,0,7.51,3.33,22.37,22.37,0,0,0,4.23.7c1.37.1,2.85.21,4-.62a1.38,1.38,0,0,0,.27-.27l.3-.22c4.81-1.29,9.53-3,14.26-4.53,5.38-1.75,10.75-3.55,16.12-5.33Q98,115.2,114.1,109.79q15.89-5.37,31.79-10.66c9.59-3.2,19.22-6.69,27.84-12.07a40.12,40.12,0,0,0,11-9.7c2.58-3.45,3.11-8.94,2.72-13.48h0s0-.11,0-.16a49.27,49.27,0,0,0,0-5,26.36,26.36,0,0,0-.9-5.4,21.85,21.85,0,0,1,1.24-2.58,23.05,23.05,0,0,1,4.64-5.78,39.89,39.89,0,0,1,12-7.1c5-2,10.08-3.55,15-5.63,4.35-1.83,9-4.26,11.78-8.25a16.85,16.85,0,0,0,2.62-7.36A28.86,28.86,0,0,0,233.61,10.76ZM173.8,85c-8.46,5.49-18,9-27.5,12.21-20.65,7-41.45,13.47-62.15,20.26-5.93,1.94-11.87,3.87-17.79,5.85-5.3,1.77-10.72,3.39-15.92,5.48a13.27,13.27,0,0,0-3.09-.07,15.93,15.93,0,0,1-3.7-.57,27.36,27.36,0,0,1-6.71-2.9,48.15,48.15,0,0,1-10.45-8.43c-6.61-6.93-11.43-15.28-16.36-23.43C8.68,91,7.2,88.67,5.67,86.33c-.4-.61-.82-1.22-1.25-1.81h0c-.32-1.79-.65-3.58-.89-5.39-.37-2.94-.64-5.89-.76-8.85-.09-2.14-.15-4.29-.16-6.44,1.49,8.27,6.42,16,10.58,23,6,10,12.09,20.77,19.71,29.67,5,5.85,14.1,10.82,21.08,5.09a1.07,1.07,0,0,0,.21-.22l.15-.16c28.12-6.34,55.64-16,82.87-25.36q11-3.76,21.9-7.7c6.3-2.27,13.15-4.12,19.08-7.28a16.49,16.49,0,0,0,2.2-1.39l.3-.22c.3-.23.58-.47.85-.71A40,40,0,0,1,173.8,85Zm13-46.08c-.15.31-.29.62-.41.91A30.67,30.67,0,0,0,184.31,50c-.13,2.3.5,6.78.74,6.63.06.75.11,1.51.14,2.28.21,4.36,0,8.83-1.9,12.75-3.12,6.59-10.43,8.54-16.74,10.82Q147,89.59,127.29,96.24c-24.31,8.19-49,15.23-73.17,23.87a1.3,1.3,0,0,0-1.63-.42C41.73,125.4,34.35,114.48,29,106.77Q21.33,95.63,14.4,84C9.78,76.26,4.14,67.43,4.32,58.06c.12-6,2.82-10.3,6.45-14.06,8.92-1.89,17.78-4.56,26.51-6.87q18.88-5,37.67-10.37,33.51-9.6,66.65-20.42A25.33,25.33,0,0,1,146.32,8a46.66,46.66,0,0,1,4.44,2.4c5.62,3.35,11.1,7.44,17.64,8.27,5.41.68,10.73-1.06,15.82-2.65q9-2.81,17.83-6l2-.7c1.09-.39,2.21-.85,3.36-1.34,4.12-1.77,8.58-4,12.9-4.89A18.36,18.36,0,0,1,224,2.69a7.55,7.55,0,0,1,2.53.38l.94.4h0a6.49,6.49,0,0,1,3,3.16,8.48,8.48,0,0,1,.69,4c-.27,4.33-3.25,7.52-6.73,9.76-5.37,3.45-11.88,5.39-17.78,7.72-5.21,2.07-10.48,4-15.71,6l.06.15C189.14,35.08,187.69,37.1,186.77,38.94ZM232.2,15.86a15.41,15.41,0,0,1-2.84,6.66c-3.15,3.95-8.25,5.9-12.83,7.63-9.29,3.49-19.3,5.74-26.79,12.67-.52.48-1,1-1.51,1.51,0-.12,0-.25.06-.37a13.37,13.37,0,0,1,3.29-6.9c6.79-2.7,13.53-5.53,20.29-8.29,5.93-2.42,12.77-4.55,17.47-9.13a13.61,13.61,0,0,0,2.94-4.23h0a14.36,14.36,0,0,0,.8-2.34,14.36,14.36,0,0,1-.8,2.34C232.26,15.56,232.23,15.71,232.2,15.86Z"/><path d="M217.84,17c3.41.22,5.92-3.17,5.62-6.39a2.31,2.31,0,0,0-1.06-2.09,6.73,6.73,0,0,0-2.82-.46,8.06,8.06,0,0,0-.87.07,4.57,4.57,0,0,0-5.33,2.25C211.91,13.46,214.75,16.82,217.84,17Zm-1.9-4.87a8.2,8.2,0,0,1,3.62-1.08,6,6,0,0,1,1,0c.07,2.29-2.18,4.51-4.35,2.6a2.22,2.22,0,0,1-.81-1.39A1.12,1.12,0,0,0,215.94,12.16Z"/></g></g></g></g></svg>